<mxfile host="65bd71144e" modified="2020-11-12T02:12:02.704Z" agent="5.0 (Windows NT 10.0; Win64; x64) AppleWebKit/537.36 (KHTML, like Gecko) Code/1.50.1 Chrome/83.0.4103.122 Electron/9.2.1 Safari/537.36" etag="PTnjT61VX9on7WRgH6VH" version="13.6.5">
    <diagram id="_tJhIZ9N7Pr3JYJ2YtDO" name="Page-1">
        <mxGraphModel dx="1359" dy="924" grid="1" gridSize="10" guides="1" tooltips="1" connect="1" arrows="1" fold="1" page="1" pageScale="1" pageWidth="850" pageHeight="1100" math="0" shadow="0">
            <root>
                <mxCell id="0"/>
                <mxCell id="1" parent="0"/>
                <mxCell id="139" value="" style="shape=image;verticalLabelPosition=bottom;labelBackgroundColor=#ffffff;verticalAlign=top;aspect=fixed;imageAspect=0;image=data:image/png,iVBORw0KGgoAAAANSUhEUgAAAgAAAAIACAYAAAD0eNT6AAAABHNCSVQICAgIfAhkiAAAAAlwSFlzAAAN1wAADdcBQiibeAAAABl0RVh0U29mdHdhcmUAd3d3Lmlua3NjYXBlLm9yZ5vuPBoAACAASURBVHic7d153G71uPjxz7V3kwYl0WCqpCKiUQiJjrEypoQcfohjOGaOcDhmQuZZJcI5QpmiKJWolAYaaCANSEpz2vv6/bHunT3vZ7ivte5135/363W/2ns/z3NdV/tee32v+7vW+n4jM5E0GiLi7sBGwFrAmoP/Lv7rFf1+VeBG4IbB6/op/vofwCXAhZl5RfX/q6RuhQ2A1K6IWB3YHNgC2HLw3wWvNTosbWE3AhcNXhcu9LoIuCQzb+2wNklDYAMgFYiIAO7Ovwb2hQf6ewDRXXWzNh+4lH81BOcCJwOnZ+YtXRYmaepsAKQhiIj1gEcNXjvRfMIflU/zbbkV+BVNM3Ay8PPMvLzbkiQtiw2ANAMRsTbwCGDXwesB9PtTfZU/Aj9n0BAAv87M27otSRLYAEhTMrhuvzP/GvC3BeZ2WlQ/3QScStMMfB84KTPnd1uSNJlsAKSliIhVgIfQTOnvCjwYWKXTosbTX4DvAEcAP/HmQqk9NgDSQESsCuwOPBd4DHCHbiuaONcC36NpBn6YmTd0XI801mwANPEi4qE0g/4zgXU6LkeNm4Af0TQDR2Xm3zuuRxo7NgCaSBGxCfCcwWuzjsvR8t0GHEfTDHzNZkAaDhsATYzBnfvPoPm0vzPetd9HNwFfBT6Zmad3XYzUZzYAGmsRMRd4LM2gvyewWrcVaYh+CXwS+EZm3tx1MVLf2ABoLEXEpsDLgGcB63dcjmr9Dfgi8OnMvKjrYqS+sAHQWImI+wJvohn4fU5/siTwQ5pZge+7voC0fDYAGgsR8SDgzcBTgTkdl6PuXQJ8Bvh8Zl7VcS3SSLIBUK9FxE7AAcATu65FI+kG4CDgA5l5TdfFSKPEBkC9FBG70Az8j+64FPXDNcAHgINcYEhq2ACoVyLi8TQD/0O7rkW99Bfg3TQ3DLp1sSaaDYBGXkQE8BSaa/zbdlyOxsOlwNuBQ9ydUJPKBkAjLSIeCxwIbNV1LRpLvwPeCnw9PRlqwtgAaCRFxN2BDwNP77oWTYSzgAMy86iuC5HaYgOgkRIRKwGvovlUtmbH5YyC+cD1wHXTeN0CrE7z9zfV17rASi39P42yE4D9M/O3XRciVbMB0MiIiEcCn2DypvuvBs5fyuuPwA1tTE0PGq970myMdO/Ba+FfT9LWyLcC7wPe5Y2CGmc2AOpcRKwPfBB4dte1FPoncCFLGehHfaGawU2YG7JoU7AF8BDgbh2WVu0C4MWZeVzXhUgVbADUmcFGPS8B3gms3XE5w/YX4KfAT4CfAb8fx7vNI2Jjmp0VF7zux/jtsvgl4LWZeXXXhUjDZAOgTkTEg4FPAdt0XcuQXAscTzPgHwv8ZhLvKo+IdYGH8a+GYHtglU6LGo6/AK/KzK92XYg0LDYAalVE3Bl4D/D/6PcnxRuBk/jXgH96Zs7rtqTRExGrATsCjwCeDGzXbUWzdjTwksy8uOtCpNmyAVBrIuLpwKeBO3ddywz9Fvg/mgH/F5l5a8f19E5EbAI8g+bxzh06LmembqRZROhD43hZR5PDBkDlImJVmsV8/qPrWmbgL8DhwKGZeXrXxYyTwf0DT6NpCHakfzNCZwLP8pFB9ZUNgEpFxL2Bb9CvJXxvBr4DfBk42k959SLinvyrGdiJ/jQDN9JcEji060Kk6bIBUJmIeAbweeCOXdcyBUmzCMyhwP9l5rUd1zOxBqtAPotmxuieHZczVV8EXpaZN3VdiDRVNgAausGU/4eAl3ZdyxRcQPNJ/7DMvKTjWrSQwWOiTwH+k+bJglF3NvCMzDy/60KkqbAB0FBFxGY0U/6j/Hhf0kzxvz8zT+66GK1YRGxP0wjsBazccTnLcz3N4kE+LqiRZwOgoYmIvYDPMbpT/vNompN3Z+Y5XRej6YuIjWhmll4MrNdxOcvzWeCVmXlz14VIy2IDoFkbTPl/BNi/61qW4Z800/zvzczfdV2MZm+wvsCzgVcC9++4nGU5k+aSgMecRpINgGYlIu5D86n6QV3XshQ3A1+gmer/Y9fFqEZEPBZ4F6O5yNB1wAsz8+tdFyItzgZAMxYRTwUOBtbquJTFXU+zzPCHMvPKrotRvcGGRc+kaQQ27bicpfk48J+uFqlRYgOgGYmIlwIfA+Z0XctCrgE+Chzkxi2TKSJWprkU9RbgLh2Xs7ijgGf6qKBGhQ2Api0i3g68tes6FjIP+ATwVp/fF0BErAW8Dng1sEbH5SzsZGD3zPxb14VINgCasoiYA3yS5g7sUfEL4KWZeUbXhWj0RMQGwNtoNp9aqeNyFjgPeFxm/qHrQjTZbAA0JYM7/b9Cs1zrKLgaeCPw+UncdlfTExGb09wf8PSuaxm4HHh8Zp7VdSGaXDYAWqGIuCPNwjm7dFwKNIv4fAl4Q2Ze1XUx6peIeCTNkyH37roW4FrgyZl5XNeFaDKN0g1cGkGDKdTjGY3B/yzg4Zn5Agd/zURmHg9sTbNuxfyOy1kb+OFgzwypdTYAWqbBTn4n0f0z/tfR3My1XWae1HEt6rnMvDEzXwU8gmYviC6tCnwtIl7ecR2aQDYAWqqI2IZm8O/6mepvAFtm5ofdllfDNGgmHwh8kG5nA+YAH42I93ZYgyaQ9wBoCRGxK/Btul3g5xrgBZl5RIc1aEJExE40W/ret+NSDqY57ru+PKEJ4AyAFhERTwe+T7eD/6nAtg7+aktm/oJmB8v30qwr0ZXnAZ/uML8miDMAul1E7AEcAcztsIyDgNdn5q0d1qAJNth6+BDgfh2W8aHMfE2H+TUBbAAEQETsDPwIuENHJfwdeH5mfruj/NLtImINmscFn9lhGf+dmW/vML/GnA2AiIj7AycA63RUwi+BvTPzko7yS0sVEa8H3k13s2KvzswPd5RbY84GYMJFxL2AnwMbdVTCh4A3ZuY/O8ovLVdE7AZ8DVi3oxJemJmf7yi3xpgNwASLiPWAE4EtOkj/d+B5mXlkB7mlaYmITWiejNm6g/TzgX0z82sd5NYY8ymACTW4xvl9uhn8fwE8yMFffZGZFwMPAb7eQfo5wKER8aQOcmuM2QBMoMGe6UcAO3SQ/nDgEZn5xw5ySzM2WEFwb+D1tP+o4MrA/w7W6JCGwksAEyYigmZXv306SP9R4D/dvU991+F9AdcDuw3WLZBmxRmAyfNhuhn835yZr3Tw1zjIzB8D29P+XgJrAt+PiC4u3WnMOAMwQSLiTTSPNLVpHrC/dzFrHEXEXWnWz3hgy6nPA3bMzOtazqsxYgMwISLi+TQLm7TpZmAfF/fROIuIdYAfADu1nPrbwFOdVdNMeQlgAkTEo4HPtpz2WuCxDv4ad5l5DfAY4NiWUz8ZOKDlnBojzgCMuYjYAPg1sH6Laa8EHpeZZ7aYU+pURKxKs331Hi2mnQ/skZnfazGnxoQzAGMsIuYAX6Xdwf/3wEMd/DVpMvMW4Gk0/+baMgc4LCLu02JOjQkbgPH2VuBRLeY7HXjYYNEUaeJk5m3Ac4DPtJh2HeBbEbFmizk1BrwEMKYG1/1/RHtN3tk0C/xc01I+aaRFxPuB17WY8v8y8xkt5lPPOQMwhgbX/b9Ce+/vJTTX/B38pYHMfD3NLFxbnh4Rb2wxn3rOGYAxM7ju/2OgrSVD/wrsnJltL4gi9UJEHAi8uqV084EnZObRLeVTjzkDMH7eQnuD//U0JxsHf2nZXkt7mwjNAQ6PiE1byqcecwZgjAw2Cvkx7TR2twJPzMxjWsgl9drgEcGjgUe2lPIXNDNzbW9apB5xBmBMRMT6tHfdfz7wXAd/aWoGjwg+GfhNSyl3Al7TUi71lDMAY2Bw3f9HwKNbSvnyzPx4S7mksRER9wBOBu7WQrpbgG0z87ct5FIPOQMwHg6gvcH/fxz8pZnJzEuBx9MslV1tVeDgiJjbQi71kA1Az0XEI4C3tZTus5nZ5mNN0tjJzLOBp9DcR1NtB+D1LeRRD3kJoMciYmXgLGDLFtIdATwjM+e3kEsaexGxD819O1Gc6lZgu8w8pziPesYZgH57Le0M/ufS3PTn4C8NSWYeDryhhVSr0FwKWKmFXOoRZwB6KiLuBfwWWL041U3Ajn56kGpExNeAZ7aQ6i2Z+c4W8qgnbAB6KiK+Qzvbjr4gM7/YQh5pIkXEHWk20rp3capbgR0y86ziPOoJLwH0UEQ8iXYG/8Mc/KVamfkPYC/qbwpccClg5eI86gkbgJ6JiDsAH2sh1XnA/i3kkSZeZp5Oc09PtW2A/2ohj3rABqB/3gxsXJzjJmCvzLyhOI+kgcz8GPCtFlK9OSK2aCGPRpz3APTI4B/tWTRTeZVemJmfL84haTERsQ5wBvVN/ncy88nFOTTinAHol09QP/h/xcFf6kZmXkPzRMA/i1PtOVhETBPMBqAnImJv6pf7PR+v+0udysxTgDe2kOqDEVG9CJFGmJcAemDwmNB5wIaFaW4GHuwjQlL3BgPzkcCTilPtk5lfK86hEeUMQD+8g9rBH+DVDv7SaMjmk9l+wGXFqd4TEasW59CIsgEYcRHxQOBlxWl+AXy6OIekacjMq4FXFqfZmPrzi0aUlwBGXER8G9izMMU8mtXBzijMIWmGIuIHwOMKU/wd2GzQcGiCOAMwwiLi/tSv+PcpB39ppL2M5h6dKncCDiiMrxFlAzDa/ovarUL/jP/wpZGWmRcC7y5O8x8RsWlxDo0YG4ARFRGb0awPXum1mXltcQ5Js/d+4ILC+KsA7ymMrxFkAzC63gDMLYx/fGYeVhhf0pBk5i3AfxSn2SsiHlycQyPEmwBHUETcHbiQulX//gk8KDN/WxRfUoGIOBzYuzDFMZm5W2F8jRBnAEbT66hd8vcjDv5SL70a+Edh/MdExNaF8TVCbABGTETcFXhhYYo/AW8vjC+pSGZeAbylOM2riuNrRNgAjJ5XAXeojO82v1KvfYJmx8Aqz4qIDQrja0TYAIyQwVagLy1McXRm/l9hfEnFMnMezaWAKqtQf8OhRoANwGh5GXDHwvhvKIwtqSWZeRxwfGGKl0RE5UykRoANwIiIiDWA/yxM8d3MPLMwvqR2/Xdh7DsDzy2MrxFgAzA6Xkzzj67KOwtjS2rZYBbgZ4UpXjXYllhjygZgBETEKsBrClMcm5m/LIwvqRv/XRh7C+AJhfHVMRuA0bA7sFFhfD/9S2MoM39K7SxA5c2G6pgNwGiovNb288FUoaTxVLmux64R8cDC+OqQDUDHIuIuwOMLU7yrMLakjmXmT4ATClM4CzCmbAC6tw+wclHsMzLz+0WxJY2OylmAvV0YaDzZAHSvcvrfT//SBMjMY4ETi8KvQvNBRWPG3QA7FBH3A35TFP5cYKv0DZYmQkQ8GjimKPwpmelWwWPGGYBu7VcY+90O/tLkGMwCnF4UfseI2LQotjpiA9CRiJgD7FsU/iLg8KLYkkbX5wtjP7MwtjpgA9CdRwN3K4r98cGGIZImy1eBm4pi2wCMGRuA7lTd/HcbzUlA0oTJzGuB/y0K/8CI2LIotjpgA9CBiFgTeGpR+KMz889FsSWNvsrLAHsXxlbLbAC68XRg9aLYhxbFldQDmXkCcH5ReBuAMWID0I2q6f9rgSOLYkvqjy8Uxd0iIh5UFFstswFoWUTcE9ilKPzXM/PmotiS+uMQ4J9Fsb0ZcEzYALRvb6Bqj22n/yWRmX8BjioKbwMwJmwA2rdbUdwLM/OkotiS+qfqZsBNIsJVAceADUCLImJV4GFF4f30L2lhRwOXFsV2FmAM2AC0ayfgDgVxE/hyQVxJPZWZ84EvFYWv3MJcLbEBaNeuRXFPzMyLi2JL6q9vFcXdMiLWL4qtltgAtKuqATikKK6kHsvMXwNXFIV/ZFFctcQGoCURsTpQcePMzdQt/Smp/35QFNcGoOdsANqzM7ByQdwTMvMfBXEljYfvF8XdpSiuWmID0J6q6f+fFsWVNB6OodkkbNjuFxF3KYirltgAtKeqAfhJUVxJY2CwQ2DVGiFeBugxG4AWRMTawLYFof8BnFYQV9J48T4ALcEGoB2PBOYWxD0hM+cVxJU0XqruA7AB6DEbgHY8qiiu0/+SVigzzwb+VBD6/hFx54K4aoENQDu8/i+paxWXAQJ4REFctcAGoFhErAc8oCD01cCZBXEljScfB9QibADq7ULN9r/HZWYWxJU0no4F/lkQ1/sAesoGoN6DiuI6/S9pyjLzOuCcgtBbR8RrI+JpEbFDRNy1IIcKrNR1ARNgi6K4LgAkabp+DWwz5JgBfGCRP4i4iWYr4j8MXn9c6NcXZ+Yfh1yDZsAGoF5FA3BlZv62IK6k8XYG8O8t5LkDsPngtYSI+CtwCvDLweuUzLymhbq0EBuAQhExB7hPQWg//UuaiV93XcDAXYAnDl4AGREXsGhTcGZmVtyzoAEbgFr3AlYriHtKQUxJ4+/XQFJzY/JsBM1s6RbAcwZ/dnNE/Ar4LnBEZl7QVXHjypsAa1Vd/z+vKK6kMTa4EfCiruuYotWAhwHvAc6PiHMi4h0RMex7GCaWDUCtLYvi2gBImqkzui5ghrYC3gKcHhEXRcSBEfGwwaVWzYB/cbUqZgBuprmjVpJmYlTuA5iNTYBXAycCl0XEpyLC9QimyQagVkUDcEFmzi+IK2ky9HUGYFk2APYHjouIsyPiRRGxetdF9YENQK2KSwDnF8SUNDnGrQFY2P2Bz9DMChwYEZt2XdAoswEoEhFrARsWhPb6v6QZy8wrgL90XUexdWguEfwuIr4bEY+NiFF78qFzNgB1fAJA0qga51mAhc2hWWvgh8B5EfHyiLhjxzWNDBuAOlUNgJcAJM3WiV0X0IHNgY8Cl0TE6yKiYo2WXrEBqFP1CKANgKTZ+iJwW9dFdOROwPtpLg88PyLmdl1QV2wA6lTMAFyWmdcXxJU0QTLzcuDIruvo2N2BLwBnR8SeXRfTBRuAOkvdBGOWvP4vaVg+1XUBI+K+wLcj4qSI2LnrYtpkA1Bn3YKYTv9LGorMPAY4sOs6RshDgRMi4qiIuH/XxbTBBqDOWgUxnQGQNDSZ+VrgvV3XMWKeBJwZER+LiDW6LqaSDUCdNQtijvuzu5JalplvAt5Bs0ugGnOAl9HcH/CoroupYgNQYPB4ScVWy9cVxJQ04TLzbcA2wP8CLjX+L5sAx0bEJyOi4kNdp2wAalRM/4MNgKQimXlmZu5Fs5zuwcAFTO6jggsL4CXAORHxmK6LGabIdNZn2AbrT19YEHqbzByHnbwk9UBErAxsRvNY851pPtws73Un4F7UzICOis8Br83Mf3RdyGzZABSIiAdSs+XmZplZ0VhI0lBExErApjRNw+aL/XeDDksbpkuBF2bm0V0XMhs2AAUi4mHULLW5fmZ6I6CkXhqsw785sAOwK7ALsF6XNc3SQTSzAb28VGIDUCAiHgf8oCD06pl5U0FcSWrdYIe+rWmagV2BR1J3D1WVnwJ7ZeZVXRcyXTYABSLiGcA3hhx2XmaO83U1SRNucPlge5pm4EnAQ7qtaMouAZ6cmWd2Xch0+BRAjYoO1icAJI21zLwtM3+Rme/OzIcC9wH+h2aAHWUbAz+PiGd2Xch02ADUqHhe1AZA0kTJzN9n5ltpbirchWYXw1E9F64OfC0i3hsRvRhbe1FkDzkDIElDko3jM/MFwPrAvsDRjOaiRW8AvhcR63RdyIrYANSwAZCkApl5U2Z+NTMfB9wPOITRW7DoccApEXG/rgtZHhuAGl4CkKRimXl+Zj6P5l6BTwO3dFvRIu4DnBgRO3RdyLLYANRwBkCSWpKZl2TmS2juFfgQcEPHJS1wJ+CYiHho14UsjQ1AjSiI6fOakrQcmXl5Zr6G5q78dwHXdlsRAHcEjo6IR3ZdyOJsAGpUdJ9jvS+1JA1LZl6VmQfQTMN/ie4/QK0JfH/UNhOyAahxY0FMGwBJmobM/GtmPh94OHBWx+WsDhwVEU/ouI7b2QDUcAZAkkZEZp4EbAu8CuhyF7/VgG9FxJ4d1nA7G4AaNgCSNEIyc15mfgTYEji8w1JWAf5vsGR8p2wAalRcAqh4tFCSJkpmXpGZzwIeDVzQURkrAYd33QTYANRwBkCSRlhm/gTYDjisoxLmAl8ebB/fCRuAGjYAkjTiMvP6zHwO8EKgi63WVwW+HRGbdZDbBqBIRQOwUkSsUhBXkiZaZn4eeDBwXgfp16N5RHDdthPbANSouAcAmgUlJElDlplnAzvQzSWB+9DMBKzaZlIbgBpVy1DeoyiuJE28ji8JPJxmu+PWrNRmsnEUESsBm9A8WrLF4L8PKkp3D+CMotiSJJpLAhFxKvB9YKMWUz8rIi7KzLe0kcwGYBoi4i7ALjQLSiwY7DcDVm6pBGcAJKkFmXnm4A79o4HNW0x9QERcmJkHVyeyAViOwU0ZjwQeNXhtRc1GP1N1zw5zS9JEycxLImJn4Ac0jwy25bMRcXFmHl+ZxAZgIRGxGrAbsCvNgL813Q74i3MGQJJalJl/jYhHAd+iWTyoDSsDX4mIrTPz6qokkdn1Jkndioi5NG/qPsBTGe077U/MzId3XYQkTZrBY9iHAW2u3vfNzHx6VfCJbQAiYifgWcBewPodlzNVf8zMe3VdhCRNooiYA3wceEmLaZ+fmV+qCDxRDUBEbAz8P5qBf5NOi5mZ24BVM3N+14VI0qSKiHcB/9VSuuuBB2XmhcMOPBENQEQ8CHg9zaf9uR2XM1t3z8zLui5CkiZZRHyS9mYCfgnsnJm3DTPoWC8EFBGPjoijaZ6d34f+D/7gkwCSNApeBvxvS7keDLx12EHHrgGIiLkRsVdEnAYcA/xb1zUNmfsBSFLHBpdinw0c21LK/xr2zoFj1QBExN7A+cDXafeZzTaVPRIiSZq6zLwVeArwqxbSzQUOi4ihPak2Fg1AROwQEScBhwP37rqeYjYAkjQiMvM64PHABS2k2xj48LCC9fomwIjYCHgP8BxGa8GeSqtnZhf7VkuSlmHwlNlJ1O8dkMBOmXnKbAP1cgYgIlaLiANoOq7nMjmD/58d/CVp9GTmJcATqN9FMICDImLW417vGoCIeApwHvA/wBodl9O2d3RdgCRp6TLzTOAVLaTaCdh3tkF6cwkgItYCPgbs13UtHbkA2GrYz4FKkoYrIr5M84RApcuALTLzhpkG6MUMwODRhzOZ3MEf4A0O/pLUCy+hmamudDfgjbMJMNIzABGxEvDfNP+T47CIz0yVbgghSRquiHgAzQp+dyhMczOwZWb+YSY/PLIzABGxOXAy8GYme/D/AM0SxpKknsjMs6m/H2A1mjFiRkZyBiAiXgB8FFi961o6dBLw3sz8bteFSJJmpqX7AR6ZmT+b7g+NVAMQEXOBA4FXdl1LS26lmYWZC/yNZs+C04EjhvGMpySpWxGxJs1KgZsXpvk1sN10d4odmQZgcJf/12ieo+yr+cAfgHNpbgA5D/gLcN1Cr+sX/Dcz53VUpySpJRGxK/V7Bjw1M781nR8YiQYgIu4FHAU8oOtapuGfNDd4HAecQzPYn5+ZN3dZlCRp9ETEV2l2pa3yi8x8yHR+oPMGICJ2Ar4NrN9pISuWNI8iHjt4/Ww2z19KkiZHRGxI80FxaJv5LMUjMvOEqX5zpw1AROwDfJHmTsZRdBvwQ+ArwDGZeVXH9UiSeioi/pMhbuazFN/LzCdNuZ6uGoCIeCXwkU6Sr9gZwKHAVzPzL10XI0nqv8GN7qcDWxelSOABmfmbKdXTRQMQES+necxvlPwZ+DJwSGae03UxkqTxM1jZ9gTqNrE7JDOfN6Va2m4AIuKlwCdaTbp8lwLvBz7vDXySpGoR8UXg34vC/xPYNDP/tKJvbHUlwIjYH/h4mzmX42LgxcBmmflxB39JUkveAFxbFHtl4FVT+cbWGoCIeCHwSeqmPabqAuB5wOaZ+dnMvLXjeiRJEyQz/0qzu22VF0bEOiv6plYagMHSvp+h28H/euDVwP0y8xB31pMkdegjNONShbWA/Vf0TeUNQETsBXyObgf/b9LsmPRhV9+TJHUtM/8GfKowxfNW9A2lNwFGxHY0dztWboe4PBcD/5GZP+govyRJSxUR69OMU1Vj5HaZefqyvlg2AzBY9eg7dDP43wa8G9jKwV+SNIoy88/A5wtTPGt5XyyZAYiI1WjWyH/w0IOv2GXA3pl5Yge5JUmasoi4O3AhsEpB+MuAe+QyBvqqGYDP0c3gfzSwjYO/JKkPBs/rH1IU/m7AI5b1xaE3ABHxBuDZw467AvOAA4DHDx6vkCSpL95Lc+m6wjIvAwz1EkBE7E6zs1+bCwxdATwrM49rMackSUMTEd8B9igIfTWwQWb+c/EvDG2gjoi70Wyg0+bgfw6wvYO/JKnnDi2Kuy7w2KV9YSiDdUQE8CVghSsPDdHPafY+vrzFnJIkVfgu8Pei2Eu9DDCsT+svBXYbUqyp+D6wW2ZW/WVJktSazLwF+EZR+D0iYo3F/3DWDUBEbE6zm15bDgP2zMwbW8wpSVK1LxfFXQPYdfE/nFUDEBFzaa5brD6bONPwEeC5ruMvSRo3mXkSzZoAFZZ4HHC2MwBvor3n/T+Vma9a1oIGkiSNgcOK4j5y8T+Y8WOAEbEt8AuavYerfRPYKzPnt5BLkqRORMS9gd8XhL4NuFNm3r4D4YxmAAZ3/X+Odgb/44B9HfwlSeMuMy+kecpt2FYCHrbwH8z0EsBzgG1nXc6KnUlzw98tLeSSJGkUfK8o7iL3AUy7AYiI1Wl22qt2MfC4zPxHC7kkSRoVPymKu8h9ADOZAXgtzQYDlW4AnpCZVxbnkSRp1JwGXFcQd4eIuMOC30yrAYiIDYHXD72kJb0kM89rIY8kSSNl8Kj78QWhVwF2WvCb6c4AvItmQYFKB2dm1WIIkiT1QdVlgNvvA5hyAxARDwL2KynnX34L/EdxDkmSRt3oNADAB6b5/dN1E82z/i7xK0madGcBVxXEfcCCX0xpGzDi1gAAHJZJREFUQI+I7YHHFBSysJdn5m+Kc0iSNPIGq94eVxD6LhGxDkz9E/2rC4pY2NGZ+YXiHJIk9UnVZYD7wBQagIi4B/CMoiIAbgFeXhhfkqQ+OrUo7uYwtRmAV9AsIVjlA5n5u8L4kiT10QVFcVc8AxARawEvLCoA4BLaWVVQkqReGayEW7Eg3pQuAbwAWLsg+QKvzMybCuNLktRn5xfEXP4lgIiYC7yyIPEC383MIwvjS5LUdxWXAVY4A/BkYOOCxADzgdcVxZYkaVxUzACsHRF3XV4D8OyCpAt807X+JUlaobIbAZfaAETEHYHHFyWFZk8BSZK0fBUzALCsBoBm+n/VoqRHZeaZRbElSRonFwG3FcRdf1kNwN4FyRbw078kSVMw2Br4DwWh11qiAYiIdalb9/+YzPxlUWxJksbR3wtirrm0GYCnASsXJAMX/ZEkabquK4i55AwA8MyCRAAXZeZPi2JLkjSuKhqARWcAImJ9YJeCRACHFcWVJGmctTIDsBswtyARwJeL4kqSNM5aaQAeXpAE4BeZ+fui2JIkjbP6SwDUNQB++pckaWZqZwAiYj1gy4IktwJfL4grSdIkKJ8B2BmIgiQ/ysy/FcSVJGkSlN8DUDX9/6OiuJIkTYKbC2Ku2kYD8JOiuJIkTYLVC2LeOAcgItYAtilI8OfM/E1BXEmSJsUaBTGvXzADsCOwUkECV/6TJGl2KhqAGxY0APctCA5wbFFcSZImxZoFMW+fAbhPQXDw+r8kSbNVOgOwWUHwSzPzooK4kiRNktJ7ACpmAM4uiClJ0qSpuQQQEXOBTQqCX1AQU5KkSVN2CeCewCoFwc8viClJ0qS5W0HM6+dQdwOgDYAkSbNXMUtvAyBJ0qiKiHWBtQtCXzqHms7iusy8vCCuJEmTZNOiuBfNAdYpCOwNgJIkzV5pA1DxeIGf/iVJmr2KBiCBS6oagIq9iyVJmjQVDcDlmXmzDYAkSaOr4j69iwDmAGsVBL++IKYkSZPm/gUxb28AnAGQJGnERMTGwAYFoUsbAGcAJEmanYcWxXUGQJKkEVbeAJRsMlAQU5KkSfKQgpjzgLOgaQD+WZDgjgUxJUmaCBGxBrB1QeizM/N6aBqAGwsS3KUgpiRJk2IHYKWCuL9Y8AsbAEmSRk/V9f+TF/yiqgFYryCmJEmT4lFFcRdpAG4qSOAMgCRJMxARdwJ2KQh9VWb+bsFvvAQgSdJoeSLF1/+haQD+VpDEBkCSpJl5SlHckxf+zRzgDwVJvAdAkqRpiog7AI8tCr9EA3BJQZKVI2LtgriSJI2z3ahZoO824NSF/6BqBgBqNjCQJGmcVU3/H7dgAaAFqmYAALYviitJ0tiJiLnA7kXhv7X4H1Q2ADsXxZUkaRw9AbhzQdwEvrP4H87JzL9Ss3nPwwtiSpI0rl5aFPfUzLxs8T+cs+CLBQnvFxHrFsSVJGmsRMS9qbv7f4npf/hXA3BSQcLAywCSJE3F/jTjZoXWGwCwAZAkabkiYjXg+UXhz83M85f2hQUNwMk0NwkMm/cBSJK0fHsDVZfMl/rpHwYNQGZeA/ymIPF2g1WNJEnS0lXd/AcragAGKi4DrAzsVBBXkqTei4gHAzsUhf99Zp62rC8u3ACcWFSA9wFIkrR0/10Y+9PL+2L1DADYAEiStISIeBjwuKLwNwFfWt433N4AZObFwBUFRdyrIKYkSX33zsLYX8vMq5f3DXMW+33FLMBdCmJKktRbEfFoYJfCFJ9c0Te00QDcabDBgSRJavxPYexTl3fz3wJtNABBzeYGkiT1TkQ8EXhIYYoVfvoHiMx/rf8TESsB1wKrD7GQvwN3zczbhhhTkqTeiYgAfgVsU5TiauBumXnzir5xkRmAwSB98pCL+Z6DvyRJALyYusEf4ItTGfxhyUsAAAcOuZhvDzmeJEm9ExEbAO8tTHEbU5z+h6U0AJn5A+D4IRVzE/DDIcWSJKnPDgLWLox/8OCR/ilZ2gwAwJuGVMz+mXnDkGJJktRLEfEEYK/CFLcyzScLltoAZObJwOdmWcwHM/PQWcaQJKnXImJ14BPFaT6bmX+czg8sawaAzHwRzRrFM9km+AfAG2bwc5IkjZu3AxsXxr8JePd0f2iZDQBAZr4d2AeY0h2FwJ+BVwBPzsz50y1GkqRxEhHbAv9ZnOYTmTntpfwXWQdgmd8UsQnNtYunADvSLO6zsL8DHwQO8pq/JEkQEWvRPPN/n8I01wGbZuZV0/3BKTUAi/xAxN1pVjC6mmbzoCtXtOGAJEmTJiIOB/YuTvPOzHzLTH5w2g2AJElavoh4MfDp4jTXAJtk5jUz+eHl3gMgSZKmJyIeCHykhVTvnOngD84ASJI0NBGxJs11/82LU50JbD+bpfadAZAkaXg+S/3gPx940Wz32bEBkCRpCCLidTSPzlf7ZGaeMtsgXgKQJGmWImJf4Mss+Zj8sF0G3C8z/zHbQM4ASJI0CxGxG/Al6gd/gFcMY/AHZwAkSZqxwUp/xwNrtpDuqMzcY1jBbAAkSZqBiNgU+DmwfgvprqeZ+r90WAG9BCBJ0jRFxF2Ao2ln8Ac4YJiDPzgDIEnStAwG/x8BD2op5feBJ+WQB2wbAEmSpigiNgKOAe7bUso/AQ/KzL8NO/BKww4oSdI4ioiNgWOBTVtKeRuwd8XgD94DIEnSCkXEFsAJtDf4Q3Pd/6Sq4F4CkCRpOSJia+DHwF1bTPsD4InDvu6/MBsASZKWISJ2orkJ704tpr2M5rr/VZVJvAQgSdJSRMR+wHG0O/jPA/apHvzBBkCSpEVExEoRcRBwMLBqy+n/KzNPaCNR+SWAiFgD2BW4N7DRUl5rlRYgSaPrOuDypbwuBH6SmTd0WNtEioj1gG8Aj+og/Wcyc/+2kpU0AINFEnYHngzsBqw29CSSNN5upnne/NvAkZn5147rGXsR8UCav++NO0j/HeBpmTmvrYRDawAiYhXgBcCzgIfi5QVJGpb5wEnA4cAXMvPWjusZOxGxN/AFYPUO0v8ceExm3tRm0lk3ABERwD7AO4FNhlGUJGmZLgYOAA6vfERsUkTEusDHaD68duE84GGZeXXbiWfVAETEvwHvBbYZWkWSpKk4A3hjZv6o60L6KiL2BD4NbNBRCZcDD83MP3SRfEYNQETcHfgS8JihVyRJmo5jgH/PzD91XUhfRMSdgI8Cz+6wjH8AD8/Ms7oqYNoNQEQ8BDiC7jomSdKirgSempknd13IqIuI3YHPABt2WMatwOMy86cd1jC9G/UGiyL8FAd/SRolGwA/HZyjtRQRcc+I+CpwJN0O/jcBT+568IcpNgARMTciPkg3iyJIklZsVeDgiPhgRMztuphRERFrR8R7gfNpbljv0nXA4zPzBx3XAUzhEsDgQPomsGcrFUmSZqv1Z8pHTUSsDLwEeCtw547LAbiaZvA/petCFpjKDMD7cPCXpD7Zk+bcPZEi4mnAb4GDGI3B/8/ALqM0+MMKZgAG15MObq0aSdIwPS8zD+m6iDZExBxgD+ANwE4dl7OwS4FHZ+bvui5kcctsAAZ3+/8Ur/lLUl/dAjxqnJ8OiIg1gecDr6DZc2aU/J5m8P9j14UszVIbgMFz/qfi3f6S1HdXAjuM2zoBEXFP4OXAC4G1Oy5nac4G/i0zr+y6kGVZVgPwY1zkR5LGxTGZuVvXRczWYJr/4cBLgacBo/q0wxHAfpl5fdeFLM8SDcBged+juylHklTksX1dNjgidgT2BvYC7tZxOcszH3gb8K4+7NOwSAMw2NjnV7i2vySNmzOA7fowMAFExP1pntvfG9i043Km4lpg38z8XteFTNVKi/1+Hxz8JWkcbUNzjv9q14UszeBmvocBj6S5m3+rbiualnNpVve7oOtCpuP2GYCIWIVmW0K39JWk8XQxsGVm3tp1IRFxR5oBfxeaQX87lvxQ2gffAZ6Tmdd1Xch0LfyX/QIc/CVpnG1Cc67/VBfJI+JuwIuAJ9DMSIzqTXxTkcDbgXf05bLK4haeATgB2LnbciRJxU7MzIe3mTAiHgG8DHgK/fyUv7iLgReMwoY+sxGZSUTcheZZ0WntDjhD82g2ZTh98LqihZySNIo2BLYdvLagnU/E84ENMvOv1YkGj+0dAjy7OldLEvg08PpRf8RvKhZ0YntQP/hfB7wG+Epm3licS5J6JSJWB/YFDgTWKky1YMncLxTmWDD4f4nxGfwvofnU/5OuCxmWBYP+k4vz/AzYOjM/5+AvSUvKzBsz83PA1jTnzEql5/zBI+VfAJ5bmaclCz71P2CcBn+AANYArgJWK8rxHuCAzJxfFF+Sxsrg0/M7gTcVpbgZWC8zb6gIHhFPoVkNr+/+QPOp/9iuC6kwB9iVusH/Zzj4S9K0DM6ZB1A3E7Aazbm/yssKY7fhNuBjwP3HdfCHpgGo2j3pOpq1kB38JWmaBufO/WjOpRVKzv0RcV9qm4tqR9IM/K8Yhxv9lmcOsFFR7Ndk5iVFsSVp7A3Ooa8pCl917t+/KG61XwG7ZOaemXl+18W0oaoBmAd8pSCuJE2ar9CcU4etqgG4V1HcKn+keVJhh8w8vuti2lTVAJzv3f6SNHuDc2nFJ9KqBqAv/kFzk+UWmfmVvq7mNxsrUXMQnF4QU5Im1enA/YYcc1IbgGuBzwHvb2MxpFFWNQNgAyBJw1NxTq1qAEb1k/RFwCuBu2fm6yZ98IemAahYccrlfSVpeCrOqVWrDZ5aFHemTgSeBtwnMz867nf2T0cba/9LkibHl2ieo+/SbcDXgB0z8+GZeYSPpC/JBkCSNDSZeQXw3Y7SX0Kz+uymmblPZo7abMRIGYdtGSVJo+WDwJNoZ4y5Evhf4PDMPLmFfGPDBkCSNFSZeVJEvJi6HQf/TrPXwOHAcZlZsU7C2LMBkCQNXWZ+MSI2Bt4ypJDXAt+nGfSPzsxbhxR3YtkASJJKZOZbI+JPwDuA9af541fTbIb0M+B44NfeyDdcNgCSpDKZ+dmIOBx4I/Bylv344V/412B/PHDOJK7O1yYbAElSqcy8DnhzRBwAbAI8ANgKuBW4DDgjM8/rsMSJZAMgSWrF4BP9RYPXdzouZ+KNVQMQEXOB+wL3AM7KzMs6LklqzULH/5aM2b/tEXAbcB5wrneca1z0/iQRERsBrwV2BLYBVl/oa1fSLEv5Y+CT/sPVuFne8a8SN0bEGcApwAcz8/KuC5JmKqjZuGGfzPxaQdxFRMRzgYOAdabw7acBz8vM39RWJbVjmse/hu8a4JWZeWh1oojYm+bxt6HKzBh2TPVHL5cCjoj1IuJI4BCmfvLbHvhVRLy+rjKp3gyPfw3fOsAhEXFkRKzXdTHSdPWyAQC+COw+g59bFXhfROw75HqkNs30+FeN3WneE6lXetcADKY9Z3vy+2hEbDCMeqQ2Den41/DtPnhvpN7oVQMwuOHpoCGEWhf4zBDiSK0Z4vGvGgcN3iOpF3rVANDc7Tysa557RMSOQ4oltWGYx7+Gbx2a90jqhb41AMMesG0A1Ccer6PP90i90ZsGYLDIyTZDDrv9kONJJYqOfw3fNoP3Shp5vWkAaFY4G/YiJzYA6ouK41/DtzrNeyWNvD41APfoSUypgsdqf/heqRf61ACc1ZOYUgWP1f7wvVIv9KYBGGzsc+WQw5425HhSiaLjX8N3pZuQqS960wAMDHvAtgFQn3i8jj7fI/VG3xqAY4cY61bgxCHGk6oN8/hXDd8j9UbfGoCPA6cPKdbbM/MPQ4oltWGYx7+G73Sa90jqhV41AJl5G7Afzaf32TgVeN/sK5LaM8TjX8N3K7Df4D2SeqFXDQBAZp4DvHUWIW6i+Yc6b0glSa0ZwvGvGm8dvDdSb/SuAQDIzPcBzwaunuaP/hLYNjPPHX5VUjtmcfxr+K4Gnj14T6Re6WUDAJCZXwG2Ao6cwrffArwReFhmnldamNSCaR7/qnEksNXgvZB6Z6WuC5iNzLwS2HOwq9+ONEv7bk+zEtdZNI/knAqckJmXdlaoVGA5x/+WgOvRD9c84Dyac8ppwCmZeUq3JUmz0+sGYIHBP0T/MWoiefxLmoneXgKQJEkzZwMgSdIEsgGQJGkC2QBIkjSBbAAkSZpANgCSJE0gGwBJkiaQDYAkSRPIBkCSpAk0B8iiuJKk4ag4p1ac+9Ujc4CrCuJuWRBTkiZVxTm14tyvHpkDXFEQd9uCmJI0qSrOqRXnfvXIHODygrg2AJI0PBXn1Ipzv3qkagZgw4jYqCCuJE2Uwbl0w4LQzgBMuKoGAOBdRXElaZJUnUttACbcHOBPRbGfFxG7F8WWpLE3OIc+ryh81blfPRE0d5eeWxT/SuD+mfm3oviSNJYi4s7AOcAGRSnum5nnFcVWD8wZHAAXFsXfADgyIjYpii9JY2dwzjySusH/Qgd/LVhc4nuFOR4KnBUR+xfmkKSxMDhXnkVz7qxSec5XT0RmEhH/BhzdQr5jgUOA04DzM3N+CzklaWRFxBxgC2B7YD/g0S2kfWxm/qiFPBphCxqAVWlWhVqzxdzXA6fjnaiSJteGNM/4t33uXS8zb2kxp0bQSgCZeUtEHAE8t8XcawKPaDGfJAmOcPAXDGYAACLiPjRPA8zttCJJUpV5NHf//67rQtS923eYGhwQh3ZYiySp1qEO/lrg9hkAuP3Rk/OBlTurSJJU4Z/AFpl5cdeFaDQsssf04MA4uJtSJEmFDnbw18IWmQEAiIh7AGcDa3dSkSRp2K4FHpCZl3ZdiEbHnMX/YHCAvKCDWiRJNV7g4K/FLdEAAGTmN4GPtVyLJGn4PjY4p0uLWOISwO1fiFgFOBHYodWKJEnDciqwc2be2nUhGj3LbADg9qcCTgfWaa0iSdIwXANs641/WpalXgJYyLK7A0mS1FvLbAAiYmXg6/jpX5L6aB3g64PLudISljcD8D5gx7YKkSQN3Q7AB7suQqNpqfcARMSewLfbL0eSVODpPgmgxS1tIaCNgHOAO3VSkSRp2FwISEtY2iWAA3Dwl6Rxsjbwlq6L0GhZfDOgewG/w82AJGncuBmQFrH4DMBbcfCXpHG0Ms4CaCG3zwBExGbAucBKnVYkSaoyD7hvZv6u60LUvYVnAN6Cg78kjbO5NPd5Sc0MQESsClwFrNli7utplhm+osWckjRKNgS2pf1z73qZeUuLOTWCFnzifyTtHIDHAocApwHnZ+b8FnJK0siKiDnAFsD2wH7Ao4tTrklzzv9RcR6NuAWXAJ5YnOd64CWZ+ZjM/HJmnuvgL0mQmfMH58QvZ+ZjgJfQnDMrVZ/z1QMLLgH8Hrh3UY6fA8/20RNJmprBTqyHAQ8tSnFhZm5WFFs9EcCWNHf/V7gSuH9m/q0oviSNpYi4M82qrBsUpbhvZp5XFFs9MAd4VGH8Fzn4S9L0Dc6dLypMUXnuVw/MAe5eFPvgzDyqKLYkjb3BOfTgovBV5371xByax1AqvLkoriRNkqpzadW5Xz1R1QBckZmXF8SVpIkyOJdWrJdiAzDh5gAbFcQ9vSCmJE2qinNqxblfPVI1A2ADIEnDU3FOdQZgws0B1iuI66MlkjQ8FefUinO/emQOzVoAw+Yqf5I0PBXn1Ipzv3pkzoq/RZIkjRsbAEmSJpANgCRJE8gGQJKkCWQDIEnSBLIBkCRpAtkASJI0gWwAJEmaQDYAkiRNoJW6LmAYImJHYEdg+8HrHsBZwGnAqcAJmXlpdxVKdZZy/G8JzO20qPEzj2Y53tMGr1My85RuS5Jmp9cNQERsAHwG2GMpX9558AK4JSLeBnwwM+e1VZ9UaQXHv4ZrLrDV4LUfQEQcCbw4M6/ssjBppnp7CSAi9gV+w9ROfqsC7wVOiogtSwuTWjDN41819gB+M3gvpN7pZQMQEa8HDgPWneaPPhg4PSLuO/yqpHbM4vjX8K0LHDZ4T6Re6V0DEBFbAe+YRYg7AIdEhNdI1TtDOP5V4x2D90bqjV41AINB+2CaKf3Z2AF4w6wLklo0xONfw7cqcLAfLNQnvWoAgJfS3OU8DG+LiHsNKZbUhmEe/xq+7WneI6kX+tYA7DbEWKvwr6cEpD4Y5vGvGr5H6o2+NQA7DDmen6bUJ8M+/jV8vkfqjd40ABFxN2CDIYe1AVAvFB3/Gr4NBu+VNPJ60wAAW/ckplTBY7U/fK/UC31qACqW8nV5YPWFx2p/+F6pF/rUAJwL3DjkmKcNOZ5UpeL41/DdSPNeSSOvNw3AYA3/M4Yc1gZAvVB0/Gv4znC/EfVFbxqAgWHvvuVuXuoTj9fR53uk3uhbA/BB4JohxTrS7TzVM8M8/jV819C8R1Iv9KoByMzLgVcOIdTVwIuHEEdqzRCPf9V45eA9knqhVw0AQGYeChw1yzCvcA9v9dGQjn8N31GD90bqjd41AAPPZ2YnwVuAN2TmV4Zcj9SmmR7/qnEUzXsi9UovG4DMvCoz9wD2Y+rXRE8DtsvM99dVJtWb4fGv4bsG2C8z98jMq7ouRpquXjYACwym3LYCPgycxJLPSV9J052/AtgpM3/TboVSnSkc/xq+G2n+rj8MbOW0v/pspa4LmK3BTTevhtv3S78vcA/grMy8rMvapGrLOP63ZAz+bY+Y24DzgHN9zl/jYqxOEoN/mOcMXtJE8fiXNB29vgQgSZJmxgZAkqQJZAMgSdIEsgGQJGkC2QBIkjSBbAAkSZpANgCSJE0gGwBJkiaQDYAkSRNoDnBdQdwNC2JK0qSqOKdWnPvVI3OAywviblsQU5ImVcU5teLcrx6xAZCk0WcDoKGragC2iIjVC+JK0kQZnEu3KAhtAzDhqhqAucC+BXEladLsS3NOHTYbgAlX1QAAHBgRGxfFlqSxNziHHlgU3gZgws0BLiyKvRZwSET4qKEkTdPg3HkIzbm0QtW5Xz0xB/gJcHNR/EcA77QJkKSpG5wz30lzDq1wM825XxNsTmbeABxTmONNwE+9HCBJKzY4V/6U5txZ5ZjBuV8TbMEn828X53kEcFZEvNCnAyRpSRGxekS8EDiLuk/+C1Sf89UDkZlExF2AK2lnaeB5wPnA6YPXFS3klKRRtCHNM/7b0jzqV3G3/+LmAxtk5l9byKURFpnZ/CLiBGDnbsuRJBU7MTMf3nUR6t7Cn/i/2lkVkqS2eK4XsOgMwCrAecAmnVYkSapyMbBlZt7adSHq3u0zAIMD4oAOa5Ek1TrAwV8L3D4DABARAfwK2KaziiRJFc4AtsuFT/qaaIvc9T84MN7YUS2SpDpvdPDXwpZ47C8zf0TtwkCSpHYdMzi3S7eLpTWEEXF34FRgg9YrkiQN05XADpn5p64L0WhZ6sI/gwPlqcAt7ZYjSRqiW4CnOvhraZa58l9mngy8uMVaJEnD9eLBuVxawnKX/s3MQ6jbi1qSVOfAwTlcWqql3gOwyDdEzAW+CezZSkWSpNn6DvC0zJzXdSEaXSvc/GdwAD0NZwIkqQ8OxMFfU7DCGYBFvjliP+AzwKplFUmSZuIWmmv+TvtrSqbVAABExEOAI/ARQUkaFVfS3O3vDX+ashVeAljc4ADbARcLkqRRcAzNc/4O/pqWaTcA0KwTkJm7AY+lWV9aktSuM4DHZuZuPuevmZhRA7DAYGnJ7YB9abaZlCTVupjmnLudy/tqNqZ9D8AyA0WsArwAeBbwUGbZXEiSbjcfOAk4HPiCW/pqGIbWACwSNOIuwO7Ak4HdgNWGnkSSxtvNNNf3vw0cmZl/7bgejZmSBmCRBBFrALsC9wY2WsprrdICJGl0XQdcvpTXhcBPMvOGDmvTmPv/4XzCyNidYxQAAAAASUVORK5CYII=;" vertex="1" parent="1">
                    <mxGeometry x="460" y="378" width="104" height="104" as="geometry"/>
                </mxCell>
                <mxCell id="140" value="" style="shape=image;verticalLabelPosition=bottom;labelBackgroundColor=#ffffff;verticalAlign=top;aspect=fixed;imageAspect=0;image=data:image/png,iVBORw0KGgoAAAANSUhEUgAAAgAAAAIACAYAAAD0eNT6AAAABHNCSVQICAgIfAhkiAAAAAlwSFlzAAARaQAAEWkBrezG5QAAABl0RVh0U29mdHdhcmUAd3d3Lmlua3NjYXBlLm9yZ5vuPBoAACAASURBVHic7N15mF1Vnf3/94IkQICEMQlzAqIMEQFFUOhWkQhKC6hgo6Ko6NehndpW0UZFxQkRVPrXztLYoKCCIk5gsEFllklMGIUEkCnMBMKQwOf3x95FVSqVpFKpe/YZ1ut59nNvKnbfxYXae91zzt1HEYGZlSNpVWACsHZ+HM7z8cBYYMwQj0P9bGmPAIuAhflx4PMVeVwAzAcezmN5z+dHxKKVf/fMbKTkAmA2eiSNASYBU4DJeUwZ8DgJmMjiC/r4ImHLe4zFi8FDwN0Dxl2DHudFxMIyUc3axwXAbBgkTQSmAhsx9MLe97P1AZVJ2XoB3M/ipWBwUbgLmBsRD5YKadYULgBmgKTVgC2AacCW+XHg83XLpbMReBCYA9ycHwc+nxsRTxTMZlYLLgDWCZIEbMzQi/u0/HerFAtoVQrgDpYsBn3Pbw9PjNYBLgDWOpKmANOB5+bH6cD2wJolc1ljLACuAf4GzOobEXFH0VRmo8wFwBorn5efPmD0Lfjrl8xlrXU/AwoBuSD4egNrKhcAqz1JqwDbATuz+IK/WclcZtntDCgEwBXA7Ih4umgqs+VwAbDakbQhsCuwWx67kL4yZ9YU84G/ABfncUlEzCsbyWxxLgBWlKSxwI70L/a7kS7OM2ubOfQXgouBqyLiybKRrMtcAKxSkjanf6HflXRYf/WioczKeIJ0uuCZUhARt5aNZF3iAmA9lQ/n75XHDHze3mxZbgNmAucAf/BpA+slFwAbVZLWAP6J/gX/eXhnPLORCOBqUiGYCfw5Ih4rG8naxAXAVkq+Qn8n+hf8PYDVioYya6cngAtIRwdmAlf4mwa2MlwAbIXl8/ivIC34L8ffuzcr4X7g/0hl4PcRMbdsHGsaFwAbFklbAQfm8YLCccxsSVcCPwNOi4gbS4ex+nMBsKWS9Bz6F/0dC8cxs+G7mv4ycF3pMFZPLgC2GEnbkRb8g0i77ZlZs82mvwzMLh3G6sMFwJC0A/2f9LctHMfMeuc6+svA1aXDWFkuAB0laRJwGPBW4Nll05hZATcC/wP8wPsNdJMLQMdI2gN4D+nT/rjCccysvCeB04FvRsT5pcNYdVwAOkDSWsAhwHtJt8w1MxvKLOBbwEkRMb90GOstF4AWkzSd9Gn/zcDaheOYWXM8ApxMOirwt9JhrDdcAFpG0jjgtaRP+/9UOI6ZNd8FwDdJFw767oUt4gLQEnl3vneRLuybXDiOmbXPPcAPgO9418F2cAFoMEkC9iYd5t8XWLVsIhsFATwKzAcezmP+oMe+548Ci/JYuJTny/s7gDEDxtilPF/W361JOsU0IY+1Bz32PV8T3xiqDZ4Gfke6VuB3vh9Bc7kANFBe+A8CjsJf4auzBcA84O6ljAdZcmF/pK0Tar5x1FosWRTWIR21GmpMAsaXyGvDchPwaeCU8GLSOC4ADSNpT+BovB9/SXcDc4A7Wfrifrevoh4dktZm6QVhMrARMA2f+irpSuDwiJhZOogNnwtAQ0h6HvBlYJ/SWTrgYdICf3N+HDjmRsSCgtlsKSSNB6aSysDAsWV+nFAsXHecQyoCV5QOYsvnAlBzkqaSDvW/CZ8/HU23kLZFXWKRj4j7Swaz3pC0HkOXg22ALQpGa5sATgWOiIg5pcPY0rkA1JSk9YFPkr7O5x37Ru4u0uYms0g3RZkFzPbheRson2bYnnQDrL7H6cCUkrka7kng28BREXFv6TC2JBeAmsmHMT8EHI4PWa6I++lf4J9Z8CPivqKprNFyER9YCPoKwnolczXMw8AxwHE+fVYvLgA1IWkM8HbgM6SLmmzp5gGX5PEX4G8RcWfZSNYlkjYibau9C7BrHpOKhqq/O4HPkm4+tGh5/2PrPReAGsg36Pk+8JzSWWroceAK+hf8S7wJidVRvl5n1wFjZ2D1gpHq6nrgHb7xUHkuAAXlT/1HAp/Am/hAunjoRgYs9sBfI2Jh0VRmIyBpLPA8Fi8FW+OLeQGeAr4EfNZHA8pxAShE0lbAj0iTQlcFcBUwEziX9On+gbKRzHpH0rqk3/mXATOAHel2IbgEeFNE3FQ6SBe5ABQg6a3Af5F2ReuaW0kL/kzgD7462LpM0gbAy0llYAawedlERTwCvD8iTiwdpGtcACqU2/93SNv4dsVDpE/3M4GZEXFj4TxmtSVpa/rLwMuAiWUTVepnwLt8FLA6LgAVkfRS4CRg08JRem0RcCFpR7CZwF8i4qmykcyaR9KqpG8ZzAD2Al5MuvlSm/0DeHNEnFc6SBe4APRYvhDoc8DHgFUKx+mVhcAfgNOAM/zde7PRl/ckOAA4kHTaYGzZRD3zNPAV4NO+ALi3XAB6SNKzSFtiPr90lh54kvQJ/zTglz5sZ1adfDpxf1IZmEE7dwu9HDg4Iv5eOkhbuQD0iKQdSAtkmzYHeQI4m7TonxkRDxXOY9Z5kiYC+5HKwN7AamUTjap5wIyIuLp0kDZyAegBSS8gLZRt2C70MeAs0gU6v/Ye+mb1le9p8C+kC433AdYom2hU3A/sHRGXlQ7SNi4Ao0zS7sBvaf4+/lcD3wV+FBEPlg5jZitG0jqku4j+P2CHwnFW1sPAqyLigtJB2sQFYBRJejnwS2DN0llG6FHSNQvfi4hLSocxs9EhaVfgncDBNHt+2j8i/lA6SFu4AIwSSfuSzo03ce/vK4DvAT+OiIdLhzGz3pA0AXgjqQzsXDjOSDwOHBgRvykdpA1cAEaBpNcBp9Csr+XMJ2X+bkRcXjqMmVVL0vNJpwfeAKxdOM6KWAi8ISJOLx2k6VwAVpKkQ4ATac7NfG4lfcf2hxHxSOkwZlaWpLWAQ0l7lTRlK+KngLdGxMmlgzSZC8BKkPRq4AyascHPTaS7b/2vN9cws8HypmVvId2ddKvCcYbjaeCAiPhV6SBN5QIwQpI2I93Jru5f9bsO+AJwirfkNbPlyVsQvwE4AtimcJzluR/YMSJuKx2kiVwARkDSGOA8YPfCUZblauDzwOkR8XTpMGbWLJJWAV4HfJJ6f43wAuClEbGodJCmacKh6zr6HPVd/K8kbRG6Y0T8zIu/mY1ERDwdET8DdiTNKVcWjrQ0u5PmZFtBPgKwgiS9grQznkpnGeQB0iG773jRN7PRlo8IvIt0SnHdwnEGC2CfiPh96SBN4gKwAiRtRDrvX6f9/QM4Afh4RNxbOoyZtZukDYAvA2+nXh+E5pGOfN5ZOkhT+BTAMOX2ezL1WvwvB14UEe/w4m9mVYiIeyPiHcCLSHNQXUwCTs5ztQ2D36jh+xiwZ+kQ2f3Ae4AXesteMyshzz0vJM1F9xeO02dP0lxtw+BTAMOQb7d5CzCxdBbgd8ChEXFP6SBmZgCSNgR+CLyydBbSjYO28E3Mls9HAIbn/ZRf/BcBHwf29eJvZnWS56R9SXNU6a/jTQA+UDhDI/gIwHLkbTLnAusXjPEP4GDfCtPM6i7fEv1UYNOCMR4gHQWYXzBD7fkIwPK9m7KL/29JV7Z68Tez2stz1Y6kuauUdYH3FXz9RvARgGWQtDowB5hSKMIRwJfC/5LMrGEkiXRfgS8UinAvMDUiHi30+rXnIwDL9g7KLP4B/FtEfNGLv5k1USRfBP6NNKdVbQPSEVxbCh8BWIq83//NwGYVv/TTwP+LiB9U/LpmZj0h6TDgu1T/ofMu0lGAJyp+3UbwEYClexHVL/5Pkb7i58XfzFojz2mHkua4Kk0B/qni12wMF4Cle0XFr/c08MaIOLni1zUz67k8t72RNNdVaUbFr9cYLgBLt3fFr3dURPy04tc0M6tMnuOOqvhlq/4w1xi+BmAIktYn3ViiqoL0f8AM38XPzNou79U/k+q2Vg9gSkTMq+j1GsNHAIY2g+rem7uBN3nxN7MuyHPdm0hzXxUE7FXRazWKC8DQqjz8/6aIuKvC1zMzKyrPeW+q8CV9GmAILgBDe1lFr3N2RPyhotcyM6uNPPedXdHLvbSi12kUF4BB8u5Vm1T0cl+t6HXMzOqoqjlwkzy32wAuAEtaFxhTwev8NSLOqeB1zMxqKc+Bf63gpcaQ5nYbwAVgSZMqep1vVvQ6ZmZ1VtVcWNXc3hguAEvasKLXubyi1zEzq7Oq5sKq5vbGcAFYUhUtMYBrK3gdM7O6u5ZqbhbkIwCDuAAsqYqWODciFlTwOmZmtZbnwrkVvJSPAAziArCk1St4jYkVvIaZWVNUMSdWMbc3igtAGetJmlw6hJlZaZKmAOuVztFFLgDlbF86gJlZDWxXOkBXuQCU8/LSAczMasBzYSEuAOW8W9KapUOYmZWS58B3l87RVS4A5awHvK10CDOzgt6Gz/8X4wJQ1r9LWrV0CDOzquW5799L5+gyF4CytgSOLB3CzKyAI0lzoBXiAlDeEZL2Kh3CzKwqec47onSOrnMBKG8V4GRJG5UOYmbWa3muOxmvP8X5X0A9TAZ+5OsBzKzN8hz3I9KcZ4W5ANTHy0glYEzpIGZmoy3PbT8izXVWAy4A9fKvwE8ljS0dxMxstOQ57aekOc5qwgWgfl4D/ELSaqWDmJmtrDyX/YI0t1mNuADU077AmZLWKB3EzGyk8hx2JmlOs5pxAaivVwDnSdqidBAzsxWV567zSHOZ1ZALQL29ELhS0v6lg5iZDVees64kzWFWUy4A9bcucIakr/niQDOrM0ljJX0NOIM0d1mNuQA0x4eA8yVNLZzDzGwJeW46nzRXWQO4ADRL3ymBN5YOYmbWJ89JPuTfMC4AzbMOacOgcyVtXzqMmXWXpO0lnUva4Ged0nlsxbgANNdLgaskHStp7dJhzKw7JK0t6VjgKtJcZA3kAtBsY4APA9f7tICZVSHPNdeT5h5vXd5gLgDtsBHptMB5kqaXDmNm7SNpuqTzSIf7fffSFnABaJeXAH+V9GMXATMbDXnh/zHwV9IcYy3hAtA+qwBvAK6WdLqknUsHMrPmkbSzpNOBq0lziteLlvG/0PYS8Frgckm/lrRb6UBmVn+SdpP0a+By0hyiwpGsR1wAumFf4CJJ50jyITwzW4Kkl0g6B7gI37ynE1wAuuXlpBsM/VnS6yWNKx3IzMqRNC7PBX8m3bjn5YUjWYX8FY5u2iOPeyT9EPheRNxQOJOZVUTSs4F3AocCGxaOY4X4CEC3bQh8hLSPwHmS3ihptdKhzGz0SVot/46fR/oe/0fw4t9pLgDW5yWk7/feke88uG3pQGa28iRtm+/Qdwfpd9zXARngAmBLWo90N69r8rUCb/FWw2bNkrfqfUs+t38N6Xd6vcKxrGZ8DYAtS9+1At+VdDZwGnBmRDxUNpaZDSZpIrAfcCCwN+DTebZMLgA2HKuRJpb9gCfzV4V+BvwyIh4omsyswyStC+wPHATsBfibPTZsLgC2osYBr8pjoaT/Ix0Z+EVE3Fc0mVkHSFofeA3pk/6ewNiyiaypXABsZYwlHWrcG/hWvrr4NOBXEXFHyWBmbSJpY+DVpEX/pXjutlHg/4hstIwhHYLcC/i2pGuAmXn8MSIeKRnOrEkkrUW6Wn9GHtuVTWRt5AJgvbJdHh8knSq4mFQGzgEujYinSoYzqxNJqwIvJBXoGcBu+NC+9ZgLQBlzSb/cmxTOUZWxwD/l8TngIUnnksrATO9CaF2Ud+ObQVr0XwZMLJuomNuBhcDUwjk6xwWgjOtJV+1+FvgAsGrZOJWbCByQB5JuBc4FLgYuAf4WEYvKxTMbXZLGAM8FdiV9un8ZsHnRUOU9BRwPHEn6VtHUomk6yAWgkIiYD3xY0onAt4AXl01U1OakPckPzX9eIOkKUhm4BLg4Im4rFc5sRUnajLTQ75rHzsD4oqHq5ULgPRFxNYDkOw6X4AJQWERcLWkP4O3A0cD6hSPVwXj6NyECQNKd9BeCS4DLcokyKyrvlPkC+hf7XYGNioaqr/uAw4ETIiJKh+k6F4AayL8IP5B0BqkEvB1wJV7cRgw4bQA8nb9p8Bfgb8AsYLa/fmi9lL+Otz0wnXRIfxfSxa7eVn3ZAjgBONz7hdSHC0CN5F+Md0j6AXAc6RCiDW0V0iQ8feAPJT1AKgOzgNl9zz3p2IrIm+30/fe1/YDn65bM1VAXAx+OiItKB7HFuQDUUP5FeZGkA4DPkyYgG5516f/GwTMk3cWAQpDHdRHxYOUJrTYkrQNsQ/8C37fgTymZqyVmA0dExC9LB7GhuQDUWEScIelM4M3AZ/BVsitjSh4vH/hDSQ8Cc0hfzZwz6PnciHi00pQ2qiStSfq9mTbgceDzdQpFa7O5pPnqpIh4umwUWxYXgJrLv0A/lHQK8G7gCGBS2VStsg6wUx5LkHQPSykHwJ0R8XAVIW1okiaQrg+ZytCL/IaFonXRPOALwLcj4snSYWz5XAAaIv9CHS/pBODfgY8AE8qm6oQN89hlqL+U9Bhp4rt7ecN3ThyefIe7ycMYk4A1CsW0fg8DXwW+5i2/m8UFoGHyL9hRkv4LeBdpI6GNy6bqtDWALfJYJklPsnhZeJA0ec7PjwOfD/mzuh9SlbQKsDapnPY9TljOz9Zh8UXdt7RthjtIG/l8x9fSNJMLQEPlX7ijJX0NeCPpiIAvFqy3ccCmeYyIpEfpLwWPkrZQXQgsGvB8Rf4MaavmMflx7Aj+vCb9i/maI/1ns8aYTfrE/2Mf6m82F4CGy7+AJ0r6IbAP8FHSNqPWTmvm4Y1mrGrnAscAZ3kTn3bw5hUtEcnvImJP4PnAqaRPeWZmI7WINJc8PyL2zHOMF/+WcAFooYi4IiLeAGxG2nbz+sKRzKxZrifNHZtFxBsi4orSgWz0uQC0WETcFRFfiYhtSPvqnwD4Kl0zG8ojpDlij4jYJs8dd5UOZb3jAtAREXFBRBxG2gzn7cD5hSOZWT2cT5oTpkTEYRFxQelAVg1fBNgxeWe7/wH+R9KzgUOAA4FtiwYzsypdC5wGnBwRN5QOY2W4AHRY/sX/NPBpSdsBB5HKwPRl/h+aWRP9jbTonxYR15QOY+W5ABgAeUL4LPBZSc+hvww8r2gwM1sZV5EW/Z/5k74N5gJgS4iI60l3Ify8pK1JReBAYOeiwcxsOC6j/5P+TaXDWH25ANgyRcSNwJeAL0naklQEXkvaG98XkZqV9xRwKXA6cHpEzC0bx5rCBcCGLSJuBr4CfCXfsGVPYC9gBrBVyWxmHfN3YGYe53ovfhsJFwAbkXxnu9PzQNI0+svAnsD65dKZtc59wB/Ii35E3FI4j7WAC4CNioiYA3wP+F6+I9xOpDKwF2kTotUKxjNrmseBC+j/lH+lt+C10eYCYKMu37L28jy+LGkNUgmYkR93xoXAbKAngCtIm/LMBM6PiMfKRrK2cwGwnssTWd8nGSSNA3YEdhswphULaFa9m4GL87gEuMq31rWquQBY5fJEd2kexwNImsTihWAXYK1SGc1G0XzSf+uXkBf9iLinbCQzFwCriYiYB5yZB/k6gu1ZvBRsg796aPX2NGmb3YsHjGvyaTGzWnEBsFrKE+bf8vgeQL6WYDvguaTtivvGJoViWrf9A5hF+m90Vh7X+ty9NYULgDVGnlj7Li58Rt6TYGAh6CsI61ad0VrpPvoX+L4Ff7a/e29N5wJgjZf3JPhzHs+QtDGLF4KtgS1Jt0RWxTGt3gK4k3Rx3g0MWPAj4s6Swcx6xQXAWisi7gDuAH4/8OeSVgemksrAtDwGPp9YaVCryoPAnDxuHvT8loh4vGA2s8q5AFjn5In+ujyWIGk9hi4GU0lHD1wQ6ulB4C5gLkMs9PlIkZllLgBmg0TE/cD9DLrWoI+k1YDJg8akIX42GVgPn24YqSCdf78bmJcflzbmRcQThXKaNZILgNkKygvNrXksk6QxLF4OJpGOIEzIY+DzocbY0f8nqNRC4OEB46FBfx44HmTxhf6eiFhUILNZJ7gAmPVQXsD6rkVYYfmrj0MVg/GkcjBmBR6H+hnAItJCPZzHpf3dAoZY4H1e3ay+XADMaix/9fEx0idiM7NR413VzMzMOsgFwMzMrINcAMzMzDrIBcDMzKyDXADMzMw6yAXAzMysg1wAzMzMOsgFwMzMrINcAMzMzDrIBcDMzKyDXADMzMw6yAXAzMysg1wAzMzMOsgFwMzMrINcAMzMzDrIBcDMzKyDXADMzMw6yAXAzMysg1wAzMzMOsgFwMzMrINcAMzMzDrIBcDMzKyDXADMzMw6yAXAzMysg1wAzMzMOsgFwMzMrINcAMzMzDrIBcDMzKyDXADMzMw6yAXAzMysg1wAzMzMOmhM6QBmXSVpKrAPsBWwGTARUMFIVQjgIeA24CbgrIiYWzSRWUe5AJhVTNLewFeAHUpnqQNJVwMfi4izS2cx6xKfAjCriKS1JH0bOAsv/gPtAJwl6XuS1i4dxqwrXADMKiDpJcDVwLtKZ6mxdwCzJO1VOohZF7gAmPWYpJ2AmcC00lkaYHPS0YAXlg5i1nYuAGY9JGk14H+BsaWzNMiqwA8lrV46iFmbuQCY9dZngemlQzTQNsBRpUOYtZkLgFmPSHoR8JHSORrsw5JeXDqEWVu5AJj1zsdJh7NtZFYBDi8dwqytXADMekDSGoCvZl95e+X30sxGmQuAWW/sCowvHaIFxpPeSzMbZS4AZfh9b7/NSgdoEb+X7ec5sQC/6WX4++Dtt1HpAC3i97L9tiwdoItcAMrY0uc1W+/J0gFaxO9li+W50B+KCnABKGMV0vecrb3uKB2gRfxetts2eC0qwm96OfuVDmA9dXPpAC3i97LdXl06QFe5AJTzPkm+Sry9rgDmlQ7RAvNI76W1UN7u+X2lc3SVC0A5GwBvLx3CeiMingbOLJ2jBc7M76W101uADUuH6CoXgLI+LMk3iWmvzwAPlg7RYA+R7qVgLSRpDPAfpXN0mQtAWdOAo0uHsN6IiNuB95fO0WAfioh/lA5hPfN54NmlQ3SZC0B5/y7JF8G0VEScDPyidI4G+k1EnFg6hPWGpFcCHyudo+tcAOrhREne7ay93o2/yrYi5gHvLB3CekPSpsD/AiqdpetcAOphPeAUSeNKB7HRFxHzgOcBp5XO0gBnADtExJ2lg9joy3PcKaSLoK0wF4D62B04I38txlomIu6NiIOANwD3l85TQ/cDh0TEayLi7tJhbPTlue0MYI/SWSxxAaiXVwK/kbRm6SDWGxFxKrA9cDwwt2yaWphLei+mR8SPCmexHslz2m9Ic5zVxJjSAWwJewJnSdo3Ih4uHcZGX0TcBXwQ+KCk55C+DbIRMIH2nxcN4GHgTmBORFxfOI/1mKQJpMXfn/xrxgWgnvYAzpG0d0Q8UDqM9U5eAL0IWitJWhc4G9ildBZbkk8B1NcuwKWSdiodxMxsReW561K8+NeWC0C9PQu4SNJ7SwcxMxuuPGddRJrDrKZcAOpvNeC/Jf00n0szM6slSRMk/RT4b9LcZTXmAtAcBwFXSNq5dBAzs8Hy3HQFaa6yBnABaJatgAslfdybBplZHUgaJ+njwIWkOcoawgWgeVYDvgT8TdIrSocxs+6SNAO4mjQn+ZB/w7gANNezgbMl/VzSFqXDmFl3SNpM0s+A3wPPKZ3HRsYFoPleA1wr6ZOS3MDNrGfy4f5PANcCB5bOYyvHBaAd1gCOAmb71sJm1guS9gH+BnwR8HblLeAC0C5bAWdKulTSfpLavq2smfWYpFdJugj4HenUo7WEC0A77QL8ErhK0kGS/O/ZzIZNyWskXU7ax3+30pls9HlhaLcdgJ8CsyQdImnV0oHMrL4krSLpYNKV/T8HvO9Ii7kAdMO2wEnA9ZIOkzS2dCAzqw9JYyQdSrq47xRgeuFIVgEXgG7ZCvg+cJOkIyRtVDqQmZUjaXLexOdG4ER8jr9TXAC6aTPg88Ctkn4h6ZW+TsCsG/Jh/r0lnQ7cRtrEZ2rZVFbCmNIBrKgxwAF53Crp+8AJEXF72VhmNtokbQy8HTgML/iGjwBYv82BzwG3SPqlpH190aBZs+VP+/tKOgO4lbRfyNSyqawufATABlsV2C+P2ySdAPwkIq4tG8vMhkvSNsDBpE/8mxWOYzXlAmDLshlwJHCkpGuA04CfRcSssrHMbDBJ00nb8x4IbF84jjWAC4AN13bAp4FPS7qeVAZOi4irysYy6y5Jz6N/0d+mcBxrGBcAG4nnAEcAR0i6if4ycFnZWGbtJ2ln+hf9rQvHsQZzAbCVtRVwOHC4pFtIZeBXwEUR8WTRZGYtkDfu2g14NfA6YMuyiawtXABsNG0B/Ecej0r6EzATOCci/lY0mVmDSNoOmJHHS4C1yiayNnIBsF5ZE3hlHki6Czgnj5kRcUfBbGa1knflfDlpwd8L2LhsIusCF4AyZgOPALuWDlKhKcAheZC/VXAO6QjBeRHxSMFsZpWStCbpk/1epEW/y3vvX0I6wuFvLlTMBaCMf5A+Gb+TtA3nemXjFLFdHh8AFkq6DLiYNBlcEhFzC2YzG1WSNicV/l1J5/NfCHT9plz3A58Avgf8DheAyrkAFBIRAXxX0s+BY4BDAZVNVcxY4EV5ACBpHrkM5PGXiHioTDyz4ZO0NrAL/Qv+rqQjYJYE8EPgoxFxL4DU1amvLBeAwvIvwNsk/QD4Ft0+FDjQJNJVz6/Ofw5J19FfCC4GZkXEokL5zMjbZU9n8cV+W7zN+tLMAt4TEeeXDmIuALUREedL2gn4EGn3PV/1uziRJtZtgbfmny2QdCVpUukbsyPiniIJrdUkrU9a7KeTDlc/F9iJdMGrLdsjwGeBr7u014cLQI3kX4yvSjqVdLveN+NPEssyHtg9j2fk0wezSBdbPvPoUwg2HJImkBb46QMepwOTS+ZqqKeBk4BPRsQ/SoexxbkA1FD+RXmrpGOALwD7F47UNJOAPfN4hqR/0F8KZgHXAXMi4u7KE1pxkiYB00hb6A5c7H3znNFxBnBERFxTOogNzQWgxiJiNnCApBeRvi3wksKRJj7O/wAAIABJREFUmm7TPPYe+ENJC4BbgDl5zB34GBH3V5rSRoWkdUkL/NRBj33PxxeK1nbnAp+IiEtKB7FlcwFogIi4CHippH1IRWDHwpHaZjz91xcsQdLDDCoF+fFO4G7g7oh4vIKclklajXRIfjKwEUsu8lOBiWXSddblwH9GxO9LB7HhcQFokIg4S9LZwL8Cn8M3AqnKBGCHPIaUS8LdwxkR8WivAzeRpPH0L+rLG17c6+M60p1CT8tfb7aGcAFomPwLdqqknwIHAB9hwPfnrZgJeSy3lEl6lFQGHgQeBubnx4HPl/ezRyLi6VH/pxgBSauQvrUyAVh70ONwfrYOaVH3N1+a5Xzgq8CZXvibyQWgofLk/3Pg55JeTCoC++NvDTTBmqz8Hd1C0uPAojwWDng++M/L+jtI80DfGLuMPy/t71anu5tYdc3TpIv7jomIi0uHsZXjAtACEXEh8FpJWwMfJu0quEbZVNZjwv+OrTqPAScCx0XE3wtnsVHiT4stEhE3RsR7gM2Bz5AOM5uZjdTdpLlk84h4rxf/dnEBaKGIuDciPkv6ytv+wJn0H+41M1uWRaQ5Y39g04j4bN+e/dYuPgXQYnlnwTOBMyVNBt4CvJ208YmZ2UDXAScA/+vNsbrBRwA6IiLujohjImJb4MXA90lXlZtZd80nzQUvjoht8xzhxb8jfASgg/LGQhdJ+hDpMN+BwD74ojKzLngMOAs4Dfil96XoLheADsu/+D8GfixpLWBfUhl4Fd4m1axNFgC/JS36v4mIRwrnsRpwATAA8oTwE+AneUe2V5HKwL54gxazJnoE+A1p0f9tRCwonMdqxgXAlpAnitOA0yStQTo9cCDwatLObWZWT/OBX5F+f8+KiMcK57EacwGwZcoTyC+AX+QbsOwNvBZ4BekmLGZW1p3A70k7g54dEU8UzmMN4QJgw5YnljPzQNL2wIw8XkLa4tbMeusR4I/ATOCcfNtwsxXmAmAjliee2cDXJY0l3ZSorxC8AFi1YDyztngKuBQ4h7ToXxwRC8tGsjZwAbBRkSekP+XxKUnrAC+jvxA8q2A8s6a5gfwJHzg3Ih4qnMdayAXAeiIiHiRfOwAgaQtSEdgD2BV4Dr6DnBlAkHbhu5h0i91zIuLWspGsC1wArBIRcQtpx7HvA0haF3ghsFseuwLrFgtoVp37gUtIC/7FwKW5MJtVygXAioiIB4Cz80CSgK3pLwS7Ac/F/41asy0CrmbAgh8RN5SNZJZ4crVaiIggnfe8AfhfgLwh0QtIRwd2A3YGtsCnDqyeArgFuIL+T/eXewMeqysXAKutPHH2XVgIQN6yeDtg+oCxPbBxiYzWWXcAs/KYnR+v8Ra71iQuANYoeYK9NI9n5GsKBhaCvufrV53RWuVellzoZ+dTWGaN5gJgrZAn5D/n8QxJU+gvBFsDWwLTgKnA6tWmtJp6DJgLzAFuBm4kL/oRMa9gLrOecgGwVouIu4C7gD8M/Hm+6HAjUhmYRn8x6Hu+CbBKpWGtV54Cbict7nPoX+j7nt+Vr0Ex6xQXAOukPOHfkccFg/9e0jhgcxYvBlOBKXlMBtapKK4t2wPA3XncSf+n+b6F/lbvnGe2JBcAsyFExJPA3/MYUr450uQ8pgx6HPyzCT2O3DYPkY7c9C3sdw16fOZ5/ndlZivIBcBshPLNkW7NY5kkrU5/MZhIuq3yhAFj7WE8b8o1C48BD5NuTfvwCjx/CJhHWtQfrz62Wbe4AJhVIC9ot+QxIvmGS32FYDwwlvQ7PHYFxuD/PcDCZYxFy/n7vrGAvKBHxKKR/jOaWXVcAMwaIp/Hvj8PM7OV4quczczMOsgFwMzMrINcAMzMzDrIBcDMzKyDXADMzMw6yAXAzMysg1wAzMzMOsgFwMzMrINcAMzMzDrIBcDMzKyDXADMzMw6yAXAzMysg1wAzMzMOsgFwMzMrINcAMzMzDrIBcDMzKyDXADMzMw6yAXAzMysg1wAzMzMOsgFwMzMrINcAMzMzDrIBcDMzKyDXADMzMw6yAXAzMysg1wAzMzMOsgFwMzMrINcAMzMzDrIBcDMzKyDXADMzMw6aEzpAGZdJmkbYCtgM2AioLKJei6Ah4DbgJsi4rrCecw6ywXArGKSpgCfAPYDppZNU5akucCZwJcj4s7Cccw6xacAzCok6WBgNvABOr74Z1NJ78UsSW8qnMWsU1wAzCogaQNJPwNOAdYrnaeG1gNOlvQLSZNLhzHrAhcAsx6TNAn4K3Bg6SwNcABwtaSNSgcxazsXALPe+zawcekQDTIJ+F7pEGZt5wJg1kOSDgFeUzpHA+0r6a2lQ5i1mQuAWY9I2gT4r9I5GuzrkjYtHcKsrVwAzHrnM8A6pUM02ETgyNIhzNrKBcCsByStQvqev62c/fJ7aWajzL9YZr2xM+liNls5k0jvpZmNMhcAs97YsnSAFvF7adYDLgBmveGv/Y0ev5dmPeACUMbY0gGs58aVDtAifi/bz3NiAS4AZTy7dADrOd/YZvT4vWw/z4kFuACUsamkCaVDWE/dVjpAi/i9bLE8F3q/hwJcAMqZXjqA9dQlwILSIVpgAem9tPbyXFiIC0A5vvVpi0XEY8A5pXO0wDn5vbT2emPpAF3lAlDO2yRtWDqE9dSXgadKh2iwp4GjS4ew3pG0PvC20jm6ygWgnDWA95cOYb0TERcBXy2do8GOi4gLS4ewnnoPML50iK5yASjr3yStVzqE9dSRwKzSIRroOuBTpUNY7+SL/95XOkeXuQCUtR5wQukQ1jsR8QTwFmBh6SwN8hRwaEQ8XjqI9dT3gcmlQ3SZC0B5+0vyqYAWi4grgRnAnNJZGuBWYJ+IuLR0EOsdSe8BDiqdo+tcAOrhGEk7lQ5hvRMRfwR2AL5TOkuNfR+YHhH+9kSLSXoecFzpHOYCUBerAaf6eoB2i4hHIuLdwD7A1aXz1MjVpE/974yI+aXDWO/kOe6nwOqlsxiMKR3AnvFs4DxJe0XEvNJhrHci4mzgbElTgb2BacBGwARA5ZJVIoCHSdv7zgHOjoi5RRNZJSRNIu2N4W1/a8IFoF6eC/xR0ssj4o7SYay38sLnUwLWepI2Bv4AbFM6i/XzKYD62Qb4k6TNSwcxM1tZkrYA/oQX/9pxAainrYA/S9q6dBAzs5HKc9ifSHOa1YwLQH1tDvxF0mtLBzEzW1F57voLaS6zGnIBqLeJwOmSjpc0rnQYM7PlkTRO0vHA6aQ5zGrKBaAZ3g9cKGnL0kHMzJYmz1EX4vucNIILQHM8H7hC0oGlg5iZDZbnpitIc5U1gAtAs0wEfibpREneQ9vMipM0SdKJwM/wIf9GcQFopkOB6yV9QNKqpcOYWfdIWjXfx+QG0pxkDeMC0FwTgW8AV0r659JhzKw7JO0OXA4cjz/1N5YLQPP17R54sqSNSocxs/aSNFnSD4E/A88rncdWjgtAe7yJdFrgo5LWKB3GzNpD0uqSPgRcD7yF9t+zohNcANplbeArwFxJH5O0VulAZtZcktaU9GHgZuBr+HB/q7gAtNMk4GjgFkmfkrRO6UBm1hySJkj6BDAXOJZ0t0prGReAdlsP+BzpiMDnJa1fOpCZ1ZekdSV9BrgF+CKwQdlE1ksuAN0wETiCdETgGElTSgcys/qQtKGkL5EW/iMBHzXsABeAblkT+AgwR9JJkv6pdCAzK0fSi/MmPrcAHyddR2Qd4QLQTasDhwB/knStpH/36QGzbpC0nqQPSpoFXEDaxMffHOogFwDbBjgOuF3SjyS9pHQgMxt9kv5Z0snA7cDXge0LR7LCXACsz2rAG4HzJF0v6T8k+QIgswaTtEH+Xb4O+CNpv5DVC8eymnABsKE8G/gq6ajAqZJe482FzJohb9pzgKRTSZ/2vwo8p3Asq6ExpQNYrY0D/jWPRyT9lnTHr99GxIKiyczsGZLGA68CDgT2BbwJmC2XC4AN11rA6/NYIOl3wGnAbyJiftFkZh2Ud/rcl7TovwoYXzaRNY0LgI3EeOB1eTwu6WxSGfhVRDxUNJlZi0laG3g1adHfB1+9byvBBcBW1urA/nk8KWkm8GvgnIj4e9FkZi0gaRqwF2nhfwXpgl2zleYCYKNpHOmQ5L4AkuYC5+TxfxFxT7loZs2Q9+TYk7To7wVsWTaRtZULgPXSVOAdeYSkv9JfCP7sCwnNIH/DZg/6F/yd8O12rQIuAGVcSrqv9ptLB6mQgB3z+AjpdMGF9BeCyyLiqYL5zCohaRXg+fQv+LvT7cP6J5G+pvjC0kG6xgWgjAci4i2SfgB8E9iudKACxgEvzePzwHxJfwEuAS4GLomIu4ulMxslkjYEdgV2y2MXYELRUPVwDfDeiPijpLNKh+kiF4CC8n/4OwIfBj5FullPV61NOu+5Z98P8jUEF9NfCq6MiCeKpDMbBknjSEe5+hb7XfE5/MEeBY4CjouIhaXDdJkLQGH5F+BoSacA3wAOKBypTqbmcXD+85OSrmJAKYiIm8tEMwNJU+lf6Hcjnb/v8uH85TkD+GBE3Fo6iLkA1Eb+hXiNpH8BjgemFY5UR+NI5wmfOVco6T5g1oAxG5gVEQ8USWitJGkd0s1zpuexPfBcwPfLGJ45wAci4telg1g/F4CaiYhfS/oD8EHgcGCdwpHqbn3gJXk8Q9Id5DIw8DEiHqk8oTWGpDVJ1+QMXOinA5uUzNVgDwJHA9+IiMdKh7HFuQDUUP5F+bKk75BKwAfwjl8rauM8Zgz4WUi6lf6jBdeRPpnMAW73txC6IV+FvwnpKNs00i2x+xb7qfgreKNhAelI5tER8WDpMDY0F4Aay4exPy7peODTwGH439nKELBFHvsO+ruFkm4jlYG5QzzeGRFRVVAbOUkCppAW82lDPG4OjC2TrvUWAt8HjoqIO0uHsWXzYtIAEXEH8G5Jx5Kunn09/pQy2saSrtZe2hXbj0u6hUGlALh7wJjnowi9JWlVYENg8oCxEYsv8lPxPe+rFsApwKcj4qbSYWx4XAAaJCJuBA6W9BVSEXglLgJVWZ20Wcmy7qse+aLEu4cz/BWoRNJYYBKLL+pLG+sDq5RJakMI4Fekhf+vpcPYinEBaKCIuALYV9L2wH8AbyJdIW9liXRV+Aak88nL/h9LC4CHgfn5ceDz4fzsUWBRHgsHPF802uVC0hjSUZIxA0bfn8eTNraZQNrPYeDjcH7W5f0vmuoJ0g5+x0bEdaXD2Mi4ADRYRMwG3i7pCOD9wLuBdcumshUwPo8po/3/OJ0G5ymGKAeD/gxDL+oD/7zqaOezxnoA+BZwvHfqbD4XgBbIF9v8p6Qvki4U/BDpPKh126p5eGMaW1lzga8BP4iIRwtnsVHic2ktEhGPRMQ3gGeRds+7oHAkM2u2C0hzybMi4ngv/u3iAtBCEfFURPwkIvYgfcf5K8BdhWOZWTPcRZoztomIPfJc4m+3tJALQMtFxPURcTiwGbAfaS9uX31uZgMtJM0N+wGbRcThEXF94UzWY74GoCMiYhHp6zq/kjQJeDPwdrp5K2IzS64BTgBOioh5pcNYtVwAOij/oh8LHCtpZ+DAPLYuGszMqnAjcBpwWv5KsXWUC0DH5QngCtK3CJ5HfxnYpmgwMxtN19G/6HvDHgNcAGyAPDH8FfiUpOn0l4HlbmpjZrUzm/5Ff1bpMFY/LgA2pDxhzAI+I2lb+svADkWDmdmyXE3/on9t6TBWby4Atlx5IjkKOErSs4HXAq8AdsdbEJuV9CTpu/q/B34eETcUzmMN4gJgKyRPMF8GvixpPPDPwAxgL3x0wKzXAvgbMDOPP0fEgrKRrKlcAGzE8sRzVh5ImkwqAn2FYJNy6cxa4x+kxf4c4Bx/Xc9GiwuAjZp8c5Af5UG+dmBGHi8h3fnNzJbtYeA88qLvu+1Zr7gAWM/kaweuBY7P93zfFdgjP+5GD+6CZ9ZAdwIX53E+cGneuMusp1wArBL5/vTn5wGApC1IRaBv7ITvXGft9gRp342+Bf/iiLi1bCTrKhcAKyYibgFuAX4CIGkcsCOLl4JpxQKarbybSQv9Jfnxqoh4smwks8QFwGojT4yX5nE8QL5vQd8pg52B6cCmpTKaLcNtpM13+j7hX+IL9qzOXACs1vIE+qs8AJA0kbQ74fQ8+p5PKpHROudu0kLft1nWbGB2RDxUNJXZCnIBsMbJE+2FeTxD0oYsXgj6nq9TdUZrhQdYcqGfFRH3Fk1lNkpcAKw1IuIe4Nw8niFpE1IZ2BrYknRdwbT83F9N7LaHSefp5+RxM+luebMi4o6Swcx6zQXAWi8ibgduB84e/HeS1qe/DEwb9HwLYGx1Sa0HniRdaNq3uA9c6OdExP0Fs5kV5QJgnRYR9wH3AZcN/jtJq5AuOOwrBlNJexdMASYPeFyjori2uAWk8/F35ce7Sd+pn0v/Qn97RDxdKqBZnbkAmC1FXjhuzeOPS/vfSVqbJUvB5KX8bPXepm68x+hfzO8a4vkzP4uI+aVCmrWBC4DZSsoL0XzSueNlkjQBmEi69mDCgLH2Cj6v24ZJj5POp8/PjyN5/pAXdbPquACYVSgi+ha7lSJJpOsTxozgceBzgEXAwmE+Dvl3EREr+89kZtVyATBroLzgPpmHmdkKW6V0ADMzM6ueC4CZmVkHuQCYmZl1kAuAmZlZB7kAmJmZdZALgJmZWQe5AJiZmXWQC4CZmVkHuQCYmZl1kAuAmZlZB7kAmJmZdZALgJmZWQe5AJiZmXWQC4CZmVkHuQCYmZl1kAuAmZlZB7kAmJmZdZALgJmZWQe5AJiZmXWQC4CZmVkHuQCYmZl1kAuAmZlZB7kAmJmZdZALgJmZWQe5AJiZmXWQC4CZmVkHuQCYmZl1kAuAmZlZB7kAmJmZdZALgJmZWQe5AJiZmXXQmNIBzLpM0nOAacBGwARAZRP1XAAPA3cCcyLi+sJ5zDrLBcCsYpI2AD4GvBbYqnCcoiTdBPwcOCYi7imdx6xLfArArEKSDgBmAx+l44t/thXpvZgt6XWlw5h1iQuAWQUkrSvpJOAXwKTSeWpoQ+A0SadIWr90GLMucAEw67G8oF0FHFI6SwMcDFwtaXLpIGZt5wJg1nvfBDYvHaJBNga+VTqEWdu5AJj1kKR/BV5fOkcDvUbSm0qHMGszFwCzHpE0Bfjv0jka7HhJG5UOYdZWLgBmvfMZwBe0jdx6wJGlQ5i1lQuAWQ9IEnBA6RwtcEB+L81slLkAmPXG8wFfyb7yJpPeSzMbZS4AZr2xZekALeL30qwHXACW9HgFrzGxgtewsnzx2ujxe9l+a1bwGk9U8BqN4gKwpCr2I9+2gtewslYrHaBF/F62XxVHee6t4DUaxQVgSfMqeI2Jkjap4HWsnLtKB2gRv5ctJmkNqjnKc18Fr9EoLgBLqqIAgC9sart/lA7QIn4v220fqrkNto8ADOICsKSqbkn6vopex8q4CHisdIgWeIz0Xlp7VbXjowvAIC4AS3oAWFTB68yQtFMFr2MFRMRjwMzSOVpgZn4vrYUkbQz8S0Uv51MAg7gADBIRAdxe0ct9rKLXsTK+DDxVOkSDPQ0cXTqE9dQPqOYizxsjwt8CGMQFYGjnVfQ6B0napaLXsopFxEXAV0vnaLDjIuLC0iGsNyS9i3T+vwp/ruh1GsUFYGi/r+h1VgV+Isn7ArTXkcCs0iEa6DrgU6VDWG9I2go4tsKXPL/C12oMF4ChnQNERa81Dfh+Ra9lFcuHHd8CLCydpUGeAg6NiCo25bKKSVoF+CHVbP7TxwVgCC4AQ4iIecBfK3zJAyW9p8LXswpFxJXAK4BbSmdpgNuAfSLi0tJBrGc+Cuxe4evdHRE3Vvh6jeECsHRVnQboc5ykvSp+TatIRJwHPBc4oXCUOjsReG5EnFM6iPWGpIOAoyp+2T9U/HqN4QKwdFV/hWt14NeS9q34da0iETE/Ig4D9gNuKJ2nRm4A9o+It0XEQ6XDWG9IegdwKjC24pd26V4KpW+92WCSVgPmAlMqfumFwBsi4vSKX9cqJmkbYG/SdSAbAROoZke0kgJ4GLgTmAOcHRHXlY1kvSbpI8AxBV76JmDr8EI3JBeAZZD0H5T5GtdTwFsi4scFXtvMbNRI+gLwn4Ve/uMR4b0klsIFYBkkrUk6CrBBgZd/GvhQRPxXgdc2M1sp+Wr//w8odYHzQmDTfFG3DcHXACxDRDwKHFfo5VcBjpf0U0kTCmUwM1thksYBJ1Fu8Qc4w4v/svkIwHJIWpv09a11C8a4CXh9RFxRMIOZ2XJJ2pn0Pf/pBWM8BTwvImYXzFB7PgKwHBExH/h64RhbARdK+rfCOczMhiRprKTPApdQdvEH+LYX/+XzEYBhkLQO6ShAHQ7Fnwa8MyIeLB3EzAxA0g6kT/07ls5CuqPrsyLi/tJB6s5HAIYhL7ZfKp0jOxC4TtKhktr+lTEzqzFJYyR9EriMeiz+AEd68R8eHwEYpnxF60xgz9JZBrgQeF/eatbMrDKStift3viCwlEGuhbYISIWlQ7SBD4CMEwR8TRwCFCnq0pfDPxF0n9LKnmRopl1hKSJ+Vz/5dRr8V8IvN2L//C5AKyAiLgTeDPV3SlwOFYF3gvcIOkwnxYws16QtHY+3D8H+DSwWuFIg30sIi4uHaJJfApgBCR9EfhE6RxLcRnwmYj4TekgZtZ8ktYC3g98BFivcJyl+XlEvK50iKZxARgBSWOA86j2lpYr6grgC8AvvA+2ma0oSeOB95Fu31tiN9Thugl4vm8kteJcAEZI0mbAVdS3EfeZTSoCP8nXMZiZLZWkNUg7+B0OTCocZ3meAF7kC6FHxtcAjFBE3Aa8lbRnf51tD/wYuFbSW/PRCzOzxUhaXdIHgZuBY6n/4v80cKgX/5HzEYCVJOkQ0ldhVi0cZbjmAl8GToqIBYWzmFlh+aZnbyNd17Rx4TjDFaQN0X5QOkiTuQCMAkmvA04BxpbOsgIeAn4EfDci/lo6jJlVS9KuwGHAwcDaheOsqA9FxDdKh2g6F4BRImlf0ja9q5fOMgKXAt8FTs13QDSzFpK0AemrzIeRTg820aci4vOlQ7SBC8AokvRy4JfAmqWzjNB8+o8K+LyaWQvkXUxfQVr09wPGlU20Ur4SEYeXDtEWLgCjTNLuwG+px42DVsZlpKMCp0TEI6XDmNmKkTSNdG7/rcBmZdOstCB98v9C6SBt4gLQA5JeAJxN/b8iOByPAr8hnd74rU8RmNWXpNWB15A+7e8JtGFn0MeBt0bET0oHaRsXgB7Jt8ecSf2/SrMiFgC/I5WB30TE/MJ5zDpP0lhgD+B1wBuBNt0X5B5g/4i4qHSQNnIB6CFJzwJOBZ5fOksPPE46ynEa8CvvwmVWHUmTgFcC+wJ70/xTjkO5Dtg3Im4uHaStXAB6LLfzzwEfo70bLz1JOtpxGvDLiHigcB6z1pG0E/AvpEV/F9o7n0CaT14fEQ+WDtJmLgAVkfRS4CRg08JRem0hcAFwDumX+DJvQWy24vIGPXuRFvx9ac4mPStjIfBJ4Bjfw6T3XAAqJGld4DvAQaWzVOgB4FxSGZgZETcVzmNWW/nK/b5P+S+lfrfc7aUbgTdGxGWlg3SFC0ABkt4K/BewVuEoJcwllwHg/yLivrJxzMrJG/O8CPhn0qK/bdlExfwP8AF/5bhaLgCFSNqKtOnOrqWzFPQ0cCWpDJwLXOpzftZWklYFnkta8PvGs4qGKu9B4F0R8dPSQbrIBaCgfGe+I0k34WjKzYR6KYDrgUsGjKsjYlHRVGYjkD/d70b/Yr8L3TzqtzQ/Bz4YEf8oHaSrXABqQNIewPeB55TOUkOPAVcwoBRExC1lI5ktLn+6n87in+63Lhqqvm4G3h8Rvy0dpOtcAGoiHw04jHREYKPCceruLvoLwV+AWRFxV9lI1hWSBEwlLfi7khb7F+JP98vzJPAV4IsR8VjpMOYCUDuSxgMfBj5KOzf36JX7gFl5zO577j0JbKRyKX8WsB3p4ry+x+cA4wtGa6I/AO+NiBtKB7F+LgA1lc8ffgp4N82+e1dpdzCgEORxja82tj6S1iAt6n0LfN9i/yxgbMFobXATcIT38a8nF4Cay98L/gJwMO24sUcdBHALcC0wZ/DwUYN2krQe8GwW/zS/Lelwfpt31SvhdtIOqCf4It76cgFoCEk7A0eTdgaz3nqIdKHSEuUAmOvzl/UjaR3SLpubDXjcbNDP1iwWsDvuBb4EfDMiHi8dxpbNBaBhJM0gFYGdSmfpqADuJpWBO/PzIYdPM4wOSRNY9sK+Gb4Ar7SHgGOBr/m/++ZwAWigfBXyG0iH2LYqHMeWbgFLLwjzSJugzB882njINP83O4F0q9p18uPSxsC/n4Ivhq2z+4FvAcdFxP2lw9iKcQFoMEmrkG4J+p786POY7fA48DBDlINB41HSzVMWAosGPF+RP0O60G1cfhw4RvKzNRl6UZ+IN7tqk78DXwf+JyIWlA5jI+MC0BKSpgLvIu0lsGHRMGbWVueTDvWf6bt8Np8LQMtIGgccCLwX2L1wHDNrvqeA04FjI+LS0mFs9LgAtJik55KKwCH4IikzWzG3AycC3/P22+3kAtABktYG3ky6VmB64ThmVl8LgV+T7k1ydsT/394dtEQZRWEc/58oJCOVKA3baBBIomARuWoR2BeIPkDbvpObPoEWLVoEgSgJFYSQIVSWRiaBIoo0oqfFvcM7M2mMOjN3Zt7nB5f3Dm7Oas4zzpl7fT9xPVJHCgA5Ey8eegI8RCcMikjwCZgEnrr7eupipDEUAHLKzHoJA4OP0a1lInm0Rfhuf9LdZ1MXI42nACCY2ShhcPARMJS4HBGpn1XgGTANvHb3QuJ6JCEFACljZsNkYWA4cTkicnoLhIY/5e7vUhcjzUMBQI5kZkNkYWA0cTkiUp19YIbQ9Kfd/WvieqRJKQBIVczsBlkY0D0EIs1JyfX9AAACFElEQVRlG3hJaPovdCyvVEMBQI4tnjr4AJgA7gOXUtYjklNrwHNgCnjl7n8S1yMtRgFATiXeR3CbcE3xBOH0Qf28UKQ+Fon/2gfmXW/gcgoKAFJTZtYJ3CMLBCOAJS1KpDU58BGYi2vG3T+nLUnaiQKA1JWZ9RHCQDEQXEtbkUjT2gbmyRr+G3ffTFuStDMFAGmoOD9wFxiPawzoSFiSSCrLwCxZw1/Q0bvSSAoAklS8vXCMEAaKwWAwaVEitVcA3pM1+zl3/5m2JMk7BQBpOvGY4vGSdQfdZiitZZ2SZg+81ZS+NBsFAGl68ZcGw8Atwm2GI/GpeQJJ7QD4RpjOXwQ+ED7da1hPmp4CgLQsM+uhPBAUl84lkForAEtkjb64ltx9N2VhIielACBtx8z6KQ8EI8BNoDNlXdIStghX41Y2+i8a0JN2owAguWBmRvjK4DphyHCwYt+PzivIiz3CrXjLVDR7d/+RsC6RhlIAEAHMrAMY4N9gUNz3JCtOjuMA+AWsAN/jc6Xi9ZpO0BNRABCpSpw3GACuAn2HrN74vAKcSVNlLmxQ3tgrm/yqu++lK0+kdSgAiNRQ/MXCZQ4PCcWg0A10xdUNXCR/oWGH0Mw3gM2SfeXr4v43sOLuO0mqFWlDCgAiicX5hAtkoaAYDLqOWN3AeeAccPYEz9I9hAn3vZJVOGJf7d92+X8z39SndJH0/gKlMrWsS4o9uAAAAABJRU5ErkJggg==;" vertex="1" parent="1">
                    <mxGeometry x="466" y="150" width="92" height="92" as="geometry"/>
                </mxCell>
                <mxCell id="141" value="" style="shape=image;verticalLabelPosition=bottom;labelBackgroundColor=#ffffff;verticalAlign=top;aspect=fixed;imageAspect=0;image=data:image/png,iVBORw0KGgoAAAANSUhEUgAAAgAAAAIACAYAAAD0eNT6AAAABHNCSVQICAgIfAhkiAAAAAlwSFlzAAAOxAAADsQBlSsOGwAAABl0RVh0U29mdHdhcmUAd3d3Lmlua3NjYXBlLm9yZ5vuPBoAACAASURBVHic7d1drF5XeeDxv32OjwlxHJoiUEIgTijkw/ZMRSBSB1IiDSnkE3ozN9OqoASQEM0lN1QkzMWo0yqRHRuHYSRAgypQ6UW+mtA4Sd0hIxVRdaqJ05CQNIntfBkRUx/zZY45c7Fthp7knPd991p7r7328/9JW77x3uvZa+9nvc9Z+wskSZIkSZIkSZIkSZIkSZIkSZIkSZIkSdJQrCsdgAZnDrgUeB9wMXAhcC7wBmATsKFcaJImOA78GPgRcBB4AngceAT4R+BEudA0NBYAAlgArgL+ELgS2Fw2HEkd+FdgL/A14H7gF2XDUWkWALH9JnAT8CngjYVjkdSfHwB7gNuBVwrHokIsAGJ6PfBZmh//TYVjkVTOIrAD+FPgJ4VjUc8sAOK5nqbqP690IJIG41ngj4F7C8ehHlkAxLER+DOav/ol6bV8Dfgk8NPSgah7FgAxnAPcA7yrdCCSBu8faGYKXywdiLplATB+FwB/A/xW6UAkVeNZ4IPAk4XjUIcsAMbtHcC3gTeXDkRSdV6meR/IU6UDUTcsAMbrHJqXf5xfOhBJ1XoGeC9eDhglC4Bxeh3wv/Gav6R036WZCTheOhDlNVc6AHViJ81NPJKU6i00bwf9VulAlJczAONzHXB36SAkjcoycC1wX+lAlI8FwLi8HtiP1/0l5fccsJXmY0MaAS8BjMstOPUvqRtvAJaAfYXjUCbOAIzHWTTP7p5ROA5J47VI8xrxI6UDkfT/fZ7mOl3O5QCwC/gQcBFwem97MyxbSO/Lj/Ycc80+Snp/b+k55qE4nSZXrwJ2AwfJPy7c3NveSJpogebznrkS/BBwI14i+nXPkNanX+k/5Gp9hbS+fqb/kAdrHvg48Dz5xoeXgQ197oSk1X2EfMl9F15GeC3+KPXHYiu/M2ieDso1Tlzbb/iSVvNX5Enq24H1Pcdei4+S3r9beo65RltI7+eP9hxzLdbTXNLLMVZ8o+fYJb2GOZobclIT+j6c8l/L2/CHqQ8fJb2fz+s76Iqsp5nlS+3jIzheSMVdRnoyH8Jp/2k8Q1o/f6X/kKvzFdL6+Jn+Q67OZuAF0seNS/sOXHk53Vu/92XYxs00j/dobfsS178iQwxjd0Xi+vsyxDB2R2neGZLq8gzbkJTgf5BWxR/Aqbxp/RHpfzVt6TvoimwhvX//qO+gKzVPM/OX0tdf7D1qZeUMQP0uSlz/TuBEjkAC+NsM27giwzbG6ooM29iXYRsRLNHcC5DiwhyBqBwLgPqdm7j+/VmiiOEAzdsWU7w/Qxxjldo3z9K8r17TSf2wz9uyRKFiLADqtzlx/aeyRBHHvsT1r8gQw1hdkbh+jhmaSFJz3xuHK2cBUL9Nieu/mCWKOP4ucf0teB/Aa9lCer+kHptonk9cP/WPDxVmAVC/hcT1j2WJIo6HM2zjigzbGJsrMmxjX4ZtRJKa+xuzRKFiLACk2XgfQDdS++QZvP4vzcQCQJrdvsT1r8gQw9hckbj+vgwxSKFYAEiz8z6AvLbg9X+pd+tKB6Bky4nrew7M7m043Tw0W/CYtOH4EZgzANLsctwHoHy8/i+1YAEgtbOvdAD6lX2lA5BqZAEgteM15+HwWEgteP2mfl7DK8P7AIZjCx6Lthw/AnMGQGrH+wCGwev/UksWAFJ7+0oHII+B1JYFgNSe157L8xhILXn9pn5ewyvH+wDK24LHIIXjR2DOAEjtHaC5Bq0yvP4vJbAAkNLcWzqAwO4uHYBUM6dv6ucUXln/Dvg/WEz37ZfAvwf2lw6kco4fgTloSWn+L/DfSwcR0B344y8puOXEReleBzxM+rFwmW7ZC2yc6shoEscPqWIm8DC8DvgCzdR06R/IsS4ngF3445+T40dgXr+pX2oSeg7ktQ34BPAfaR5Re33RaOr3E5q7/R+mudTyWNlwRsfxIzAPXv1MYEltOX4E5k2AkiQFZAEgSVJAFgCSJAVkASBJUkAWAJIkBWQBIElSQBYAkiQFZAEgSVJAFgCSJAVkASBJUkAWAJIkBWQBIElSQBYAkiQFZAEgSVJAFgCSJAVkASBJUkAWAJIkBWQBIElSQBYAkiQFZAEgSVJAFgCSJAVkASBJUkAWAJIkBWQBINVlO7AT2A8cA5YLL8dOxrID2NbhfkuSVkgdwFWHjcAe4ATlf/RXW5aA3cBCR32g/Bw/pIqZwOO3EXiY8j/w0y4PYRFQC8cPqWIm8PjdQfkf9VmXXZ30hHJz/JAqZgKP23aGPe2/2rIEbO2gP5SX40dg3gQoDduN1Jmnc8ANpYOQtLoaBxYpkg+UDiDBlaUDkLS6daUDULLUaTjPgWFbBDaVDqKlRWBz6SC0JsePwDx49TOBx63266yeX8Pm+BGYlwAkSQrIAkCSpIAsACRJCsgCQJKkgCwAJEkKyAJAkqSALAAkSQpovnQAkjqV+px27e8hkLQKZwAkSQrIAkCSpIAsACRJCsgCQJKkgCwAJEkKyAJAkqSALAAkSQrI9wCob3PApcD7gIuBC4FzgTcAm4AN5UIbpdLP8Zduf2iOAz8GfgQcBJ4AHgceAf4ROFEuNEWT+pIQlZc6wPZxDiwAVwF/CFwJbO6hTak2/wrsBb4G3A/8ooc2axg/1BEPXv2GnMC/CdwEfAp4Y4ftSGPzA2APcDvwSoftDHn8UMc8ePUbYgK/HvgszY//pg62L0WxCOwA/hT4SQfbH+L4oZ548Oo3tAS+nuavlvMyb1eK7Fngj4F7M293aOOHeuRTAMplI7ATuAt//KXctgD3AP8TOK1sKBoLq7f6DaGCP4dmcHpXhm1JWts/0My0vZhhW0MYP1SIB69+pRP4AuBvgN9K3I6k6T0LfBB4MnE7pccPFeTBq1/JBH4H8G3gzYkxSJrdyzTv03gqYRsWAIF5D4DaOofmL39//KUy3gw8AJxdOhDVyQJAbbyO5pr/+aUDkYI7n+bG24XSgag+FgBq41a84U8aivcAf1Y6CNXH6zf16/sa3nXA3YltSsprGbgWuK/Fein8DamYB69+fSbw64H9OPUvDdFzwFaajw1NywIgMC8BaBafxR9/aajOAz5TOgjVw+qtfn1V8GfRPHt8RmJ7krqzSFMIHJny/zsDIFVsOXGZ1ucztLVyOQDsAj4EXAScPvPed6+v/lUMp9Oc61cBu4GD5M+rm2eIx/NbqlgfCbxA83nSXAPUIeBGYK7tTvfIAVJdmgc+DjxPvvx6GdgwZfue31LF+kjgj2Ro59RyF3VdRnCAVB/OoHm6JleeXTtlu57fUsX6SOC/ytDOMs1ngmu78dQBUn1ZT3NJLEeufWPKNj2/pYp1ncBzNDcUpbZzH3VM+a/kAKk+raeZJUs9744wXb55fksV6zqBL8vQxiHqmvb/dQ6Q6ttm4AXSz71Lp2jL8zuw2qZj1b/3ZdjGzTSPJ0ma7ChwS4btXJ5hGxoxCwBNcnHi+geBr2aIQ4rkyzRPBqS4KEcgGi8LAE2SOojcCZzIEYgUyBLNvQApLswRiMbLAkCTnJu4/v1ZopDimfXDPiu9LUsUGi0LAE2yOXH9p7JEIcWTmju13nirnlgAaJJNieu/mCUKKZ7UewBSi3eNnB9yqF/qoziTzoGutz900fdfZZnf6owzAJIkBWQBIElSQBYAkiQFZAGg2mwHdgL7gWMnl/3ADmBbwbiiWNn/k14Vm/v4RG9fkn6l63d5D+Vd4RuBPTQvFVqtrSVgN7CQsd2h7H9p0/T/pCXl+ERtP0p+S2ohwgCxEXh4hjYfIl8RMIT9L23W/s99fCK3HyG/JbUUYYC4o0W7uzK1PYT9L61N/+c8PpHbj5Dfkloa+wCxnXbTrkvA1gztl97/0tr2f67jE739see3CvImQA3djbQ7T+eAGzLHElHb/p9k2uMTvX1JWtXY/0J4LKHtRzO0X3r/S0vp/xzHJ3r7Y89vFeRrHOuXmoRDf1XoIu2/R7BI+vvQS+9/aSn9P822Jx2f6O2PPb9VkJcANHQpA5R/oaTrsg+n/Qs1cvtSZywANHQHE9Y9kC2KuFL6f5Jpjk/09qXOWABo6PYmrPtAtijiSun/SaY5PtHbl6RVjf0moW00j0zN2u4ScEmG9kvvf2lt+z/X8Yne/tjzW1KCCAPE7hbt7szU9hD2v7Q2/Z/z+ERuP0J+S2opwgCxADw4Q5t7gQ2Z2h7C/pc2a//nPj6R24+Q35JaijJALNC8PnWt6dglmr+scv34s0Zb0QbIafp/0pJyfKK2HyW/JbUQbYDYCtxG8xKVxZPLo8Ct5Lnmv9LQ9r+0lf0/af9zH59o7UfLb/XIlzjULzUJfVHI2qLvv8oyv9UZHwOUJCkgCwBJkgKyAJAkKSALAE1yPHH9M7JEIcWT+iGrn2eJQqNlAaBJjiWuf3aWKKR43pK4/mKWKDRaFgCaJHUQeXuWKKR4Lkhc3wJAa7IA0CSpX0O7JksUUjzXJq7/XJYoNFoWAJrke4nrfxiYzxGIFMg8cF3iNp7IEYjGywJAkzyeuP65wMdyBCIFcgPp9wCk5q6kgev6VZ7vydDG89T7NICvSlXfzgReJP3ce9cUbXl+SxXrOoHngCMZ2rn/5LZq4wCpPq0H7iH9vDvCdPnm+S1VrI8E/ssM7SzTfE2ttstODpDqy3pgN3ly7etTtun5LVWsjwS+PkM7p5Z7SH/BSZ8cINWHM4F7yZdn0z5B4PktVayPBN4AHM7Q1qnlBeAT1PF0gAOkujQPfJI81/xPLYdpcnYant9SxfpK4FsytLVyOQTsAa4GLgY2zbrzPXCAVE6baM71a2jO/UPkz6vPzRCP53dgfsu5fqlJOO05cBbwLPXezS9FcBTYQnMT4DT6Gj80QLXdkKVyXgF2lA5C0ppuY/offwVn9Va/Piv404D9pL+jXFJ+TwPbgJ/NsI4zAIE5A6BZ/BS4qXQQkl5lGfg0s/34KzgLAM3qr2me55c0HDuBb5UOQnVx+qZ+JabwFoBHaF4TLKmsvwfeDxxvsa6XAAJzBkBtHKd50ciTpQORgnsa+H3a/fgrOAsAtXUYuIrmpT6S+vcCcCXwUulAVCcLAKVYh1OAUinzTP/GP+lVLADU1jnAXuDs0oFIQb2J5iub5qBasQBQGxuBu4DzSwciBXcBcCfNjbnSTCwA1MatwLtLByEJgMuAPy8dhOrj9dv69f0Yz3XA3YltSsrvGuC+GdfxMcDAPHj16/tVwI/h1L80RM8BW4Efz7COBUBgXgLQLP4Ef/yloToP+EzpIFQPq7f6+TlgSaf4OWApkOXEZVqfz9DWyuUAzXcFPgRcBJw+8953r6/+VQyn05zrVwG7gYPkz6ubZ4jH81uqWB8JvAH4QYa2Ti2HgBuBubY73SMHSHVpHvg48Dz58usw078gyPNbqlgfCXx9hnZOLXdR12UEB0j14Qyap2ty5dm1U7br+S1VrI8E/maGdpaB26nvxlMHSPVlPc0lsRy59o0p2/T8lirWdQLP0dxQlNrOfdQx5b+SA6T6tJ5mliz1vDvCdPnm+S1VrOsEvixDG4eoa9r/1zlAqm+bab70l3ruXTpFW57fgdU2Hav+XZ5hGzcDixm2I0VwFLglw3Zy5K5GzAJAk1ycuP5B4KsZ4pAi+TLNkwEpUnNXI2cBoEkuTFz/TuBEjkCkQJZo7gVI8c4cgWi8LAA0yVsT178/SxRSPLN+2Gel87JEodGyANAkqTfvPZUlCime1Nyp9cZb9cQCQJNsSlz/xSxRSPGk3gNgAaA1+SGH+qU+ijPpHOh6+0MXff9VlvmtzjgDIElSQBYAkiQFZAEgSVJAFgCqzXZgJ7AfOHZy2Q/sALYVjCuKlf0/6VWxuY9P9PYl6Ve6fpf3UN4VvhHYQ/NSodXaWgJ2AwsZ2x3K/pc2Tf9PWlKOT9T2o+S3pBYiDBAbgYdnaPMh8hUBQ9j/0mbt/9zHJ3L7EfJbUksRBog7WrS7K1PbQ9j/0tr0f87jE7n9CPktqaWxDxDbaTftugRszdB+6f0vrW3/5zo+0dsfe36rIG8C1NDdSLvzdA64IXMsEbXt/0mmPT7R25ekVY39L4THEtp+NEP7pfe/tJT+z3F8orc/9vxWQb7GsX6pSTj0V4Uu0v57BIvA5sT2S+9/aSn9P822Jx2f6O2PPb9VkJcANHQpA5R/oaTrsg+n/Qs1cvtSZywANHQHE9Y9kC2KuFL6f5Jpjk/09qXOWABo6PYmrPtAtijiSun/SaY5PtHbl6RVjf0moW00j0zN2u4ScEmG9kvvf2lt+z/X8Yne/tjzW1KCCAPE7hbt7szU9hD2v7Q2/Z/z+ERuP0J+S2opwgCxADw4Q5t7gQ2Z2h7C/pc2a//nPj6R24+Q35JaijJALNC8PnWt6dglmr+scv34s0Zb0QbIafp/0pJyfKK2HyW/JbUQbYDYCtxG8xKVxZPLo8Ct5Lnmv9LQ9r+0lf0/af9zH59o7UfLb/XIlzjULzUJfVHI2qLvv8oyv9UZHwOUJCkgCwBJkgKyAJAkKSALAE1yPHH9M7JEIcWT+iGrn2eJQqNlAaBJjiWuf3aWKKR43pK4/mKWKDRaFgCaJHUQeXuWKKR4Lkhc3wJAa7IA0CSpX0O7JksUUjzXJq7/XJYoNFoWAJrke4nrfxiYzxGIFMg8cF3iNp7IEYjGywJAkzyeuP65wMdyBCIFcgPp9wCk5q6kgev6VZ7vydDG89T7NICvSlXfzgReJP3ce9cUbXl+SxXrOoHngCMZ2rn/5LZq4wCpPq0H7iH9vDvCdPnm+S1VrI8E/ssM7SzTfE2ttstODpDqy3pgN3ly7etTtun5LVWsjwS+PkM7p5Z7SH/BSZ8cINWHM4F7yZdn0z5B4PktVayPBN4AHM7Q1qnlBeAT1PF0gAOkujQPfJI81/xPLYdpcnYant9SxfpK4FsytLVyOQTsAa4GLgY2zbrzPXCAVE6baM71a2jO/UPkz6vPzRCP53dgfsu5fqlJOO05cBbwLPXezS9FcBTYQnMT4DT6Gj80QLXdkKVyXgF2lA5C0ppuY/offwVn9Va/Piv404D9pL+jXFJ+TwPbgJ/NsI4zAIE5A6BZ/BS4qXQQkl5lGfg0s/34KzgLAM3qr2me55c0HDuBb5UOQnVx+qZ+JabwFoBHaF4TLKmsvwfeDxxvsa6XAAJzBkBtHKd50ciTpQORgnsa+H3a/fgrOAsAtXUYuIrmpT6S+vcCcCXwUulAVCcLAKVYh1OAUinzTP/GP+lVLADU1jnAXuDs0oFIQb2J5iub5qBasQBQGxuBu4DzSwciBXcBcCfNjbnSTCwA1MatwLtLByEJgMuAPy8dhOrj9dv69f0Yz3XA3YltSsrvGuC+GdfxMcDAPHj16/tVwI/h1L80RM8BW4Efz7COBUBgXgLQLP4Ef/yloToP+EzpIFQPq7f6+TlgSaf4OWApkOXEZVqfz9DWyuUAzXcFPgRcBJw+8953r6/+VQyn05zrVwG7gYPkz6ubZ4jH81uqWB8JvAH4QYa2Ti2HgBuBubY73SMHSHVpHvg48Dz58usw078gyPNbqlgfCXx9hnZOLXdR12UEB0j14Qyap2ty5dm1U7br+S1VrI8E/maGdpaB26nvxlMHSPVlPc0lsRy59o0p2/T8lirWdQLP0dxQlNrOfdQx5b+SA6T6tJ5mliz1vDvCdPnm+S1VrOsEvixDG4eoa9r/1zlAqm+bab70l3ruXTpFW57fgdU2Hav+XZ5hGzcDixm2I0VwFLglw3Zy5K5GzAJAk1ycuP5B4KsZ4pAi+TLNkwEpUnNXI2cBoEkuTFz/TuBEjkCkQJZo7gVI8c4cgWi8LAA0yVsT178/SxRSPLN+2Gel87JEodGyANAkqTfvPZUlCime1Nyp9cZb9cQCQJNsSlz/xSxRSPGk3gNgAaA1+SGH+qU+ijPpHOh6+0MXff9VlvmtzjgDIElSQBYAkiQFZAEgSVJAFgCqzXZgJ7AfOHZy2Q/sALYVjCuKlf0/6VWxuY9P9PYl6Ve6fpf3UN4VvhHYQ/NSodXaWgJ2AwsZ2x3K/pc2Tf9PWlKOT9T2o+S3pBYiDBAbgYdnaPMh8hUBQ9j/0mbt/9zHJ3L7EfJbUksRBog7WrS7K1PbQ9j/0tr0f87jE7n9CPktqaWxDxDbaTftugRszdB+6f0vrW3/5zo+0dsfe36rIG8C1NDdSLvzdA64IXMsEbXt/0mmPT7R25ekVY39L4THEtp+NEP7pfe/tJT+z3F8orc/9vxWQb7GsX6pSTj0V4Uu0v57BIvA5sT2S+9/aSn9P822Jx2f6O2PPb9VkJcANHQpA5R/oaTrsg+n/Qs1cvtSZywANHQHE9Y9kC2KuFL6f5Jpjk/09qXOWABo6PYmrPtAtijiSun/SaY5PtHbl6RVjf0moW00j0zN2u4ScEmG9kvvf2lt+z/X8Yne/tjzW1KCCAPE7hbt7szU9hD2v7Q2/Z/z+ERuP0J+S2opwgCxADw4Q5t7gQ2Z2h7C/pc2a//nPj6R24+Q35JaijJALNC8PnWt6dglmr+scv34s0Zb0QbIafp/0pJyfKK2HyW/JbUQbYDYCtxG8xKVxZPLo8Ct5Lnmv9LQ9r+0lf0/af9zH59o7UfLb/XIlzjULzUJfVHI2qLvv8oyv9UZHwOUJCkgCwBJkgKyAJAkKSALAE1yPHH9M7JEIcWT+iGrn2eJQqNlAaBJjiWuf3aWKKR43pK4/tEsUWi0LAA0Seog8vYsUUjxXJC4/mKWKDRaFgCaJPVraNdkiUKK59rE9f3aoNZkAaBJvpe4/oeB+RyBSIHMA9clbuOJHIFovCwANMnjieufC3wsRyBSIDeQfg9Aau5KGriuX+X5ngxtPE+9TwP4qlT17UzgRdLPvUunaMvzW6pY1wk8BxzJ0M79J7dVGwdI9Wk9cA/p590PmW6G1/NbqlgfCfzNDO0s03xNrbbLTg6Q6st6YDd5cu3rU7bp+S1VrI8Evj5DO6eWe0h/wUmfHCDVhzOBe8mXZ9M+feP5LVWsjwTeABzO0Nap5QXgE9TxdIADpLo0D3ySPNf8Ty0vM31ueX5LFesrgW/J0NbK5RCwB7gauBjYNOvO98ABUjltojnXr6E59w+RP68+N0M8nt+B+S3n+qUm4bTnwFnAs9R7N78UwVFgC82Nu9Poa/zQANV2Q5bKeQXYWToISWu6jel//BWc1Vv9+qzgTwMeA85PbFNSfk8D24CfzbCOMwCBOQOgWfwUuKl0EJJeZRn4NLP9+Cs4CwDN6l6aZ5UlDccO4Fulg1BdnL6pX4kpvI3AI8C7E9uWlO47wO8Cx1us6yWAwJwBUBs/p3mM6fulA5GC+xfgI7T78VdwFgBq6zDN8/svlw5ECuol4IMn/5VmZgGgFE8Bv4MzAVLfngHeT5ODUisWAEr1DM31x++WDkQK4js0hfeTpQNR3SwAlMNLwH8A/hu+HlTq0pdoCm4vvSmZd3DWb2h38V5N85igLwuS8nma5jn/3I/6DW38UI+cAVBu9wFbgf8CLBaORardUeBmmjf8+Zy/srJ6q9+QK/jfoHlz4KeAN3XYjjQ2h4EvALvo9t3+Qx4/1DEPXv1qSOANNI8r/QHwezSFgaR/6xXgAeAvaP7aX+qhzRrGD3XEg1e/2hJ4Dvht4HLgIuBC4K3AG2g+NbzQczxSn47TXBr7EXCA5k7+x4FvA/8E/LLneGobP5SRB69+JvC4lT6+pdtXtzy+gXkToCRJAVkASJIUkAWAJEkBWQBIkhSQBYAkSQFZAEiSFJAFgCRJAc2XDkBSp/w6o6TX5AyAJEkBWQBIkhSQBYAkSQFZAEiSFJAFgCRJAVkASJIUkAWAJEkBWQBIw7ZYOoAER0sHIGl1FgDSsB0sHUCCA6UDkLQ6CwBp2PaWDiDBA6UDkKQxW05cNGzbgCXSj3PfyxJwSQf9obwcP6SKmcDjt5vyP+izLjs76Qnl5vghVcwEHr8F4EHK/6hPu+wFNnTSE8rN8UOqmAkcwwKwi2FfDlii+cvfH/96OH5IFTOBY9kK3AY8SvOIYOkf/cWTsdyK1/xr5PgR2LrSAShZahJ6Doyb54fW4vkRmI8BSpIUkAWAJEkBWQBIkhSQBYAkSQFZAEiSFJAFgCRJAVkASJIUkAWAJEkBWQBIkhSQBYAkSQFZAEiSFJAFgCRJAVkASJIUkAWAJEkBWQBIkhSQBYAkSQFZAEiSFJAFgCRJAVkASJIUkAWAJEkBWQBIkhSQBYAkSQFZAEiSFFAXBcB2YCewHzgGLAdfjp3six3AtoR+1Tj0nR+pzA/1yd+PSvNjI7AHOEH5ThvqsgTsBhZa9vFrSY1J/TA/yuSH1jaU8cP8qDg/NgIPU76DalkeIt9BTI1F3TM/yuWH1jaE8cP8qDw/7qB8p9S27GrV06+WGoe6Z36Uyw+tbQjjh/lRcX5sx2mbNssSsLVFf6+UGoe6ZX6UzQ+trfT4YX4UzI8cNwHemGk70cwBN5QOQp0zP9oxP2IwP9rJkh85Ov4DGbYR1ZWlA1DnzI/2zI/xMz/aS86PdRmCWAQ2ZdhORIvA5sRtpE7D5TgHtDrzo70c+aG1lR4/zI/2kvMjx+Cf4zpQZKnHoHQCa23mRxrPz26VHj/MjzRJ/e+1F0mSArIAkCQpIAsASZICsgCQJCkgCwBJkgKyAJAkKSALAEmSApovHQD1P+frc6zqkvkhrc78SOAMgCRJAVkASJIUkAWAJEkBWQBIkhSQBYAkSQFZAEiSFJAFgCRJAVkASJIUkAWAJEkBWQBIkhSQBYAkSQFZAEiSFJAFgCRJAVkASJIUkAWAJEkBzZcOQMW/l166fWktnp/D5vGpmDMAkiQFZAEgSVJAFgCSJAVkASBJUkAWAJIkBWQBIElSQBYAkiQFZAEgSVJAFgCSJAVkASBJUkAWAJIkBWQBIElSQBYAkiQFZAEgSVJAFgCSJAU0XzoAfNkOBgAABjBJREFUsS5x/dTvcae2r7X5vfQ0np/dKj1+mB8FOQMgSVJAFgCSJAVkASBJUkAWAJIkBWQBIElSQBYAkiQFZAEgSVJAFgCSJAVkASBJUkAWAJIkBWQBIElSQBYAkiQFZAEgSVJAFgCSJAVkASBJUkDzpQPA70FLazE/pNWZHwmcAZAkKSALAEmSArIAkCQpIAsASZICsgCQJCkgCwBJkgKyAJAkKaAcBcBihm1EdbR0AOqc+dGe+TF+5kd7yfmRowA4mGEbUR0oHYA6Z360Z36Mn/nRXnJ+5CgA9mbYRlQPlA5AnTM/2jM/xs/8aG8Q+bENWKJ5JaPL9MsScEmL/l4pNQ51y/womx9aW+nxw/womB85ZgD2A1/MsJ1ovgD8c+kg1Dnzox3zIwbzo51B5ccC8CDlq6Jalr3AhlY9/Wqpsah75ke5/NDahjB+mB8jyI8FYBdO56y1LAE7yXvwUmNSP8yPMvmhtQ1l/DA/RpIfW4HbgEdpHvEo3Wmll8WTfXEr3VzTTI1P/TI/+s0PrW1o44f50WN+rMu9QfUuNQk9B6S4HD8C802AkiQFZAEgSVJAFgCSJAVkASBJUkAWAJIkBWQBIElSQBYAkiQFZAEgSVJAFgCSJAVkASBJUkAWAJIkBWQBIElSQBYAkiQFZAEgSVJAFgCSJAVkASBJUkAWAJIkBWQBIElSQBYAkiQFZAEgSVJAFgCSJAVkASBJUkAWAJIkBWQBIA3LdmAnsB84BixXvhw7uS87gG0Z+0mSwksdoDUMG4E9wAnK/2h3tSwBu4GFTH2mdI4fUsVM4PptBB6m/A90X8tDWAQMheOHVDETuH53UP5Hue9lV5aeUyrHD6liJnDdtjPuaf/VliVga4b+UxrHj8C8CVAq60Zi5uEccEPpIKTIIg480pB8oHQABV1ZOgApsnWlA1Cy1Gk4z4GyFoFNpYMoZBHYXDqI4Bw/AnMGQCor8nXUyPsuFWcBIJV1sHQABR0oHYAUmQWAVNbe0gEU9EDpACSpZj7GU7dtNI/ElX4sr8RjgJdk6D+lcfwIzBmA+h1PXP+MLFGorf3AF0sHUcAXgH8uHURwqTdg/jxLFJJa+yFpFfw7+w9ZKywAD1L+r/K+lr3Ahiw9pxQXk3YcD/cfsnJyBqB+RxPXf3uWKJTiOHA1zYdyThSOpUsngNtp9vUXhWMRXJC4/mKWKCS19r9Iq+J39x+y1rAVuA14lGaALf3XeuqyeHJfbsVr/kOT+g2Kv+0/ZEm/7kukJfFBYL73qCWVNA8cIm3siHjvyqh4CaB+jyeufy7wsRyBSKrGDcBbEreROvZISvQe0qdpn8enAaQozgReJH3cuLTvwCX9W3PAEdKT+f6T25I0XuuBe0gfL36IM8jSIHyTPDds7cKklsZqPc1NvznGiq/3HLukVVxPnqRepvnrwC+0SeNyJnAv+caJa/oNX9JqNtC8lCNXcr8AfAKfDpBqNw98kjzX/E8tL+PYIA3KLeRL8FPLIWAPzYtbLibud+ulWmyiydVraHI39VG/11o+19veqFPrSgegbM4CnsW7+SV15yiwhebGY1XOG77G4xVgZ+kgJI3abfjjPxrOAIzLacBjwPmlA5E0Ok/TfL76Z6UDUR7OAIzLT4GbSgchaXSWgU/jj/+o+OKX8XkSeCNwWelAJI3GDuALpYNQXl4CGKeNwCPAu0sHIql63wF+l+az1RoRC4DxehNNEfCO0oFIqta/AO8FXiodiPLzHoDxOkzz/P7LpQORVKWXgA/ij/9oWQCM21PA7wDfLx2IpKo8A7yfZgzRSFkAjN8zNNfvvls6EElV+A7NHw5Plg5E3fIpgBiOAV+huTnwvXjvh6TX9iXgP9G88U8j5w9BPFfTfBLUlwVJOuVpmuf8v1U6EPXHGYB4vk9T5Z8A3kUzKyAppqPAfwX+M/C9wrGoZ84AxPYbNG8O/BTNY4OSYjhM82KfXfhu/7AsAASwgeZxnz8Afo+mMJA0Lq8ADwB/QTPVv1Q2HJVmAaCV5oDfBi4HLgIuBN4KvIHmU8ML5UKTNMFxYBH4EXCA5k7+x4FvA/8E/LJcaJIkSZIkSZIkSZIkSZIkSZIkSZIkSZIkSVrN/wP0h3TloToGxAAAAABJRU5ErkJggg==;" vertex="1" parent="1">
                    <mxGeometry x="630" y="200" width="122" height="122" as="geometry"/>
                </mxCell>
                <mxCell id="142" value="" style="shape=image;verticalLabelPosition=bottom;labelBackgroundColor=#ffffff;verticalAlign=top;aspect=fixed;imageAspect=0;image=data:image/png,iVBORw0KGgoAAAANSUhEUgAAAgAAAAIACAYAAAD0eNT6AAAABHNCSVQICAgIfAhkiAAAAAlwSFlzAAALEwAACxMBAJqcGAAAABl0RVh0U29mdHdhcmUAd3d3Lmlua3NjYXBlLm9yZ5vuPBoAACAASURBVHic7d13uCVVmajxt3OE7ibnLAiIElVAERRREZ0RxCyDAeMoF8fBrKjX7DgXxzGMOEYcAdMAiookJcgIKEnJNEkQumkynff9Y/UeN4cT9j5nr/2tqnp/z/M98AzjqRWqVn27atVak5DUBNsCLwKeCewEbATMBx4G7gWuAy4GfgX8FlgdU0xJkjRRk4BDgPNIN/RWl3EL8G5g7uCLLEmSJmIH4By6v+kPF7cDhw664JIkaXxeCTzIxG7+nfEZYPJAayBJknpyDL097u82TgNmDbAekiSpS0eR5+bfjhNJ8wokSVIh9gKWke/m3473DapCkiRpdDOAa8l/828Bq4AnD6ZakiRpNMcymJt/O84YTLUkSdJIZgF/ZbAJQAs4YBCVkyRJw3slg7/5t4BTBlE5SZI0vB8TkwA8CsweQP0kSdIQk0nr+EckAC3gwPxVlJSLq3tJ1bU5sCDw+H4NIFWYCYBUXdsEH3/b4ONLmgATAKm61m748SVNgAmAVF3Tg48/I/j4kibABECSpAYyAZAkqYFMACRJaiATAEmSGsgEQJKkBjIBkCSpgaZGF0A9mQZsAKwk7QAnSdHWAeYDS9aEKsIEoGx7AYcB+5FWXdug47+tAO4G/gicTdqd7bZBF1BSo8wB/h54AbA3sCmPXQ9iKXAHcBHwc+C/gUcGXEapsiYBryDd2HvZmGUV8BNgj8EXWUEOJ24joBZwcv4qqhDrA58D7qe3c+Q+4NOkpwSSRrEDcAETG5RXAV8F5g647Bo8EwANwhuY+K6Ti4AjBl1wqSpeCjxI/wbna0kJherLBEA5zQBOpL/nzLeJX8JaKspbSL/c+z1A3wPsNsB6aLBMAJTLLOAs8pw3ZwKzB1cVqVxHAavJN0jfBWw9sNpokEwAlMNk4FTynjtnAjMHVSGpRP9Anl/+Q+MS3LmtjkwAlMOHGMz580tMAtRQryF9zz+owfrDg6mWBsgEQP22E7CcwZ1DZ+CPEzXMyxnszb8FPAxsMojKaWBMANRvv2Tw59EPcU2aEC4FPHh/B3wPmDLg484Gjh7wMSVVx27AQQHHPYz0dYD3owGzwQfrAOAHxGW7rws8tqSyvSHw2K8CvhR4/EYyARicPUnLYkZOelkf2Dfw+JLKNAk4NLgMbwU+HlyGRjEBGIwdSZNd1oouCLB/dAEkFecJwMbRhQA+CBwTXYimMAHIb3PSzX+96IKssV10ASQVZ9voAnT4F+DI6EI0gQlAXusCvwK2jC5IhxKyfEllKekLoUnACaRdB5WRCUA+s0jv/J8YXZAhNoougKTibBhdgCGmkL6W2iu6IHVmApDHZNLJW+KEu2XRBZBUnKXRBRjGHODnwPbRBakrE4A8/pX4GbUjuTO6AJKKc1d0AUawHikJKO0JRS2YAPTfe4B3RhdiFKVe6JLilPzDYFvgp7iDYN+ZAPTXocAnowsxhsujCyCpOJeTdiUt1dOB7+I9q69szP7Zk2qcoGdFF0BSce6l/B8HhwIfiy5EnZR+s6qKTUkz/kt/RHUl8KfoQkgq0g+iC9CF95N2UlUfmABM3Czgx5T1He1IXGtb0ki+Qdo1tGSTSOV8VnRB6sAEYGLan/s9NbogXbgF+E50ISQVazHwlehCdGE6aSvqrYLLUXkmABPzYcr93G+oYyjzW19J5fg4cEd0IbqwAfATyn/tqpr6O2AV0KpAnJCpDRTrcGLPq5PzV1EBDgBWEj9udRPfz9QG0oh2AO4j/uTvJs4jdgti5WMCoFzeQvzY1W28O1MbSI8zD7iW+JO+m/gDMD9PM6gAJgDK6SPEj2HdxErgwExtIP2vycDpxJ/w3cTVwPp5mkGFMAFQbp8jfizrJhYBW2dqAwmADxF/oncTN1CNzxI1MSYAym0S8GXix7Ru4o+kz7KlvqvKxJjbMBNuChMADcIk0kTi6LGtm/hypjZQg20I/IX4k3us+CuwY6Y2UHlMADQoU0grBUaPcd3EazO1gRpoCvBr4k/qsWIJsFumNlCZTAA0SNOoxhyoh4CdMrVBrbgQ0Nj+L/Cc6EKM4X7guaRZ/5KUwwpS0nlucDnGMoeUnM6JLoiq7SDSFpnRGe1o8TCwX64GUNF8AqAIc4DfEj/2jRUugKZx2xC4i/iTeLRYTvrlr2YyAVCUBaTdRaPHwLHiZbkaoA58BTC89qzXDaMLMoZ3AGdGF0JS4ywBng/cHl2QMXwNNw0akQnA8N4FHBJdiDF8nHRyS1KEO0h7opS8hfB84CTSBEZpTLsDy4h/dDVa/ID0lELN5isAleCFlL9Gykez1V61MQu4hviTdbT4DTAjVwOoUkwAVIqjiR8bR4uVwD7Zaq9a+CLxJ+pocQOu769kCvBWYs/HX+BOk/qb0sfPG4G1stW+gnyM/DfPJi34U2qbLAb2Bq6PLogGZhawM2n76a1ISzxvtSa2oJz3mncCC9fEzWv+eRNwBXBPVKE0cJOBH5PmBZTqK8DbogtRilJvdoM2jzRYbRFdkBEsJS1GdGF0QZTNJqTVy3YG9lgTO5B+6VfZEuBPwKWkHSrb//5oZKGUzWzgHOCp0QUZQYs0wfvn0QVROb5F/OOpkWI18OpsNVeE2cCzgA8APyPdJKPPs0HGcuB3wBeAQ4GNJtacKszGwC3En2cjxR3AOtlqr0p5MfEn5Gjh7NXqWwAcBvwrcDHpBhh9XpUWNwDfBt4MbDe+ZlZBdgMeIf68Gim+l6/qqop5pO1zo0/GkeJXVP8RcFPtDLyHtFCTN/ze40bSOheH48Stqno18efRaFHyXAUNwDeIPwlHioXAetlqrn6bS1p29JukSXHR50+d4hHSO9t3AFt22yEqwleJP39GijtICwWpgZ5NuRv9PEqaBKayzQReBHwHeJD486YpcTVwHLDNmD2kaNOA84k/Z0aKr+aruko1h/SIMfrkGylel6/qmqDOm/4DxJ8rTY9LSIvQbDJapynU5sDdxJ8rw8Vq4MB8VVeJSl6w4isZ663x253UN/cTf44Yj49VwBmkrwpKWR9Bf3Mg5S4XfD1pzQ01wJ6UeyJejMv8lmQt4E2U/QjTeHzcBRxPmoipcryP+HNjpPhExnqrEFNIi5BEn2zDxSLctrIUe5K2g/a9frVjNXAW8HJ8KlCCScAPiT8vhotlpIW4VGPvJP5EGy5WkiYlKs5k0mPK04g/H4z+x52kiYMLUKR5wHXEnw/Dxbm4Om5tbQTcR/xJNlwcl6/aGsMM4AjSzPLo88DIHw+QXg+Uuux3E+xGuVuu/0PGeivQycSfXMPF7/HxZIR1SYlXqbOTjbyxHDgReAqK8F7iz4HhYhGuv1I7BxF/Yg0XD+Kyp4M2l7RCX9PW3zeGj9Wk1z67okGaTHrkHt3/w4VrA9TIVOBK4k+q4eINGeutx5pDuvHfS3y/G+XFKtJTwu3RoGxGmdfjKtJEYNXAMcSfUMPFT3NWWv9rBulTPpfnNbqJdiLgk7nBeCnxfT5cXIATAitvA8p81PtXYMOM9Va6eF8D3E58fxvVi2XA50iz1pXXicT393DxipyVVn4nEH8SDY3VwME5Ky32xMV7jP7EItJSw+7Kmc880uZn0X09NG4jvTpUBe1OepwXfRINjeNzVrrhNiFtIVtivxvVjj8Bz0O57EeZ1+3HclZa+fya+JNnaFyNa07nMB34IPAQ8X1s1DtOIW1uo/77FPH9OzQewTUjKucQ4k+cobECt/jNYW/gKuL712hOPEz6osTXAv01nTK/2PrPnJVWf02hzBvC53NWuoFmA5+m3I2djPrHhbjhUL89jfKu6VWkV8qqgDcTf8IMjYWkBWjUHy+gzElDRvNiOSkRdRfP/vkS8f06NM7KWmP1xVzgL8SfLEPjkJyVbpAFwPeI70/DGBpXAXuhflibNAM/uk+HxkE5K62J+xDxJ8nQODFrjZtjH+Am4vvTMEaKFaT9JZwbMHF/T3x/Do0/kJYwVoHmU96ykotJixFp/KaSBtXS3gsaxkhxIbANmqgfEd+XQ+NlWWuscfs08SfH0DgyZ4UbYAfgEuL70TB6jfuAV6OJ2JjyVnK9lvSjRAVZn7SzXvTJ0Rnn4FrSE3EU6XOr6H40jInEt3AC8ES8jfg+HBpH5qywevdF4k+KzlhK+vWq3s2kzCWcDWO8cQ2wIxqPycBvie/DzlhIWrNABdiCdMONPik64/1Za1xfmwMXE99/htHveAA4DI3HzqTPLaP7sDPelrXGA1KHR9RfAd4SXYgON5Oy/WXRBamYg4DvA+tGF6RiVpF2PFy4Ju4G7iFNQO2MZWvikTX/u4dIs9YhfV4JMI30uHoSqR/WBdbr+Pf1SUnaVsDWuKx1r1rAJ4CPkDYFU/eOB94ZXYgOt5O2jK70OF/1BGBj0qdhM6ML0uGlpNmr6s4k4L3Ax/HzqdHcD1xBWir1CuB60g3/Nv52Ix+0jUjJwDbALh3h2umj+wVpguC90QWpkAWkc76kHwhvIW0+piDHE/8oqDMuoPpJ1SDNBE4ivt9KiwdJK499FHgR6SZbJfNJu7sdTerf24lv09LiBpwn1Kujie+3zrgF5wKE2ZCyZomvwpXAerEeKWGK7rcSYhHpRvlO0oZRdfzMaCvSr95/J31KFd3mJcRiUqKk7kwl7aga3W+dcWTOCmtknyO+8zvjm3mrWyvbkmZGR/dZZFxNWrviQNK796bZGngTcDLp9UZ0f0TFMuA1E2zLJnkR8X3WGTdQz4S9aOtS1nf/DwGbZq1xfTyD9Is3us8GHcuBM4DX4eqQQ80Enkf6/HMx8X016FgNfGDCrdgcZxLfZ53xqrzV1VAfIb7TO+NDeatbG6+gvE82c8ZK0mB1FGVNXirZNNJuj9+ivFXgcsc38NdkN3YiTXyN7q92XIFzvwZmJnAX8Z3ejtuBOVlrXA9vJs2TiO6vQcS1wD+T5qlo/GYAhwO/ojnnzk9xa+FufI34vuoMdwockLcS39md4XrfY3s76TFndF/ljKWk99kH4q+BHDYD3kOaeR3d17njHFw+eCwbkPZbiO6rdpyZt7qC9J34dcR3djsuwcF+LCVu0dzPuIO0joGP+AdjKmlFvQuJ7/uc8Rtg7T61WV29n/h+6ozd8lZXLyW+kzvjhXmrW3kfI76PcsXlpFnsJS1C1TR7AN+hrPfB/YxLSJ/LanhzSStfRvdTO07MW11dRHwnt+N/8Nf/SCYB/0Z8H+WIc0jv++z7cmxHWhJ8GfHnR7/jcpxLMpr3Et9H7ViBq2BmswfxHdwZB+etbqWVtkZDP+Ii0jfIKtcWpMlhdXsicAW+YhrJHOCvxPdROz6Vt7rN9V3iO7cdvvsf2SeI759+D76H97WFlNtWpERgJfHnT7/iD6QllvV4xxLfP+24F5idt7rNswHwKPGd247n561uZZU2KWcicTPpxm+iV107A78k/lzqV/wGby7DKe0pwBvzVrd5Pkx8p7bjosx1rap3EN83/YiHgeNwcl+dHAhcRfy51Y84E8/N4byb+L5px5X4w6FvplHWbmIu+PB4R1L97/xXk77jdxJPPU0j7SZX0rfj442f0sz9I0Yzm7IWiNs/a20b5GXEd2Y7Lshc1yp6IdV/13o9cEC/G0ZF2pD06WD0OTfR+Ea/G6YG3kV8v7TjlMx1bYyziO/MdhyYua5VswdpI6TofhlvrCDtyOcj1eY5BLiV+HNwIvH+vrdKtc0kLcwV3S8t0uZfG+etbv09gXIeLfvu/7E2o6xXM73GH4Dd+94qqpJ5wPFUd5+B1cBr+94q1fZPxPdLO96bua6191niO7EdL81c1yqZT3UnVS0nbb06pe+toqo6kOoms0uBZ/a/SSprLcqZ53EjMDlvdetrOuV82rEQt+lsm0banS26T8YTNwH79r9JVAPzge8Tf46OJxYDO/S/SSrrX4nvk3b42nicXkF857XjmMx1rZITiO+P8cQJuMOaxvZGqjmv5QZgnQztUUVbUc7E5JPyVrW+ziS+81rA/aR3hYI3E98fvcYDuJKferM9aQXI6HO31/g5PnJu+yHx/dEi7U/hhk492pRyMrgvZK5rVTyN9L4xuj96iWtJq8FJvZoJfJP4c7jX+FiOxqigfYnvi3b8Y+a61k4pS8quBLbJXNcq2BC4jfj+6CVOxSc3mrg3kSaORp/P3cZq4NAsLVE9vyO+P1rA73NXtG7+THyntXAxB0iTH88hvi+6jVWkz29cilP9sh9lrTI3ViwhfULddCXNI9slc11rY2/iO6sd+2SuaxV8gfh+6DYeJa0cKfXbpsAfiT/Hu40/kz6Ja7KpwC3E90WL9Em7uvBV4jurhY9tAF5AOQsxjRX34Cd+ymst4Aziz/Vuw+WC4Z+J74cW6QmSn5KPYTrpm9bozmoBr8pc19JtQHUee16Hjzw1GFOBrxF/zncbL8/TDJUxn3I+63QjuTG8iPhOapGSkCavDz8J+AXx/dBNnAcsyNMM0rAmAR8l/tzvJu4lLdvdZN8mvh9a+ERmTN8jvpNawBdzV7RwxxDfB93E2bi4j+K8nWq8IvsNzV76ej/i+6BFmpw5I3NdK2smadGd6E5qAbtmrmvJdgYeIb4PxorTaPZTGpXhTVRjM6H35GqAiijly7IX565oVR1OfOe0gEtyV7RgM4Erie+DseL7pD0JpBK8lrS1dPR1MVosI23f3VTvI74PWsCJuStaVaUs3fjW3BUt2CeJb/+x4ts0+3GmyvRSyk8CriBNtG6ijSijfx4C5mSua+XMoYzHzo+QZo020ZMpf8WzH+GnNCrXayj/dcCHstW+fKcR3/4t4LDcFa2aw4jvlBbw3dwVLdQU0roH0e0/WvwCJ9CofK+n7ImBS4GdstW+bC8hvv1bpMnu6lDK7P/9M9ezVKUsljFS/Bon/Kk6jib+mhktLqKZuwZOBe4kvv3vo7mvYh5nGulb1ehOuYlmrh+/LfAw8e0/2mDlOzNVzceIv3ZGi6bOdfoc8W3fwkWB/tdzie+MFvCB3BUt0CTgLOLbfqS4AVg/W+2lfCZRzgI0w8X9NHOBoB2Jb/sW8JXcFa2KrxDfGS2aue3vK4lv95FiMbBDvqpL2U0DziT+WhopfpCv6kW7jPi2v4tmvoZ5jEmUsc98Ezf+mQUsJL7th4tlwLOz1VwanLVJn99FX1MjxX75ql6s9xPf7i3gabkrWrpdie+EFnBs7ooW6CPEt/twsRo3YlK9bEW5G2tdSvN+iT6B+HZvAcdlrmfxSsnEts1d0cJsRjk7ZA2Nz2SstxRlH9KTrejra7h4fcZ6l+qPxLf7xdlrWbjfEt8Jl2avZXm+T3y7Dxdn4UI/qq9SN9n6KzAvY71L9EHi230VsGHuipZqAWUszfi+3BUtzN6UuVDJrTjjX/VX6pcBTXvytj3xbd4Cjshd0VK9gvjGb9G8meYXEt/mQ2MpsFfOSkuFmEOZG24tBbbIWO8SldAP/5W9loX6FvGNf3nuShbmYOLbfLh4e85KS4XZgTLn4Hw9Z6UL9BHi23wxDd3crITP/z6YvZblmAT8D/FtPjTOoJkrMKrZ3kT8tTc0ltOsCdE7E9/mLWDP3BUtzROJb/QWaVWopihlI4zOuJu0TafURCcTfw0OjW9nrXF5ria+zd+TvZaFeRvxjX519lqWYzJlfPbSGauBQ3JWWircAtLk1+hrsTNW0qwfRh8nvs3PzF7LwvyY+Eb/fPZalqOUCZed8aWsNZaq4UDK+yqnSUsE70t8ez9KWpm1EaaQJj5EN3pTdmOaDPyZ+PbujJtxhz+p7WvEX5OdsQp4UtYal2MqaXve6DZvzNLnexLf2I/QnIzrUOLbe2g8L2uNpWpZG7id+OuyM5o0F+BHxLf3J7LXshDvIr6xf5G9luW4gPj2burAInXrEOKvzc5YDmyetcbleDPx7X1e9loWooT3/8dkr2UZ9iK+rTvjHlztTxpJCb9EO6MpqwNuRXxbLwVmZq5nuEmkdaejG3vn3BUtxCnEt3VnvDpvdaVK2xi4n/jrtB1LgLWy1rgc1xLf3vtmr2WwEr7/v51mLDyzNemTnuj2bseFNKPdpYn4Z+Kv1c54V97qFuPfiG/r2q8H8EbiG/kb2WtZhi8R39btWIVr/UvdmE4Zv0bbcRswLWuNy1DCHIzTstcy2LeIb+SX565kAdamrLXG/zNvdaVaeTHx12xnvCxvdYswF1hGbDvfS/psu7auIbaBV9GMSWhvJX7QaMcDpHebkrr3C+Kv3Xb8KnNdS3EO8W39xOy1DDKPdAOObNxLs9eyDJcRfyK34wOZ6yrV0ZMoZw7PKmCbvNUtwgeIb+sjsteywyAfN+w14OMN54Lg4w/CnsBu0YVYYxHwxehCSBV0FXBSdCHWmAy8ProQA3BhdAGApw7yYIO8IQ+0YiO4KLoAA3BUdAE6fAp4MLoQUkUdR3oKUII3UP/JgP9DfHuXcJ/M4ifEP17ZKnclg82lnO+I/wLMzltdqfa+Sfy13I4XZ65rCaJfny6npsvUR691fWf+KoYr4TPLdrw9c12lJtiS+Nnp7aj9Z2rAvxPfzk/PXss1BvUKYCNg0wEdayQlvN/JbaATSEZxO3BCdCGkGriFcvbPeAGwQXQhMivhNfHugzrQoBKAXQd0nNGU0LE5bUI5S0keT/rVImniPg+sji4EaSv3w6ILkVkJPxSfMqgDmQDUx8uJ/8oC0qS/r0cXQqqR64BTowuxRt0XUrsJuCu4DANLAAblv4h9p1LbiRUdLiL+3VWL9GtFUn89g/hru0VaEyD6dW5u0RPWHyE9bcmuKU8ALgMeDS5DTpsDT4suBOkTGr/7l/rvfMp4ijmZ+r8GiG7nWcB2gzjQIBKA2cATBnCc0ZTwXienl1HGTns/BG6NLoRUU1+ILsAadX8NEJ0AwIB+NA8iAdiJAT3OGMUlwcfP7RXRBVjjK9EFkGrsp6T1NaLtTfo8sa4uJX7S5S6DOMigEoBoV0YXIKONgT2iC0HawvS30YWQamwl8J3oQpCeNh4SXYiMHiFNBoy04yAOMogEIHp3oxWkm1NdHUwZj/+/TprAIimfUq6z50cXILPoH421SQAGUpFRXEf6CqCuXhBdAFL7fje6EFID3AScG10I4ABgZnQhMroq+PjbMYC9F5qQAERncjlNBZ4TXQjSZzN3RxdCaogS1tmYAzwzuhAZXR18/GnAtrkPkjsBmEb8PtLRHZnTPsD86EJQzlKlUhP8hLTpV7QSnj7mEv0EAAbw4zl3AjCQxxhjKKEjcynhAlwCnBVdCKlBllLGxjx1ngdwHfHLmdciAYhW51cAJSQAP6becyykEp0UXQDSDSr6CW8uJUwer/wrgOwVGMPDwM3BZchlPeDJ0YUATokugNRAvyI9fYt2QHQBMop+epw9ucqdAERnh1cTv6BDLvsQ//nfInz8L0VYTloYKFopO5DmED1/zCcAExSdweW0T3QBSAPQyuhCSA1VwtO3OicA0fePTcn8qWXdnwBcE3z8nJ4RXQDgZ9EFkBrsHNKqdZGeAGwQXIZc/hR8/MnAVrkPkPNvb5Xx73djYfDxc5lB/PK/K0gDkKQYS4HzgsswiTKeRuZwK/GvkLM+Rc+ZAGxE/EpRC4OPn8sexLft+ZTxLbLUZL+ILgD1fQ2wHLgzuAxZN13KmQBslvFvd+uW6AJkUsIFd0Z0ASQVcR2W8Doyl+h7SNb7aJ0TgEeBe4LLkMvTogtAGb88pKa7HrghuAy7A9ODy5DLwuDjVzYB2Dzj3+7GLZSxa1YO0d//3038DFlJydnBx58O7BBchlyinwBkvY/mTAA2zfi3uxHdcbnMIf7zyguob3IlVc0F0QUg/kdJLtH3kco+AYh+BbAw+Pi57MJgdnEcTQkDjqTk/OgCkMalOloYfPzNyLjgW84bySYZ/3Y3bg0+fi4lZNomAFI5biJ+tnoJ41IO0U8AZgLr5PrjOROADTP+7W4sDD5+LtGZ9lLgsuAySHqs6KQ8elzKpYS5ZNkWWsqZAESvDhWdueUSfaFdgrv/SaWJTgA2I+Mv1UAlfE1WuQRgKrAg09/u1m3Bx88lOgH4Q/DxJT3eH6MLQPzYlEv0j8nKJQAbEL9T3d3Bx89hAfFZ9hXBx5f0eCVcl9F7v+TiE4AeRT/+f4T0rrputo4uAGUMNJIe617gjuAylDA+5XBv8PHXz/WHcyUA2QrcpegOy2Wr4OOvJn6PbEnDi07O65oALA4+fuUSgOjH1IuCj59L9AV2A/BwcBkkDS86Adgq+Pi5RCcAlfsMcH6mv9ut6A7LJevOUF3w179UrujluaN/oOQS/UQ52/00VwIwL9Pf7VZ0h+USfYHdFHx8SSO7Ofj4mxC/TXkO0T8os91P65oARHdYLtEJQPQAI2lk0dfnJGCL4DLkEH0/qdwTAF8B5BG9vHL097CSRnYn8V8/Re8Bk0P0/aRyCYBPAPpvKvGJla8ApHK1iE/S1w0+fg7R95PKJQBrZfq73VoSfPwc1iV+caXowUXS6BYGH3+94OPnED2nbBYwLccfzpUAzM70d7sVnbHlEP1p5WL8BFAqXXSSXscnAA8Sv//JrBx/tK4JQB1vVNGZdfRymJLGFr0GSh0TAEiry0aqVAKQpbA9iM7WcohOAKIHFklji376WdcEYFnw8U0AehDdWTlEX1jRA4uksUUn6tE/VHKJ/lGZ5al6XV8BRHdWDiXMAZBUtujrNHqcyiX6nlKpJwDRq0GtCD5+DtFJVfQvC0lji75Oo5/+5hL9VLlSTwCmZ/q73YrurByyfAbSg/uDjy9pbPcFH39G8PFziX4CMDXHH82VAEzJ9He7Fd1ZOURfWHVMqqS6ib5Oo8epXKLvKSYAPYjurBx8qiJpLNFjX/Q4lUt0u2a5p5oAVEd0Zl3HNpXqJjpRjx6ncoluVxOAHtTxZhWdWdexTaW6ib5R1TUBiB7/TAB6EN1ZOZgASBpL9HUaEuawCwAAGh5JREFUPU7lEt2ulUoAVmf6u91YRT0/A4z+CqCObSrVTfSNqq4JQPQ2y1nkSgAi1+J/MPDYkqT6eaiOx8+VAPwl09/txh2Bx5Yk1U/kPQ3g9hx/NFcC8KdMf7cbfw48tiSpfiLvacuBG3P84VwJwG8z/d1unBd4bElS/fwm8Ni/I9PcjlwJwGlAK9PfHk0LOD3guJKk+voLcGnQsU/L9YdzJQA3EvMU4FxgYcBxJUn19q2AYy4HTsz1x3MlAACfzfi3R/KZgGNKkurvm8A9Az7md4A7c/3xnAnAz4CzM/79oc4EfjnA40mSmuNh4LgBHu/B3MfLmQAAvBlYkvkYAPcCbxnAcSRJzfVV4NcDOtY/kfmz9twJwA3Ay4GVGY+xCngNcFPGY0iStBp4GXB95uN8Cfh65mMMzFtJDdfqc6yiOb/8T6b/7ddLHJ6/ipL6IHKciPj6K8KOwN3kab+fA1MHV5XBeCFwP/1rpAeBlwy0BrFMACR1wwRgMDYDLqG/bfc14vd9yeYpwJVMvJGuBnYZcNmjmQBI6oYJwODMJc3Un+gT7geBowZc9hBTgNcBt9F7I/0F+D/UOEMahQmApG6YAAzenqSv3nptq2XACcCmgy9yrJmkyRSnAIsYuYEWkW5+hwMzQkpaBhMASd0wAYjzNOCLwDWMftM/jzTLf+OYYiaREw2Wkm5qJwOTgM2BrYF5a/77/cDNwK0hpZMkqTcXrwmABcD2wDrAHOA+0lPsG8i0tn+vSplp2CLd6L3ZS5LqYAl/SwaKlHsdAEmSVCATAEmSGsgEQJKkBjIBkCSpgUwAJElqIBMASZIayARAkqQGMgGQJKmBTAAkSWogEwBJkhrIBECSpAYyAZAkqYFMACRJaiATAEmSGsgEQJKkBjIBkCSpgUwAJElqIBMASZIayARAkqQGMgGQJKmBTAAkSWogEwBJkhrIBECSpAYyAZAkqYFMACRJaiATAEmSGsgEQJKkBjIBkCSpgUwAJElqIBMASZIayARAkqQGMgGQJKmBTAAkSWogEwBJkhrIBECSpAYyAZAkqYFMACRJaiATAEmSGsgEQJKkBjIBkCSpgUwAJElqIBMASZIayASgOqYHH3958PEldWdl8PGnBh9fXTIBqI4ZwcdfFnx8Sd2Jvlajxyp1yQSgOqIvquhBRVJ3oq/V6KeV6pIJQHWYAEjqRvS1Gj1WqUsmANURfVFFDyqSuhN9rUaPVeqSCUB1RF9US4OPL6k7JgDqiglAdURfVNGDiqTuRF+r0WOVumQCUB3RF5WfAUrVEJ0AzAw+vrpkAlAd6wYf31cAUjVEJ+sLgo+vLpkAVMMsYE5wGUwApGp4JPj46wcfX10yAaiG6AtqGfBAcBkkdWdR8PGjxyt1yQSgGqIvqHuCjy+pe9HXa/R4pS6ZAFRD9AUVPaBI6l709Ro9XqlLJgDVEH1BRQ8okroXfb1Gj1fqkglANURfUNEDiqTuRV+v0eOVumQCUA0bBB8/elKRpO5FX68bBh9fXTIBqIZtgo9/d/DxJXUv+nrdApgSXAZ1wQSgGrYNPn70I0VJ3Yu+XqcDmwWXQV0wAaiG6CcA0QOKpO4tAVYGlyH6R4u6YAJQvvWA+cFluCP4+JK6txq4K7gMJgAVYAJQvhIupBujCyCpJ9HXbAnjlsZgAlC+7YKPfx9wb3AZJPXGBEBjMgEoX/SFdEPw8SX1zgRAYzIBKN8OwcePHkgk9S46cX8C3l+KZweVb/fg45sASNUTfd3OJSUBKpgJQNlmE38RRQ8kknpXwnUb/eNFYzABKNuuxK+oFf0oUVLvSpi8u1vw8TUGE4CylXABlfBLQlLvoq/dEsYvjcIEoGy7Bh//YeDO4DJIGp/rgo9vAlA4E4Cy7RF8/MtJq4pJqp7Lg4+/LrBlcBk0ChOAck0Hdgouwx+Djy9p/C6LLgA+BSiaCUC59gRmBJehhAFE0vhcBrSCy7BP8PE1ChOAcu0fXQDgD9EFkDRuS4Bbgsuwf/DxNQoTgHLtH3z85cDVwWWQNDHRSfzuxO9mqhGYAJRpGvGPzq4GlgWXQdLERCcAU4gfyzQCE4AyPRWYE1yG6IFD0sSVMI/nWdEF0PBMAMq0f3QBMAGQ6qCE63j/6AJoeCYAZdo/ugD4CaBUB38B7gouw+7A2sFl0DBMAMozi/h3ZkuBS4LLIKk/Lgg+/lR8DVAkE4DyHEjaBTDS70hJgKTqOy+6AMCLowugxzMBKM/fRRcAODe6AJL65tzoApASAO830igmkzbfaQWHj+uk+pgE/JX4cWXv3BVVb8zIyvJ0YKPgMiwFLg4ug6T+aQG/jS4EZTzdVAcTgLKUcIFchO//pbopYR5ACeObOpgAlKWEC+Tc6AJI6rtzowsAPBHYIboQ+hsTgHKUcnGU8EtBUn9dBSyKLgRl/MjRGiYA5XhVdAHw/b9UVy3KSO5fGV0AqTSTgBuJn6X7s9wVlRTmKOLHmBbwlNwVVXd8AlCG/YBtogsBnBpdAEnZnAqsji4E8NroAkgl+QbxWflqYLPcFZUU6iLix5q7SMsDS403C7iP+IvSd/9S/b2X+LGmBRycu6Iam68A4h0KzIsuBPDf0QWQlF0p1/kR0QWQSvBL4rPxFrBz7opKKsK1xI83jwLzc1dUo/MJQKytgOdEF4L0BcLV0YWQNBAlTPadiU8BwpkAxDoamBJdCMp5LCgpv1Ku93fgPUgNNZcyJv+1SJ8hSmqGUnYdbQEvzFxXqUj/SPzF1wLuoIynEJIG58vEjz0t0hwoqVEmAX8m/uJrAZ/NXFdJ5Xk68WNPO3bJXFepKC8g/qLz4pOarZQfIV/OXVGpJGcQf9G1gEtzV1RSsT5A/BjUAh4G1slcV6kIu5CW3Y2+6FqkrxAkNdMWwCrix6EWKRmRau8U4i+2FrAC2DBzXSWV7Wzix6IWsAhYK3NdpVA7U07GXcq3wJLiHEn8WNSO9+WtqhSrlF//LeCwzHWVVL45wIPEj0ctfAqgGtuFcn79LwZm5K2upIr4DvFjUjvem7muUoiSfv1/LnNdJVXHPsSPSe3wKYBqp6R3/yuBbfJWV1LFXEz82NSOYzPXVRqo04m/qNrx48x1lVQ9ryV+bGrHvcC6easrDcazib+gOuOAvNWVVEHTKWeDoBbw//JWV8pvCnAF8RdTO64i7UMgSUMdR/wY1Y4VwE5Zaytl9hbiL6TOeGPe6kqqsA2AR4kfp9pxat7qSvmsRVmP1O4FZmetsaSqK+mTwBZwUN7qSnl8jviLpzM+lbe6kmpgd+LHqs64GpiatcZSn20LLCX+4mnHctLGH5I0lvOJH7M64815qyv11y+Jv2g64+t5qyupRp5P/JjVGfcBm2StsdQnRxJ/wXTGclz4R1JvSnsKcFLe6koTtx5wD/EXS2f4619Sr15A/Ng1NP4ua42lCTqJ+IukM/z1L2m8SloeuAXcAczPWmNpnA4m/gIZGidkrbGkOnsh8WPY0PhS1hpL47A2cCvxF0dnrASekLPSkmqvtKcAq4BnZK2x1KOvE39hDI3/zFpjSU1wCPFj2dC4BpiTs9JStw4l/oIYGv76l9Qv/0P8mDY0/iNrjaUubAYsIv5iGBr/nrPSkhqltB1N2/HynJWWRjMZOIv4i2Bo3A9smLHekprnNOLHtqGxBNgyZ6WlkXyI+AtguPinnJWW1EjbAcuIH9+Gxm9I265LA7MX6Rv76JN/aNwIzMhYb0nN9f+IH+OGiw/mrLTUaQFwE/En/XBxaMZ6S2q2dYDFxI9zQ2MFsG/GektAeu//M+JP+OHi3HzVliQA3kn8WDdc3EWalC1l81niT/ThYhWwZ8Z6SxLAVOAq4se84eJSYFa+qqvJDgNWE3+SDxcu+iNpUEpcIrgd38lYbzXUbsDDxJ/cw8USYON8VZekxzmd+LFvpHhHxnqrYdal3El/LeCofFWXpGFtATxA/Pg3XKwADshXdTXFdNLkuugTeqQ4B5iUq/KSNIp3ED8GjhR3A1vnq7rqbhLwbeJP5JFiKbBjttpL0ugmA+cTPxaOFDfgqqgapy8QfwKPFu/LV3VJ6soTST9GosfDkeL3wNxstVctHUv8iTtaXA5My1Z7SereR4kfE0eLX5Ne50pjehXlfu7XIn3zv3e22ktSb6YDVxM/No4WJ+J8KY3h2ZS54UVnfD5b7SVpfJ5O+nESPT6OFp/KVntV3t7Ag8SfpKPFn4HZuRpAkiag9HlTLdwtVcPYG7if+JNztFhKWpBIkko0A7iM+LFyrHACtf7XPpR/828B78rVAJLUJztS7qqpnfH+XA2g6qjKzf+XOIFFUjW8mfgx0yRAo9qXcpey7Iy7ca1/SdVyEvFjp0mAhvVMyp/w1yJ9jvjCTG0gSbmsA9xG/BjaTRybqQ1UoOdSjV/+LeD4TG0gSbntB6wkfhztdqydnKcZVIrXk3aKij7ZuonLgZl5mkGSBuITxI+l3ca3cYXV2noPZa/w1xn3AtvlaQZJGpgpwBnEj6ndxq+BtbO0hEJMAb5M/InVbawCDs7SEpI0eOuQduaLHlu7jSuATbO0hAZqBnAy8SdUL+GEFEl182TgIeLH127jJmCHLC2hgZgH/Jb4E6mX+C/83l9SPb2M6ryGbQF/BXbN0hLKagHwO+JPoF7ij8CcHI0hSYX4JPFjbS+xhLRgnCpiI9I7nOgTp5dYBGyTozEkqSCTgdOJH3N7iYdIn4+rcPMof1/qobECOCBHY0hSgeYD1xE/9vYSDwN75mgM9cdU0pr50SdKr/GWHI0hSQXbEVhM/PjbS9wBbJajMTRxXyL+BOk1PpqlJSSpfE+lWl8GtICrcJ2A4hxB/InRa5yAM/4lNduLqc5ywe34XpaW0LhsQlo5L/qk6CVOI72ykKSmeyPxY3KvcXiWllDPfk78ydBLXIyf+0lSpw8TPzb3EvcAG2ZpCXXtH4g/EXqJPwHrZmkJSaq2rxA/RvcSP8jTDOrGTOBW4k+CbuMOYMssLSFJ1TcZOIX4sbqX2DtLS2hMxxDf+d3GPcCT8jSDJNXGTOAs4sfsbuOsPM2g0cwlrdMc3fndxN2kjTAkSWObDZxJ/NjdbRyUpxk0kqOJ7/Rub/67ZGoDSaqr2cCviR/DuwmfAgzYVcR3ujd/ScpnFtV4ErAa2D5TG2iIfYnvcG/+kpRfVZKAz+RqAD3WN4nv7NHirzjhT5L6ZRbwK+LH9rHG/Wm5GkDJZNKM+ujOHu0k8Je/JPXXDMrfRvhZ2WovIG0eEd3JI8VC4InZai5JzTYL+AnxY/1I8cl8VRfAh4jv5OHiStwmUpJymwL8O/Fj/nBxacZ6CziP+E4eGmcD83JWWpL0GB8kzb6PHv87YzWwfs5KN90S4ju5M35EWrlKkjRYRwDLib8PdMZzsta4wTYlvnM743jSpERJUowDgQeIvx+04x15q9tczyW+c1ukxzzH5a2qJKlLe1LO0vBfzlzXxvpH4jt3BfDq3BWVJPVkO+Am4u8R5+SuaD9V6RH2utEFID3eOTG6EJKkx7iB9JT4geBylHCf6lqVEoC1g49/JfDV4DJIkoZ3I/AvwWWIvk/1pEoJwFrBx/9h8PElSaOLHqdNADKJTgAWBh9fkjS6m4OPH32f6kmVEoBlwcevVGYnSQ00P/j40fepnlQpAXgw+PjPDT6+JGl00eN09H2qJ1VKAB4KPv4hwF7BZZAkDW8W8P7gMpgAZLIk+PiTSUv/7hBcDknSY80ifaIdPT5H36d6UqUE4IboAgCbA5cAHwV2BKbHFkeSGm0T0p4AfwBeElwWKOM+1bWp0QXowXXRBVhjLvDhNSFJUtu10QXoRZWeAFwPrIouhCRJIzAByGQZ8OfoQkiSNII/RhegF1VKAKBiGy1IkhrjL/gEICsTAElSic6KLkCvqpYAnIvzACRJ5TEByGwJcGZ0ISRJ6rAcOD26EL2qWgIA8N3oAkiS1OFUYHF0IXpVxQTgJ8D90YWQJGmNSv4wrWIC8CjwvehCSJIE3AqcEV2I8ahiAgDwGdI7F0mSIn0WWBFdiPGYEl2AcXoA2AbYLbogkqTGugs4ElgZXI5xqeoTAIBP4lMASVKcT5FeS1dSVZ8AANxL2gLymdEFkSQ1zlXAUcDq6IKM16ToAkzQLOBqYOvogkiSGqMFHACcF12QiajyKwBIj17+kdQZkiQNwglU/OYP1X4F0HY9MB94enRBJEm1dx3wUmowB63qrwDappGysb2jCyJJqq2lpB+bl0cXpB+q/gqgbQXwKtInGZIk9VsLeAM1uflDfRIAgIXAQcB9weWQJNXPscD3owvRT3VKAACuBF5CekwjSVI/fAn4fHQh+q1uCQDAucDfAw8Fl0OSVH3/ArwzuhA51GUS4HD2BH4OrB9dEElS5bSAjwHHBZcjmzonAAA7AD8FnhhdEElSZTxCWuWvVu/8h6rDOgCjWQz8J7AhsHtwWSRJ5bsGeB5wVnRBcqt7AgBpl6bTgNuA/YGZoaWRJJWoRVrh7zDg9uCyDETdXwEMtRFp7+bX0Ly6S5KGdwXwduD86IIMUh2/AhjNXcARwHOA3wWXRZIU6y7gaGAPGnbzB38FPwN4D3BIdEEkSQNzK/AF4D9Im8o1UtMTgLZdSU8GXkl6TSBJqpdlwOnAd4AzSEvIN5oJwGNNAQ4kLSn8bODJNO81iSTVxR3A2aQZ/acCS2KLUxYTgNGtBzyVtI7ADsD2pE8K566JBXFFk6TGe2hNPAzcA9xM+ozvWtKmPdfEFU3SIHyD9AlPZJyYvZYCOJT4vr4XnwyqBjyJVQcXRBeAtAnVvOhCNMBrowsAXAisji6ENFEmAKqDEhKAWaQFRJTP+sDB0YUgJQCSpAJMIr3/i340fDUm1Tn9X+L7uAU8K3dFJUndO5n4G0OL9I5a/bc2aQZ3dP8+BMzIXFdpIPy1oro4I7oAa3wIv67J4Z3A/OhCkD4pWxZdCEnS32xMmpgV/QuxRRnvqetkLmW84mkBb8tcV0nSOPyB+BtEC7gKmJa5rk3yKeL7tB1bZ66rJGkcPkj8DaId785c16bYHlhKfH+2gEsz11WSNE7bEn+TaMfDwJZ5q9sIZxHfl+04NnNdJUkTUMprgBbww8x1rbtXEd+H7ViNj/8lqWjHEn+z6Iwjs9a2vrYEFhPff+24KG91JUkTtSGwnPgbRjseBZ6Stcb1M420umN033XGG7PWWJLUFz8i/obRGVcDs7PWuF7+hfg+64wHgbWy1liS1BfPJ/6mMTS+iwsEdeMwylnPoR1fz1pjSVLfTAauI/7GMTQ+nbPSNbAf6ZVJdD8Njd1yVlqS1F9vJf7GMVy8K2elK+xJwL3E98/Q+FXOSkuS+m825Swf2xmrgVdnrHcVbQXcQXzfDBfPy1dtSVIuHyX+BjJcrABen7HeVbIjcAvxfTJcXI7zNiSpkuZT5mPlFulJwHHZal4NewF3E98XI8VL8lVdkpTbh4m/kYwW/0Yzt+U+EHiA+PYfKS7FX/+SVGlzKftXZgs4k7SAURNMAo6mrMWahosX5moASdLg/B/ibyhjxa3AvrkaoBDrA2cQ39ZjxbmZ6i9JGrBpwJ+Jv7GMFSuA9wBT8jRDqGcBtxPfxmPFSmDXTG0gSQpwMPE3l27jMmDvPM0wcOsAxwOriG/XbuJreZpBkhTpdOJvMN3GKuCrpBtoFU0G3kRZO/qNFYuBDXI0hiQp1haUPfN8uLgHeC/V2YxmEvD3pFn00W3Xa7g2gyTV2DuIv9GMJx4g7SVQ6hOBycCLqOaNvwWcg5/9SVKtTQbOJ/6GM5FE4KukLwZKuGFtAbwfuJ74thlvPAxs1++GkSSVZ1uq9ypguLgB+AiwfX+bZ0zrAK8j/WquyuS+0eIt/W0eSVLJjiT+xtPPuBM4mTTxbsv+NROQNlY6kPQK4nzKX8Snl/g5ZTxJkQbOE19NdhLwsuhCZHIXcA1wHXDtmn/eDTwEPLjmn0tIKyW2Yx6wANga2KEjtgamDrb4A3En8BTSREupcUwA1GRrAb8DdoouiAZuJfAc4DfRBZGiNHETEqntQeBQ0nwANcs/4c1fkhrvcNL2vNHvo43BxIlIquWa41Kv/kS6MRwQXRBl93vgMNK+C1KjmQBIyW9Is+fdCKa+bia9978vuiCSpLJMA84k/hG10f9YRPqiQZKkYc0mPQ2IvmEZ/Yv7gb2QJGkM84BLiL9xGROPR4BnIUlSl9YHriT+BmZM7OZ/0NCOlSRpLAtICwVF38iM3uMh0vLFkiSNy1zgbOJvaEb3sQTYe7jOlCSpF3OAU4m/sRljx63ALsN3oyRJvZsCfJH4G5wxclwBbD5SB0qSNBHHkDaSib7ZGY+N00mvayRJyuZZpO12o296RtrD4dO4sZkkaUA2wy8EouN+4CVjdZQkSf02E/hX3EkwIi4Eth67iyRJyudA4Hbib4pNiJWkR/7TuuoZSZIyWx/4AfE3yDrHn/D7fklSoQ4GbiH+ZlmnWE761T+jh36QJGng1iLNDVhO/M2z6nE2sHNvzS9JUqztgZOJv4lWMW4Fjui9ySVJKsfzgUuJv6lWIe4B3k36wkKSpFo4ELiM+JtsifEA6T3/vHG3riRJBZtMWrzmfOJvuiXE7cCxeOOXJDXI3sApNHOy4GXAPwDTJ9yKkiRV1IbA0cBVxN+Yc8b9wNeAZ/Sn2SRJqodJwDOBfwPuJP6G3Y94FPgJ8ApgTv+aSpKkepoCHEBaT+Aa4m/kvcQi4L+A1wBr97thJPXHpOgCSOrK1qTPCfcjPULfLLY4j/EQaWfE84FfAr8HVoWWSNKYTACkatoS2Ad4ypp4EoNJCh4gzVW4ErgcuBi4grRJj6QKMQGQ6mMBsA2wFemJwZbAeqSNitZb89/XWvP/O4c0A78F3Lfm/7Z0zb8vAhav+eftwM1rYiF/2/VQUsX9f5Wt6Ds0WcONAAAAAElFTkSuQmCC;" vertex="1" parent="1">
                    <mxGeometry x="660" y="395" width="87" height="87" as="geometry"/>
                </mxCell>
                <mxCell id="143" value="" style="shape=image;verticalLabelPosition=bottom;labelBackgroundColor=#ffffff;verticalAlign=top;aspect=fixed;imageAspect=0;image=data:image/png,iVBORw0KGgoAAAANSUhEUgAAAgAAAAIACAYAAAD0eNT6AAAABHNCSVQICAgIfAhkiAAAAAlwSFlzAAAOxAAADsQBlSsOGwAAABl0RVh0U29mdHdhcmUAd3d3Lmlua3NjYXBlLm9yZ5vuPBoAACAASURBVHic7d13uB1Vufjx70nv9NA70iwgTSkKUqWKgIjYGzb8oRdBvTZsV69iRfRarggKerGhqFdQEFBAioAiAkEg0msSkpCec35/rJPLIZwke6+ZWWtm9vfzPOsJAWbvd82emXfNzCogSZIkSZIkSZIkSZIkSZIkSZIkSZIkSZIkSZIkSZIkSZIkSZIkSZIkSZIkSZIkSZIkSZIkSZIkSZIkSZIkSZIkSZIkSZIkSZIkSZIkSZIkSZIkSZIkSZIkSZIkSZIkSZIkSZIkSZIkSZIkSZIkSZIkSZIkSZIkSZIkSZIkSZIkSZIkSZIkSZIkSZIkSZIkSZIkSZIkSZIkSZIkSZIkSZIkSZIkSZIkSZIkSZIkSZIkSZIkSZIkSZIkSZIkSZIkSZIkSZIkSZIkSZIkSZIkSZIkSZIkSZIkqW36cgegnrMasC6wNrDOYBn69zWAMcBkYBQwBRg5uN2IwX9eOuTz5gBLhvx9NjALmDlMmQE8DtwPTAfmlV89SWoGGwAq22hgU2BLYIshZdnfJ+cL7RkeA+4ZLP8aLPcAfyY0EiSptWwAqIj1gR0Gy46Df25NuEtvuj8BHxz8U5KknrUWcATwWeBi4GFgoOVlCfDuMnaeJElNsSnwGuC/gFuAfvIn5BylH3hZwX0pSbXjKwAtsyZwIHAw8BJg47zh1Mq9wFbAotyBSJJUVB+wE/Ah4ErC4+7cd9t1LkfE7WZJqqdRuQNQUqOBA4CjCXf66+cNp1H2AH6ZOwhJKosNgPYbCewNHAccRejMp+5NzR2AJJXJBkA79RHuWI8DjgHWyxtOK8zKHYAklckGQLusD7wBeAth0h2V5+rcAUiSNNQIYH/gfEIv9dyd5dpYHgbGd/qDSJJUpQ2AjxDmtM+dINteXtfZTyJJUnWeB5xNb93t9xMW8nkMuJOwoM+MIaXKIYwf7+xnkaRmcSKg5tgfeB9hsp4m/24PAHcBjwAPEZL6Y8CjQ/4+j9DpboCwil83ViesKDhcmUqY4GhjwkyH67PifTkNOBX4RZffL0mN0ORE0gtGA68gJP7nZ46lG/cCfwf+Sbhjv2uw3AksyBjX8sYAGwGbDJbVgIXAjcD1hAaIJLWSDYB6GkV47/wRYLO8oazUIsI6AX8D/jpYbiI8lpckSR0aQViAZxr537sPVx4nzIZ3CrA74QmFJEmK1Ed41H8L+ZP80PIIcB7wDuA5+MRIkqTSHEZ4bJ472Q8AS4FrgNOA3QhPJCRJUom2By4if9KfA/wIeC2wTqU1liSph60BfJbQ2zxX0p8PXEjoaDip2upKktTbRhAS7iPkSfpLgN8NxjCl4rpKkiTCcrw3kyfx3wqcDKxdeS0lSRIQJpb5CqFzXcqkv4CwOND+2HNfkqSkXg7cT9rEPw14D7BmgvpJkqQh1gPOIW3iv57wbn9kgvpJkqTlvJmweE2KpL8U+DmwZ5KaSZKkZ1gbuIA0iX8R8C1g6yQ1kyRJw9ofuI80d/znA1ulqZYkSRrOWMKEPlX38F+W+LdJUy1JkrQiz6b6+fv7gZ8MfpckScrsjcA8qk3+1wN7paqQJElasbGESX2qTPyPASfhcD5JkmphI+Bqqkv8iwiNi9VSVUiSJK3cvlS7gM/F2LNfkqTa6ANOJayiV9Xj/tclq40kSVqlMVQ7ne/5wNRktZEkSau0BvAHqkn89xMWCZIkSTWyBXAr1ST/7wKT01VFkiR14gXAQ5Sf+GcBxyeshyRJ6tDLgScpP/lfShhCKEmSauYEyp/PfzFwGk7oI0lSLZ1MmHO/zOQ/HdglYR0kSVIX3k81j/wd3idJUg31AZ+n3MTfT1ga2Ef+kiTVUB/lL+gzGzgqZSUkSVLnRgBnUW7y/zvwrJSVkCRJnesDvk65yf/3wOopKyFJkrrzWcpN/mcBo5PWQJKkEo3KHUACpxF6/JdhAPjE4GequKmE6Zc3H/zndQb/nAqsDUwBJhIWZ5oIjAUmDG67EJg35LPmAjOHlBmDfz4A3DOkPFRlhSRJ9XAS5d31LwRekzb8VhhB6CfxCuDTwM+AmwidJ8t8KtNpmU9Y7+Ec4EDC6yFJUou8nfIm+ZkN7JM0+ubaEDgO+BpwFTCHPIm+03IxsG4le0KSlNzhwBLKSRAzgd3Tht8oGwNvAc4G7iJ/Qo8pfycsAy1JarBdCO+Dy0gMDwM7pA2/9kYCOxP6QVxP+VMp5yrfLXEfSZIS25zylvR9AHh22vBrawxwKOG9+SzyJ+sqylJgk7J2mCQpnTWB2ygnGdwNbJk2/NoZCRwAfAd4nPwJOkU5sZQ9J0lKZixwOeUkgTsJHdl61cbAx4B/kT8hpy5nlLD/JEmJ9AHnUk4CuJfwGqHXjASOAH5FeZ0nm1i+WnRHSpLS+QDlXPwfAbZLHHtuY4HXUd6rk6aXdxfbnZKkVPalnDvWmcBOiWPPaSphRsNHyZ9061KWYr8PSWqEjQl37UUv/E8AuyaOPZepwBcJU+jmTrh1K+cW2K+SpETGAtdS/KK/ANg7cew5rEVYEKms+RHaVu4gjCKRJNXctyl+0e8HXps68MQmEibseYL8SbbI7zQDeIwwQmP5ct/gf18Y+flXAOtF7l9Jaqwmrgb4VsLUs0V9BPh+CZ9TR33Aqwl3/XUd0riUkLzvIiTyuwb//ijh1c6jg2VBF585kTCl77KyyXJl08F/P5ewING5wC8JDQFJUo1tTznvr/87deAJ7QZcTf4796HlceD3wBcIow52JMwuKEnSKo0l3LUVTUaX0s7kswZh1r46zM0/nfB05W2ERptL7kqSon2J4onpZmBK6sATOJwwiVGuhD8P+B3wfnpvLgVJUoUOoPid7Uxgq9SBV2xD4ALyJP2ZwFnAIcD4qisqSeo9axNW5iuSrPqBl6cOvGKvIiThlEl/LnAeYdrgsdVXUZLUy86neOL6ePKoqzMF+CZpE/8thMf7jpWXJCXxJoonr98AI1IHXpE9CMPlUiT9+YT5FnZJUjNJkgatR5jgpUgSm054hdB0fYRFjxZTfeJ/HPgksG6SmkmStJyij/4X0o4FfqYAP6P6xH8fYTW8iWmqJUnSMx1C8YR2SvKoy7cN4f17lYn/UcL7fXvyS5KymgzcQ7GkdjkwMnXgJTsamEN1iX8GcCowIVWFJElama9RLLHNJMz73mQnEebKryLxLwXOISwNLElSLexO8cR3dPKoyzOS4g2glZVLgeclq40kSR0YAVxPsQT3neRRl2cScCHVJP7HgRPSVUWSpM69hWJJ7h5C/4EmWoPqVvA7n3YMhZQktdBk4EGKJbojkkddjnWBv1F+4r8HODBhPSRJ6trnKJbsfpQ+5FJsDNxO+cn/JzhtrySp5rYAFlDs/XYTZ63bAribchP/bOANCesgSVK0osvZvjF9yIVtRPnJ/ybat9yxJKml9qVY0ruEME9+k6wD/INyk/8PcEIfSVKD/Jn4pLeIMFVuk6wO3EB5iX8xYRpfSZIa4zCKJb8vpA+5kEnAtZSX/B8D9kpaA0mSSlAkGT5Os3q5j6R4X4eh5U6a9/RDkiSOpFgCfFv6kAs5g/KS/9U4j78kqYH6gBuJT4B/B0Yljzre+ygv+f8CGJc2fEmSynEMxZLgAelDjnYU5a3qdx4wOm34kiSVYwRwM/FJ8ML0IUfbBniCcpL/OTTrqYckSU9zBPFJsB/YNX3IUaYAt1FO8j+D5s11IEnS01xOfCL8SYZ4Y/QBP6ac5P89wlMTSZIaa2eK3f3vkD7kKB+gnOT/Q8LwQUmSGu084pNhU1b7250wO1/R5P9L7PAnSWqBjQhT98Ykw6XAc9OH3LVJwDSKJ//rgImJY5ckqRKfJz4hnpsh3hhnUzz530UzlzaWJOkZJgOziE+KTXj3fzTFk//jOL2vJKlF3kl8Urw4Q7zdWh+YQbHkvwjYO3XgDTUFWIOwsqIkKVKKyWXeUmDb00uLojpfJSSkIt5HGCLZy0YDzwO2AzYcLJsAGxD6kKzN8B0j+4GZg+UR4F7gHsLrlKuAv1UduCTpmXYi/q74Zuo/Ac4hFH/0f17yqOthK+B44MuERD2f4vtyuHIdsGeiOkmSBp1J/IX7jRni7cZkwp1mkeT0N3qnx/9I4EXAFwjLGVeR7FdUllD/40mSWmM88e/GH6b+q94VXeJ3Lu3v9DcCOBj4NuE3TZn0h2sE+CRAkhJ4LfEX649miLcbOxASSpGEdELyqNNZg9Cv4S7yJv3ly3VVVlqSFFxG3EV6KaHzV51dTLFEdEH6kJN4LvAt4EnyJ/sVlSZMKiVJjbUVoXd2zAX61xni7cbLKZaAHiD0aG+T7YFfkD+5d1LeVNE+kCQBHyL+An1Uhng7NYbi0/0emTzq6mxAeL9f9HVIynJyJXtCkgTATcRdnB+m3ovgnEKx5PPj9CFXYjLwKer9qH9F5fUV7A9JErA18Rfnz2WIt1OTCBPNxNZtFmFym6bbD/gX+RN5bNmy/F0iSc1TxUyAryiw7VmlRVG+9wDrFNj+fcD9JcWSw3jgY4SnICMyxxLrYsIcBGqu1QiN8WVlCmGOieUtJgy1hTBL5JOEYcmLE8QoNUIVM+3dCOwYsd2fgd1LjqUsqxGGtK0Zuf01hLoNlBZRWrsD3yM83WmqJ4HdgH/kDkTDmghsDmwx+OdmwFRCP5Opg6WMzrNzCQ2BxwkN8vsG/1w2hfQdg/9OUpeKPP5/b4Z4O3Ua8fXqB/ZKHnE5+ghzMiwl/6P7ImUOcEDJ+0ZxJgIvIKwR8mXg98CD5D9Ghpa5wA3AjwjH/+GE9SgkrURs7/9+6jv2fwrFljP+QfqQSzEROJ/8F+MBwiiD+wiP7+8E/gpcT3jadD/hse5w2y0crIPv/fMYQVjg6a2E0SJ/pVkjRpYvjwAXAZ8ADiJcG6TGKvsVwHXALhHbXQ3sUXIsZXkf8PnIbecD2xIeLTbJJoTJip6f+HsfIxxD1xIWg3qAsO8eIjyFWJE+Qv+MZY+K1xr8rJsI73+VRh9hoqWXDJYXU3ylzDpbSjhO/whcOlhmZ41IymRt4h8VvydDvJ0YRbEe759OH3JhexASboo7qjmEoZGvxbv0ppoCHEPoI5J7vYfcZRFhBtQPEhrPdV/NVCrN8cSdNHV+/P8q4i8Gs4jvNJjL/sA8qr1Izgb+GziM+i/4pOGtC5xIeH+/iPyJt65lOvAlwiqYTR05I3XkbOJOkitzBNuha4g/+U9LH24hB1Bt8r8DeD/tfiTcZmsR3uVfQrPf4+cqDxKWR6/rSCcpWh/hfW3MiXFKhng7sSfxJ/sMwtDBpqgy+V8BvBQfhzbRCMJToXOo/slQL5XpwGcJQx6lxtuB+JOhrquzfY/4On0sfbjRqkr+t1JsUijlswXwGcIIi9zJss1lKWFUwZEMP5mR1AinEncCPEg97wynEMYCx9RpHs1Z7W8Xyk/+DxPGeHtBa569CMMmVzSs0lJdeYDwVMD5BtQ4lxB30J+VI9gOvI34E/kbGeKNsR5h9rMyL2K/AtZPWQkVNpbwbv/v5E+CFlgAfAfYZmU/mlQXYwjj3WMO9uMyxNuJa4mrTz+wXYZ4uzWOMPVyWRetmcAJSWugoiYCJ1F+I9BSTlkKXIidBlVzy+a4jznAiyyuU5XnEH/SXpgh3m71EWYnLOtCdRVhvnY1w2TgI8Cj5E9yls7K77AhoAqUsRpg7IF5PeEiVDdFnkp8s7QoqnMK8OqSPutswuuShSV9nqozDngnYZKapvRRGepJwgI+M3hqMZ8Bwnwb/cATg//fRMJTSYDRhBUDVxv896sT5jBoWv33Hyy/JqxNcEPecKSnxM4XX9dZ8m4lrj4PUs3yymXakXImbllCGNOv+htJ6JR5D/nvZFdWZhOmgT6XkOReD+xHeBc+vuR9MhrYkNAJ9mhCo/jrwP8Cd9dgX6ys9BNmz3TmTNVC7DvEg3MEuwpFhjPWtUGzzBjCYixFL0CLgJcnjl1x9gP+Rv6ktXyZDvyMsHjYwYRkXCdTCE82TyBM3nM99ZvxcCFhjZImzTeiltmE+FZsHafJ/RTx9dkqQ7zdiK3b8sn/yNSBq2tbAj8nf5IaIDwtugH4CmFeiPUqrHeVxhMmBzuZMNplNvn37QBhhcJ34LBbZfBK4g7aW3IE24HbiavPFTmC7cJOFL+DMfnX3zjCUrULyJuU7ge+CxxLPRv6ZRhFWDjrw4TpzGMXQiurXEc4z6VkvkzcwfqdHMGuwrOIP/lOzBBvp0ZTfIz3UsKKb6qvvYHbyJeAbiE0PlIvIV0X6wBvJLzaiJ1ErGhZQrgmT664rhIQ1sGOOVDfnCPYVTiR+ORY52FwsfUaWj6UPGp1ag1Cg7qf9AnndsKQwm0rr2WzTCSsJPpLwrv61L/LvcAhlddSPW/ZUJxuSx0ny7mQuLpcliHWTk0ijE4ocjH5MfWcrllwIHAfaZPLTMJsl45L78yahKGy15G+IfBtfBqgimxI3EE5g/qtjT0GmENcfer8+P80il1ArqX8IVgqbjxh3viU752vJ/SKn5igfm21PeF3i71xiinTgX0T1E095iDiDsjLMsS6Ki8h/gTbPEO8nZhKsZ7Kc6n/yIZetAvxnVW7LQsJ63XskqRmvWMS8P+AO0nzO/YD/0noDySV4mTiDsav5Qh2FT5JXF1uyxFsh86k2EXjnelD1iq8mzQ9/J8APkf9xue3zUjCRERXkaYhcDWwWYqKqf2+S9xB+I4cwa7CpcTV5Ss5gu3AusQv0DRAWN3R9/71sRrwU6pPEI8D/46Ty+SwH3A51f/GM4GjEtVJLRa7Yt6LcgS7EiOJf/9f1562RSb9mYN3CXWyI9U/Kp5JmH53SqI6acVeQvUNgWWvBJw8SFFGED/WtW4TgzyfuHospJ4doiYAjxF/cfhY+pC1AsdS7Zjy+YROaWukqpA6dijF5+9YVbmI+l2P1QDrE3fA3Z8j2FV4F3F1+XOOYDvwWuIvCA/jsKE6GEFYW6Kqsf39wP/gk566Gwm8FXiA6hoB/wSem6pCaoetiDvYLs4R7Cp8n7i6fClHsB24jPiLwdvTh6vlTCJ+TopOyg2EKWzVHJOBL1DdgkSzgZcmq40abzxxY5D/M0ewq3AzcSfNK3IEuwpbEn/XOA2HCeW2HmG8fRUX+bmEJZx979tc2xBuoqo4PpbgyB914U90f5AdkCXSFRtN/FSdG2WId1X+nfgLwNsyxKunbAvcRTUX9/Op93TV6lwfYc2BmVRzrHwGRwCpA8fS3YF1M/U7sLYn7iSpY18GgBuJq89sfPef0x4U67i5ovII9XxSpeI2oLpXRWcTVjuUVupndHZAzQd2yxTjynTbiFlWfpsj2FXYgvgT/qsZ4lWwH9X09P8pYTZItdtrgFlUc/yMTVgPNdB4Vt0ImAkcnCvAVfg4cSfH6TmCXYV3En+yPztDvILDKDZh03BlDvD6lJVQdpsS90p2VeUi6jnUWTXSB7ySMM3kEp46eB4lTEdbx3fly/yQuBPjjTmCXYULiKvLVTmCFa+g/F7dNxI6iqn3jCTM4bGYco+pPxJGpkirtBrhbnIj6rfi33B+TdxJUbfXGSMJ87fH1OUDGeLtdcfy9MZyGeUMfGQr2Bt4iHKPrcvxSYBa6Cy6PxkWU7+TYUfiT+7tMsTby15KuQv6zKeeT6SUzwbAlZT/JKBu1z2pkLfS/YlwdZZIV+4dxJ3U/8wRbA87iHKT/3Rgp5QVUGOMAb5OuY2Ai4FxKSshVWl1YAbdnQSvzxLpyp1F3An9xRzB9qgXA/Mo945snaQ1UBO9i3L7BfwUJ5NSi7yRzg/+P1DPvg1/Ie5kPjpHsD3o2XTf0FxZOZ8wAkfqxIGUO1Twm2nDl6r1IVY9he411HPlrCIrM26WPtyeszFwL+VdfD9F/SbUUv09B7iH8o7Dj6cNX6rWfoQhccsf6I8Qptgdky+0ldqcuBN4BiaSqq1OeUu6LgFOSBu+WmYT4FbKawR4PKp1NgQOB44Edqb+77t2Iu7k/X2OYHvIaOBSyrnQLgKOSxu+Wmpt4FrKOy73TRu+pKFipwCu48qMbXIm5Vxk5wGHJo5d7TaZYsuGDy2PA1snjV7S/xkBPEz3J65JpTpvo5yL65N4h6VqTCR0ai7jOL0dWCNt+JKW+RzdnbD3Eh5Rq3x7Er/E9NCyADgkcezqLRMIrwLLaAT8jvq/LpVaaXXgPjo/WY/JE2brrU8507DOJ0waJFVtAmGq3zIaAR9NHLukQc8jjFhY2QnaTxjRoPKNpJxHqosJnVClVKYQP5fI0LIUG65SNhsC/0M4EZc/OW/B9/5V+iTFL6D9wJtSBy4BUwnv8osew48RhhtKymR9wrCxUwnrHexMPWcwbIsDGb7R1W3x6Yxy2pTuXiWuqFyB/QEk9YB1KOe9/5mpA5eG8XxgDsWP5w+lDlySUvsxxS+WFwOjUgcurcAhhJknixzTi4EXpg5cklJ5HcWT/62EURxSnbyX4sf2HcCk1IFLUtU2ofgKa48Dz0oduNSh71G8EfDV1EGrcy4GIwVjCSv3bUhI7usT5k1fc7BMJjymnzz4/683+P/G6ieMyvhtgc+QqjQe+BNhvZFY/cDeg58jSVmNAp4LvAH4PPBr4E7K6cXfTflExfWUyrAZYWhfkWP9NmBc4rglidWAwwjJ/krC/PopE/1w5fc4TErNcTDhTr7IMf/Z5FFL6jkjgN2AjwPXUbw3c9nlQcKkK1KTfIFix/0iYPvkUUtqvZHA/sC3iFsZMVXpJ9xNSU0zBrieYsf/JcmjltRauwBfo95Jf2g5o5rdICWxNTCXYufAK5NHLak11gBOAv5G/oTeTfkHoVe11GTvoth5cB/ODSCpS9sCX6f4HUiOsgTYtfxdIiXXR/FVL09LHbSkZnohcCHFeyHnLF8sfa9I+WxBsYb4HMI8GpI0rL0Jw+VyJ++i5W5gYsn7RsrtJIqdF99MH7KkutsB+F/yJ+6yykHl7h6pFkYCNxJ/XiwGtksetaRa2hA4h/Qz8lVZPlPqHpLq5YUUO1/PTx+ypDoZC3yActYgr0vpJyyCMqLE/STV0beIP0+WAs9JH7KkOtgXmEb+hF1WWUJY3MfH/uoV61BsVcz/SR+ylnE1QOWwGmFu/rdQn2NwAWHRkruAe4DphGl7HwVmADMJTykA5gGjCQucTCHMTfAkYYzz3JRBSzXwfuLn+u8HngfcUl44kurqIEKizHmnvgj4M2F+86OArXBxHinWOEKDOfZ8/EHyiCUlNQ74MnnG888HLgI+AuwDTKi2qlLPOZ5iDfKN0ocsKYVtST9173zgAuDVhMf0kqozAriZ+PP1c+lDllS1Y4DZpEn6C4GfE+5GJqeonKT/cwzx5+4sPGel1hgJnE6aR/4PEuYXd3pRKZ8RwF+JP49PSh+ypLJNAX5D9Yn/euC1hLkEJOV3NPHn863UZ1SQpAhbAH+n2sT/W2DPVBWS1LERFJvbY5/kEUsqxXOB+6ku8d8MHJqsNpJivJ34c/y8DPFKKmhvis0ItrLyL+AEnFpXaoJxhH45Mef6QmBq+pAlxXoZYSa9shP/HOC9wJh0VZFUgtOIP+/tDCg1xKFUk/yvIMzQJ6l51idM8BNz7l+bIV5JXTqa+JN8ReUJwuN+ewNLzfZT4q8D22aIV1KHDqX85P8bnBJUaov9ib8WfCJDvJI6sBdhRbyyEv9i4D1JayCpan3AHcRdE+7MEK+kVdiBsDRuWcn/YRz7K7XVR4m/NuyQIV5JK7A+cA/lJf8bgM1SVkBSUpsRPx34x9KHK2k444FrKC/5f3/wMyW125XE3yBIyqyPsMpeWcn/39OGLymjdxB/rdgsfbiShvow5ST+fuDExLFLyms9YClx14x3ZYhX0qD9gCUUT/5LgDcljl1SPfyJuOvGBTmClRTG5D9G8eS/AHh54tgl1cfJxF07ngBGZYhX6mkjgEspnvwXAi9NHLuketmS+GuIS39LiX2Qct75vzp14JJqaRpx15HTMsQq9aydKGea31NTBy6ptr5G3HXk0hzBSr1oFPAXiif/b6QOXFKtvYy4a8lc7AcgJVHGkL+fEPoQSNIyU4h/srhzhnilnrIdocd+keT/F2Bc6sAlNULsbKLvzhFs23mXpqHOAMYW2H428EpCI0KSlndV5Ha7lxqFpKc5luKP/u3xL2lljiHu2nJbjmClXjARuBc7/Umq1gbEXV+WABMyxCu13ocolvxvwvf+kjoTu6T4C3IEK7XZ2oTpNmOT/3xgm+RRS2qqXxJ3rTkhR7BtZidAfZgwPCfWZ4HbS4pFUvvdFLnd80qNQupx6wHziL/7n4aP/iV152jirje/zRGs1FZfoti7//3Thyyp4bYi7npzZ45gpTZaG5hDfPI/N33IklpgJGGV0G6vOUuAMRnilVrnU8Qn/5mE1weSFOM24q49djgukZ0Ae9M4ivWoPR14qKRYJPWeOyK326LUKHqcDYDedDywTuS2jwNfLTEWSb0ntgGwQalR9DgbAL2pyMIaXyT0HZCkWPdEbmcDoEQ2AHrPbsCOkds+TlgwSJKKeCByOxsAJbIB0HveXGDb0/HuX1Jx90duZwNAijSB+Gl/HwMmpQ9ZUgttTtx16JocwbaVTwB6y5HET/v7PWBueaFI6mGxo4hWKzUKqYdcQPzY/+0yxCupvRbQ/XXI4cdShMmElftikv8VGeKV1G4P0f21aEGWSFvKVwC942XEL9zznTIDkSRCf6RujcUFyEpjA6B3HB653SzgJ2UGIkmEa0sMOyOXxAZAbxgFHBC57XmEJYMlqUyxj/NdEKgkNgB6wx7AGpHbnldmIJI0aHHkdqNLjaKH2QDoDQdFbvcQcHWZgUjSoEWR2/kEoCQ2AHrD3pHbXQD0lxmIJA1aErndqFKj6GE2ANpvPLBL5La/KTMQSRoi9ubCVwAlsQHQfi8gDJ3p1hLg8pJjoPUZnwAAEeJJREFUkaRlHM6XmY9S2mF9YEtgi8GyEbD2YNk88jP/DMwuJTpJeqaYGxOAS4AZhHkEZhL6Kt0L3Af8C7gNmE6YOEgrYQOgeTYGXkR4rL/DYFmrgu/5QwWfKUnLxD4BWHZzszLzCA2BGwk3M9cA/wCWRn6nlMXawPHAOTzVqk1RDk5QN0m966+ku54NECYeugA4EdgmQf2kKJsA7yMMwVtC2pNkgNA5Z83Kaympl/2L9Ne2oeU24DPArkBfxXWVVmoK8HbgSkICzn1iSFKVZpP3Oje03AF8hHDzJSWzK/BdYC75T4Jl5fxKayyp140i/43OcGUpcBFwKI6SU0X6gMOAy8h/wA9XPlpZzSUJVif/dW5VZRrwLsJcKlJhfcAxwM3kP7hXVo6qagdIEjCB/Ne5TsuDwL8BEyvZE+oJhwE3kf9g7qRsVNE+kKRlppP/WtdNeQh4Bw6fVxeeDVxM/oO303JdNbtBkp7mK+S/3sWUW4HDK9gfapHJhAN8MfkP2G7KYVXsDElazibAHPJf82LLL4BNS98rarxDyT/GNaZ8qYqdIUkr8EryzHVSVpkLnAyMLHvHqHmmEGbsy31QdlsWAv+Ok2FISu8I4GHyXweLlD8R1mNpFC/45dkD+AHxi+9UbRHwJGHxDAivJh4ArgD+m7CYhiTlMAV4HXAQ4Ro63NC7SYSe+HXtjT8XeC/wndyBdMoGQHF9wPuBT5Kvd+h8wpjVacDthJn8pgGPEea/nktI+JLUBqsTGgJrAVsDzxr8c9vBf65igbRO/YAwq+uTGWNQAqsBPyf946YngF8C7yGsBuiMVZL0lK2ANwPfJywTnPoafQsuONRqWxHutlMdULcCHwZ2ww4nktSNrYB3Et7Vp5qCeAZwQIrKKa09gUep/gB6FDiDkPQlScVtTriZupXqr+GLCZMHqSWOIbxzr/Kg+SNwJDAmUZ0kqRftCvyI6ocifjJVhVSd11DtxD5/whmmJCm1zQkTt82juuv7WTiNcGO9m+reHV0A7JKuKpKkYWwAnA4soJpr/TnYh6tx3kQ1yX8acGDCekiSVm1L4FdU0wj4ITYCGuP1wFLKPQCeBD6A7/glqc6OBO6m/EbAd3Aentp7GeV3DrkQF5CQpKYYD3ya8nPBf6SshLrzQsKdelk/9gJCPwJJUvPsA9xPuY0Ac0INbQk8Qnk/8j+BnZPWQJJUtnWA31BeblgCHJK0BlqpScDNlPcDn0+YMliS1Hx9wCmEBdbKyBGzgO2S1kDD6iMk7LKS/8fShi9JSuQgYA7l5IppeKOY3cmU91jH6R8lqd12o7xp4c9PHLuG2BlYSPEfcSHwysSxS5Ly2BK4g3IaAd44ZjCJ8Aim6I83B9g3ceySpLw2oJy+Y/OBZyeOved9k3Lu/PdPHbgkqRbWA+6keC65DtcMSGYfik/zuxQf+0tSr9sSeIjijYCPpA68F00gjNEv+mOdmDpwSVIt7QzMpvgT5W1TB95rPkXx5O86z5KkoQ6geKfyS5JH3UO2IHS4KPID/RoXdJAkPdOJFL/BPC551D3iFxT7Ye4B1koetSSpKX5KsTxzL2ExIpVoL4r9KIuBPZNHLUlqktWBuyiWb96fPOqWu4xiP8ipySOWJDXRbhTrDzATnzaX5hCKJf9L8b2/JKlzH6RY3vl0+pDb6Srif4SFuGqTJKk7o4C/EZ97niC8TlABe1OsFfYf6UOWJLXAiyk26dyH04fcLr8mfudPJ0wcJElSjB8Rn4MeAcalD7kdtqRY6+tl6UOWJLXIRoRF42Lz0OvTh9wOpxO/06/IEK8kqX0+THwuui5DvI03DniM+J1+UPqQJUkttBowi/h8tGv6kJvtOGxxSZLq4TPE56QzMsTbaL8ifmcfmSFeSVJ7TQXmEZeTHgPGpA+5mdYGFhG3o/8OjEgfsiSp5c4k/sb08AzxNtLbiN/JJ2SIV5LUfpsDS4nLTWdliLeRYsf+z8eZlyRJ1bmM+NcAo9KH2ywTiH/Pcn6GeCVJveOtxD+h3id9uM1yOPE797AM8UqSescawALictRnMsTbKF8mbsc+DIzOEK8kqbf8jLg8dU2OYJvkRuJ27Jk5gpUk9ZyjictTS7Cf2gqtQXwPy5dniFeS1HumAIuJy1WHFvniNo9xfwFx9esHLi85FkmShjMbuCFy20LTAre5AbBz5HY3AjPKDESSpJW4LHI7GwArsGPkdn8oNQpJklYuNu+4MNAK3EHcO5VDcgQrSepZk4nvBzA1Q7y1NobQQzJmZ66bIV5JUm+7gbic9aLYL2zrK4AtgJER280izAEgSVJKt0dut23sF7a1AfCsyO1ifwBJkoqIzT9bxX5hWxsAm0ZuZwNAkpTDHZHbbRj7hW1tAKwXuZ0NAElSDrH5Z6PYL2xrAyC2I9+0UqOQJKkzsflng9gvtAHwdE4AJEnKYTYwP2K7NWO/sK0NgCmR280uNQpJkjo3N2Kb2HzX2gbAxMjtYna+JElliMlBo4HxMV/W1gbApMjtbABIknKJfQodlfPa2gAYE7ndnFKjkCSpc7E5KGbiu9Y2APojt3uy1CgkSercvMjtonJ5WxsAA5HbjSs1CkmSOhebg2wADBH7BGByqVFIktS52P5ri2I2amsDIPZRfuzOlySpqNghfVEd2NvaAIjtSOETAElSLjE5qJ+4CYRa2wCIHUphA0CSlEvMU+i5RPZ7a2sDYGbkdquXGoUkSZ0ZD0yI2O6R2C9sawPggcjttiw1CkmSOrMV0Bex3UOxX2gD4Om2KTUKSZI6s3XkdjYAlnN/5HY2ACRJOcQ2AGLzXWsbAHdFbmcDQJKUQ2wDYFrsF7a1ATCNuMmA1sOOgJKk9GIbAP8sNYqWmE4YGtFteXGGWCVJvWsMYQK7mJy1WeyXtvUJAMA/Ird7SalRSJK0crsRNwRwFvCv2C9tcwPg+sjtbABIklKKzTs3EL/4nQ2AYexOXEtMkqQY+0Rud0OZQbTJ+sS9TxkA9s8QrySp94wF5hGXq44t8sVtfgLwIPG9I/crMxBJklZgL8I0wN0aAK4o8sVtbgAA/CFyu1cQNyWjJEndOD5yu9soMAtgLziO+NcAe2aIV5LUO8YRFq+LyVFfzxBvo6wDLCFu5/5XhnglSb3jaOJvUg/NEG/jXEHczp1B6JwhSVIVfk5cfnoSR6t15GTiW1jHZIhXktR+awELiMtNv8gQbyNtSVgXIGYnX5ohXklS+32U+JvT12SIt7GuIn5H2xlQklSmCcAjxD/+n5Q+5OZ6B/ENgF9liFeS1F7vJT4nnZsh3kZbk/h3Lf3A89OHLElqoTHAvcQ3AA5MH3LznUP8Dv9xhnglSe3zZuJz0R04SV2UFxC/05cCu6YPWZLUIpOB+4nPRaekD7k9riV+x18HjEwfsiSpJT5PfA56kjB0UJFeSfzOHwDemT5kSVILbA8sIj7/fDl9yO0yErid+B/gCcIyw5IkdeO3xOeeRcCm6UNunzdR7CnA2elDliQ1WJGF6QaA76YPuZ1GAbdS7Md4VfKoJUlNtDHwOPH5ZiGwRfKoW+xYijUAZuEPIklauVHAlRTLN19JHnXL9VFsRMAAYVTAmNSBS5Ia43MUyzNPAOsmj7oH7EH8IkHLir0yJUnDeSlhDpkiOebk5FH3kLMo9uP0A8cnj1qSVGfbAI9SLL/8AxidOvBeMhWYSbEfaSHOzSxJCjYA7qb4zeW+qQPvRW+k2A81QJihaffUgUuSamUKcCPFc8o3Uwfey35N8R/sUWDb1IFLkmphDPA7iueS+4HVE8fe0zYEZlD8h7sbhwdKUq8ZC/yC4jmkHzgocewCDqP4qIAB4EHg+YljlyTlMQm4mOK5Y4CwWJAyOZNyfsQ5wAGJY5ckpbUecAPl5I3rcW6ZrMYRfoQyfsz5wFFpw5ckJbI1cBfl5IvHgM3Thq/hbAw8RDk/6hLgQ8CIpDWQJFXpQIqP8x+aJ/ZPG75WZk/C+P4yftwB4CLCnAOSpOYaBfwHxWf4G1qc7a+GjqPcH/lh7BcgSU21MfBHyssJAzjev9ZOodwfewnwCUJfA0lSMxxDsSV9hysXACNTVkLd+yLl/ugDwB2EhSIkSfW1NfBbys8BlwMTEtZDkfqAr1H+ATAAXAhsmq4qkqQOTABOAxZQ/nX/amByspqosD7Cu5oqGgFzgY8BaySrjSRpOKOA1wD3UM31/lpgtWS1UWn6gNOp5qAYIEwe9BXCSlKSpHTGAK8Dbqe6a/zlhMWC1GAfproDZACYR2gIbJaoPpLUq6YApxKmcK/yuv5L7PzdGm8BFlHtAbMUuIywXLGtRkkqx2jgUOBcwlLuVV7HB4BvEF4tqEX2pZwVBDt9KnAe4aCdmKJyktQiI4E9gDOAR0hz3V4CvDdF5ZTHNsAtpDmYlpWFhMkoPg7sTViGUpL0lJHATsC/EUZbzSLtdfpx4JDKa1lQX+4AWmASYYTA8Zm+fx7wV+A2YBqhE8vtwD8Jrykkqa1GEoZSP4twQ7bN4D/vCqyeKaa/ECYOmp7p+ztmA6A8byNMGlSXyR2WEFqhy8pCwkiDJTmDargZhIbWBTTg5B40FTgSeC6wbsmfvQh4gNBX5XfA4pI/vwp9wIsIi7lsDIwv+fMXEjqU/YGwT5pwvvURniYeQNgnde2sNnGwTCIMm55ISPJ1eQo6QJgz5lTC/AHqMdsA15D2UZMlfVkM/Bf1aewNZyRhIpMUnZwGCE+f9ktRsQJ2IIzDTnWc3Absk6JiBTyfcMea+5xqenkAOKjLfa8WGkUYKjif/AelpdpyLeFupG5GAj8j/f5YDLwqQf1ivIjwBCz1PlkEHJugfjH2IUxElvs8anLpB84G1upu16vtngVcQv4D1FJtOYf6+Qj59sd8YPvqq9iVtUjX83u4Mo/wdLBO1gEeI//50+RyB/V/6qWM+gjLCk8n/8Fqqab0Ex4t18Va5L+r+0nltezOZ8h/nPyo8lp2p8pZTdteZgMfpL59JVQz44APAE+Q/+C1lF8+TX28gfz7YwH1ejVyN/n3yTzq02ekD7iP/PukaWUx8G1gve53eT2NyB1Aj1gAfBbYiNAQmJU3HJXsebkDGKIOsYylPo+8p1CPabXHE14L1sGawIa5g2iQfuDHwLOBtwIP5Q2nPDYA0poD/CewJaGH9sNZo1FZ6nS3W5e7zLrsk7rsD3CfNM184FvAtoSOnNPyhlM+GwB5zCDM5Lcp8GbCRD5qrvtyBzDE/bkDGFSXffIo9ZkQqy775BGaMT9BLvcTlmjflDC/yx15w1Ev2AX4OjCT/O+6LN2V1w/ze+ayO/n3x52V17I7F5F/n9xeeS27cyn590mdyiLC0NlDCcNopSzGAocThpelnr/a0n25j/o9Ur2SvPvkxOqr2JWXkv84eXvltezO4eTfJ7nLEuBPwEmEGTOlWhlLGGf6OcJrgn7ynzSWp19ADl7hr5fPc8kz6c0AYVrg0ZXXsHtnk+84uYR6Lgd7HvnPodTlHkJP/mPIt1aAFGUd4AjCuObLSLccseWZZR71nfUO4MWE998p98klhB7mdTQW+D7pj5OLqW+iGQf8kPznUlVlPmGa428ArwW2KGe3tYeLATXfRoThKdsQhjttRui8sg5hUpi6PZ5uupmExYA+BdyVOZZVmUoYdnocsH5F3zEA3ACcSXhttbSi7ynLEYQlYveiune9A4TE8zVCo6O/ou8py5GEfbIHzXr/vZinFju7lzDh2nRCH5SbCSui1v14zMoGQPuNJ6yaNWXw7xOoz+pZTTJAGLb5MM3rQd1HWAlwXcp9FD2f0AdidomfmcoEQuN5csmfO4+wT+aU/LkpTCCsBliX4YpD9RMmUoNw3D1JM487SZIkSZIkSZIkSZIkSZIkSZIkSZIkSZIkSZIkSZIkSZIkSZIkSZIkSZIkSZIkSZIkSZIkSZIkSZIkSZIkSZIkSZIkSZIkSZIkSZIkSZIkSZIkSZIkSZIkSZIkSZIkSZIkSZIkSZIkSZIkSZIkSZIkSZIkSZIkSZIkSZIkSZIkSZIkSZIkSZIkSZIkSZIkSZIkSZIkSZIkSZIkSZIkSZIkSZIkSZIkSZIkSZIkSZIkSZIkSZIkSZIkSepB/x/Q0gONEttr0gAAAABJRU5ErkJggg==;" vertex="1" parent="1">
                    <mxGeometry x="230" y="364" width="132" height="132" as="geometry"/>
                </mxCell>
                <mxCell id="144" value="" style="shape=image;verticalLabelPosition=bottom;labelBackgroundColor=#ffffff;verticalAlign=top;aspect=fixed;imageAspect=0;image=data:image/png,iVBORw0KGgoAAAANSUhEUgAAAgAAAAIACAYAAAD0eNT6AAAABHNCSVQICAgIfAhkiAAAAAlwSFlzAAAN1wAADdcBQiibeAAAABl0RVh0U29mdHdhcmUAd3d3Lmlua3NjYXBlLm9yZ5vuPBoAACAASURBVHic7N15mB1Vtffx7wpDCCEBJxBQJplRGRwAFWWSQZBB4AXB6V4HUBQQFXBi0osoKIMgchVHZLgCMgooQhQFUURQGQJImNGICAmQBELW+8feSTqd7nSfc6pqVZ36fZ7nPB1C5+zVdVaftc6uqr3N3RGR+jOzpYGXAC/OXwf/ee5/Lw2MBZbMj7GDvg78M8BzwKz8deCfB//ds8ATwL8HPJ4Y/Gd3f7acIyAiRTI1ACLxzGwcsAqwKrBa/jrw8TJgqaj4OjQT+BfwwKDH/fnrg+4+Iyw6EQHUAIhUxsyWAtYFXp0fazC/wK8QGFqEfzK/MbgP+Ft+3OXuMyMDE2kLNQAiBTOzxYC1mF/o5z7WBBYLDK0JXgDuZX5DMPdxj7u/EBmYSL9RAyDSAzMbA6wPvAnYHNgIWI90jl2KMwu4E7gVuBG4AbjD3eeERiXSYGoARDpgZssCm5GK/eb5zxNDg2qvacDvSQ3BjcDv3f2p2JBEmkMNgMgimNlqwFakYv8m0qf7MYEhyfDmkGYJbiA1BNe5+/2hEYnUmBoAkQHyrXZbAtvnxzqhAUmvJgNX58ck3aIoMp8aAGk9M3sN8wv+Fuj8fb+aBVxPbgjc/a/B8YiEUgMgrWNmywDvAHYEtgNWio1IgjwK/AK4Evi5uz8dHI9IpdQASCuY2QTgncCepMLflEV1pBozSY3ABcBl7j49OB6R0qkBkL5lZhOBXYC9SNP7mtqX0ZhFOk3wU+BSd58WHI9IKdQASF8xs+WYX/S3Y/569yLdeI50mmBuM/BkcDwihVEDII2XV97bHvggsDMq+lKO54DLgbNIFxFqZUJpNDUA0lhmtgbw38AHgJVjo5GWeQT4AfA9d78vOBaRrqgBkEbJG+rsQfq0vyVgoQFJ2zkwiTQrcKE2MpImUQMgjWBmm5CK/r7AcsHhiAzlSeAc4Cx3vyU6GJGRqAGQ2jKzxUm37X0SeGNwOCKd+ANwEnCBu8+ODkZkKGoApHbyhjsfAT4BvDI4HJFePAR8E/hfbVQkdaMGQGojX9R3MOnCvmWCwxEp0tPA94BTdNGg1IUaAAlnZluQpvl3RTvtSX+bA1wCnOTu10cHI+2mBkBCmJkB7wKOAF4fHI5IhJuB44GLXG/EEkANgFQqF/7dgKOADYPDEamD24BjgIvVCEiV1ABIZcxsF+BoYOPgUETq6M/A0e5+aXQg0g5qAKR0ZrYzqfC/LjgUkSb4E6kRuDw6EOlvagCkNGa2I2lq8w3RsYg00B+Bo9z9yuhApD+pAZDC5av6TwA2jY5FpA/cBHxGdw1I0dQASGHyffxfI63VLyLFuhA4TOsISFHUAEjPzGwi8HnSIj5jg8MR6WezgFOA/3H3adHBSLOpAZCumdliwIeAY4Hlg8MRaZOpwJHAd939hehgpJnUAEhXzGxb4BvAa6JjaZkZwH9IS8tOH/S1m7+DtOzyhPx14J87/bsXAeNK+rllaH8FDnX3a6IDkeZRAyAdMbO1ga8DO0fH0sdmA/cBdw/xeLSui8XkRZ5WAtYe4rEGsHhcdH3vcuBT7n53dCDSHGoAZFTMbEnSsr2fQ+f5i+DAIwxd5Kf02xayeWvn1Rm6OVgZsLjo+sYs4DjgeHd/LjoYqT81ADIiM3sz8L/A+tGxNNALpKVe/8aCRf4ed382MrC6MLOlgbVYsCl4NWmp6MUCQ2uqO4CPuPvvogORelMDIMMys2VJm5Xsjz6hjdYc0pKuk/Ljeu0D352cf1sAW+bHxmi3yNFy4EzgCOWfDEcNgAzJzN4FfJN0TleGNwe4lfkF/zd6wy1HbgjeyvyGYCPUEIzkUeAT7n5RdCBSP2oAZAFmtjJwOrBrdCw1NYc0pT+J+QX/yciA2srMlmPBhmBD1BAM5xLgQHd/JDoQqQ81AALMu4L7o6Qp/wnB4dTJHOAvLFjw/xMZkAzNzF7Egg3Ba1FDMNB00oW8Z9T1ThKplhoAwcxWBH4AbBccSl08A1wMXAD8WgW/mXJD8DZgT2A3YHxsRLXxC+AD7v5YdCASSw1Ay5nZrsB3gZdGxxJsNvBL4CfAxe7+THA8UiAzG09qAvYD3o7WJHgc+LC7XxwdiMRRA9BS+Q3xJODD0bEEuwk4Gzjf3f8VHYyUz8xeBuwNvAftWPkd4JNqeNtJDUALmdnrSZ90146OJcjdpJ//HHe/NzoYiWNmawL7kmYG2vz7sJ+73xwdiFRLDUCLmNkY0kVARwNLxEZTuX8C5wE/cfc/Rgcj9WNmbyA1AvsAKwSHU7XnSe8Lx7v7nOBYpCJqAFrCzFYFfkxaWKUtngZ+Rvq0f412TZPRyLtcbktqBnYnbXTUFtcD73X3B6IDkfKpAWgBM3sn8CNguehYKuDAVaRm5xIttyu9yMsU7wq8F9iBdqyI+STwPne/LDoQKZcagD6Wp/yPJW3g0+9vXLNJU/zHu/vt0cFI/zGzDUin0Pah/+8icNLGQkfqlED/UgPQp8zspcA5pFue+tlM4PvACe4+JToY6X9mtjrwGeC/gKWCwynbL4F93f3x6ECkeGoA+lC+mOlC4JXRsZRoOnAGcJK7/yM6GGkfM3s58EnSCpr9vHrmQ8Aeuni2/6gB6DNmtj9wKrBkdCwleRw4BThNa/BLHeQ9CT4OHEz/Lqj1HHCQu58ZHYgURw1AnzCzcaRPxO+PjqUkDwMnAt/RhX1SR/mCwQ8DnwZeERxOWX4IfNTdZ0QHIr1TA9AHzGwN0pT/RtGxlOBu4KvAj939+ehgREZiZkuQ7ho4nP5cXOhW0imB+6IDkd6oAWg4M3szaavPl0THUrA/A18BLtRVyNJE+S6cPYDPAhsHh1O0fwO7uvvvogOR7qkBaDAz24e0i9/Y4FCKdD1wnLtfFR2ISFHMbAfS7bj9tBDXLNKugudFByLd0V7ZDWVmnyXd5tcvxf8hYE93f6uKv/Qbd7/K3d9K2pr4oeh4CjIWOCe/F0kDaQagYcxsceDbwAejYynIc8A3gC9rRzJpg7wT5xeAQ+mfu3XOAg5w99nRgcjoqQFoEDObCFxA/yzucw3wcXefHB2ISNXMbB3gNNK+A/3gl6RZvGnRgcjoqAFoCDNbBbgCeHV0LAV4GDjU3X8aHYhINDPbizQL1g+3Dv4N2MndH4wOREamawAawMxeB9xE84v/88DXgHVV/EWS/LuwLul3o+m3ur4auCm/Z0nNaQag5szs7aQtbcdHx9Kja0nT/XdGByJSV2a2Hum0wNbRsfToGWB3d/9ldCAyPM0A1JiZ7QpcRrOL/yPAPu6+jYq/yKK5+53uvg1px8FHouPpwXjgsvweJjWlGYCayvf4/5jmbjv6PGnN/mPc/enoYPqNmY0F1gBeDCxD2oxmwqA/D/7vof4MaWOlp/PXRf15qP/3BHCfu88q8+dtIzNbBjiKtMfAEsHhdGs28F6tFVBPagBqyMw+CPwvzZ2huY403X9HdCBNlleSW5W0nOzgxyrUJz/mAA+Slm0e/HhAKzn2xszWJ50W2Co6li7NAT7i7mdFByILUgNQM2Z2EHAyYNGxdGEqcIi7nxsdSJPkbWUHFve18tdX0fyFnmYBfwfuYVBzoG2cO2Nm7ya9NywfHUsXnPTecGp0IDKfGoAayStqHRcdR5euA/Zz98eiA6kzM5sAvAXYEngrsD4wMTKmQNOAO4DfAJOA37r79NCIas7MVgR+QnNnAz7n7l+JDkISNQA1YWb/Q1orvGnmAMcCX9JU78IGFfwtgdcBiwWGVGcvAH8iNQOTUEMwpHxq6IvAkdTnNFAnjnP3z0cHIWoAasHMTgEOio6jC4+SPvVPig6kLvKFW4MLflMv5Iw2m4UbAl1QmpnZlqTZgJWCQ+nGqe5+cHQQbac3pnp4NjqALlwFvM/d/xUdSCQV/FItDmyaH4cDs81MDUHm7pPMbCPgR8AO0fF0qInveX1HMwA1YWZfAY6IjmMUZpM2MvmatzR58rT+7sB7SOdiVfBjzCZde3I28LO2ni4wMwMOA75MM3LxeHfXDoI1oAagRhrQBDwIvNvdb4gOpGpmtgSwPbAfsCswLjYiGWQGcAlpSvxqd2/6krodM7M3AeeSbhGtKxX/GlEDUDM1bgIuAf7L3f8THUiVzGxz0if9/we8NDgcGZ3Hgf8Dznb3G6ODqZKZvQj4PqlJrRsV/5pRA1BDNWsCngMOc/dTogOpSt6mdb/8WCM4HOnNfaRZgZ+0adtpMzuYtLnQktGxZCr+NaQGoKZq0gTcB+zt7jcHx1G6vBjPPqSi//rgcKQcN5OagfPasAiRmb0eOJ/4JlbFv6bUANRYcBPwf8CH3X1a0PilyxdP7Q7sD2yD7s9vixeAXwFnki4e7Ns3QTObCHyHdAorgop/jakBqLmAJmAmacnOMyscs1L5gr59Scd13eBwJNZdwPHAOf184aCZ7U9aRnipCodV8a85NQANUGET8C/gHf065W9m44APAp+h3ldKS/UeBE4AznL3GdHBlCGfEvg58LIKhlPxbwA1AA1RQRNwP7Cdu99T4hghzGxZ4EDStqpN3EhFqjOVtI316e7+VHQwRTOztYBfAKuVOIyKf0OoAWiQEpuAvwA79NtGPma2AnAI8DHau+GOdGca8C3gZHf/Z3QwRcobCl0FvLaEp1fxbxA1AA1TQhPwG2CXfvq0Y2arkqb5P0i15zyl/8wEzgJOcPcHooMpSp4Vu5S0I2VRVPwbRg1AAxXYBFxMWtlvZgHPFc7M1ietGb8vzVgSVZpjNnAO8FV3vyM6mCKY2VKklQN3K+DpVPwbSA1AQxXQBHwH+Ki7v1BQSGHMbA3SoifvAiw4HOlvDlxEWhzrvuhgemVmiwFnAB/u4WlU/BuqiXtJC5B/4Y7v8p9/2d0/0vTib2ZLmdnRwO3AHqj4S/mMlGu3m9nR+VN0Y7n7C+7+EdJGQt1Q8W8wzQA0XIczAXOAg939tBJDqoSZvZN0tfbq0bFIq00h/U5dFh1Ir8zs46TfqdF+MFTxbzg1AH1glE3Ac8D73P38CkIqTZ7uPwXYOToWkQEuJzUCjT4tYGZ7Az9i5D0EVPz7gBqAPjFCEzAd2N3df1VhSIXKU61HkC7ya/S0q/StmcBXScWxsRfWmtk2wM+ACcN8i4p/n1AD0EeGaQKmklb3+1NASIXQdL80TONPC5jZ60irBg5eOEvFv4+oAegzg5qAKaTV/e4NDKlrebr/VGCn6FhEunAFcFBTTwuY2ZqkVQPnNt4q/n1GDUAfyk3AjqTV/Rq37Wles/8I4DA03S/NNpN0i+rxTdxjIG+TfRVwpYp//1ED0KfMbFxD33B2BE5H0/3SX6YAB7r7ldGBdKqp7yUyMjUAUgt5i97jgUOjYxEp0TeAI/p562FpDjUAEs7MVgfOA94YHYtIBf4A7OPuU6IDkXZTAyChzGwP0mYry0bH0lAzgHvz4z+kWz6nA08P83Xw3wEsQ7rla+7XCUP83cD/9yJgzfwYV/LP16+eAj7o7hdGByLtpQZAQpjZWODrwIHRsTTAbOB+4O5Bj3uAhzzol9jMDHglsBaw9qDHamhDptE4HfiUu8+KDkTaRw2AVM7M1gLOBzaOjqWG7gJ+C9zJ/EI/pWnnjPM1HaszvyFYD3gLsG5kXDX1Z2Bvd78nOhBpFzUAUikzezdwJsOvMtY2dwGT8uPXTbxtsxP5trK3AVvmhxqCZDqwv7ufGx2ItIcaAKlEvrf/VOBD0bEEu5MFC/4/Q6MJZmYrsGBDsF5kPDXwXdLiQbrtTkqnBkBKZ2brAf8HvDo6lgB/J62mNgkV/BENagi2A14VGlCMvwH/z93vjA5E+psaACmVmX2AdKHT0sGhVOlx0jUOZ7v776ODaTIz2wx4D7A38NLgcKr0LGnhoB9EByL9Sw2AlMLMFge+DXwwOpaKzAAuBc4GrnL32cHx9JWcTzuQmoFdaM/th2cBByifpAxqAKRwZrY0acq/3zfxmQNcRyr6F7r79OB4WsHMJgB7kJqBrYAxsRGV7grSKYFnowOR/qIGQAplZi8GLgc2j46lRLeRiv457v5odDBtZmYrAfuSmoENg8Mp043Azu7+RHQg0j/UAEhhzOwVwNXA+tGxlGA2cC5worv/JToYWZiZvRb4NPBu+nMRojuA7d394ehApD+oAZBC5Cv9ryatDNdPZgDfA05w9weig5GRmdmqwGeA/6b/rhV4iNQE6A4B6ZkaAOmZmW1OmvZ/cXQsBZoGfAs4yd2nRgcjnTOz5YFPAh8DJgaHU6QnSKcDbowORJpNDYD0xMx2Il3w1y+3+U0FTga+5e5PRQcjvTOzZUlNwCHA8sHhFOVZ0oWBV0QHIs2lBkC6ZmbvJ61c1g/nWx8ATgTO0ips/SmvRvlB0nUCqwaHU4TZwIfc/YfRgUgzqQGQrpjZZ4CvAhYdS4/uAr5CuqJf91q3QF5TYF/gszR/LwIHDnf3E6IDkeZRAyAdyVvAnggcGh1Lj6YDRwHfVOFvp9wIfAI4huZvTvUN4NNRW0NLM6kBkFHLW7x+j3TPdZOdQ3qzfCw6EIlnZiuSmtp9o2Pp0dnAfzdt62iJowZARs3M9gV+Eh1HD24HPu7uk6IDkfoxsy2B04ANgkPpxX7ufk50ENIM/b6EphQov7EcEx1HF6aTLvzaSMVfhpNzYyNSrjRxWedjVPylE5oBkI6Z2dGk8+dNcB7wKS3ZK53ISwx/HdgnOpZROsbdj44OQppFDYB0pQFNwB2k6f7rogOR5jKzrUinBeq8vLWKv3RFpwCkK/kNp46nA2YBh5Gm+1X8pSc5hzYi5dSs4HCGouIvXdMMgPSkZjMBdwN7u/ut0YFI/zGzjYDzgbWjY8lU/KUnmgGQntRoJuAnwOtU/KUsObdeRz3uhFHxl56pAZCeBTcBz5KWQ32Puz8dFIO0hLs/7e7vAT5Eyr0IKv5SCJ0CkMIEnA64g7Qhyu0VjikCgJltQNoIq8oLBFX8pTCaAZDCVDwT8D3gDSr+EiXn3htIuVgFFX8plGYApHAlzwQ8DRzg7nU4DysCgJntB3wbWKakIVT8pXBqAKQUJTUBt5Ku8r+74OcV6ZmZrU26S2Cjgp9axV9KoQZASlNwE/Bd0sI+dbwXu1HMbCxp97u5O+BNB6br2PYuH9vTSBcJFkHFX0qjBkBKVVATcLS71+FWw1oys6WBtQY8XgUsx/wiP/ixxDBP9Ty5GRji8STwd+CeuQ93j7oKvvbM7Cjg6B6fRsVfSqUGQErXQxMwBzjQ3b9dbETNY2ZjgHVIi9CsNeDrWsBKgFUckgOPMr8huHvA18nuPqfieGrHzA4ATqe7i61V/KV0agCkEl00AbNIW5teWE5E9WZmS5AWnXkr8DbgzcCyoUGN3lPA74BfA78B/tTWPerNbA/SwkFjO/hnKv5SCTUAUpkOmoBpwG5tWsvfzJYCNiUV+7cCmwNLhwZVnGeBG0nNwK+Bm9x9ZmxI1ckbCl0MTBzFt6v4S2XUAEilRtEE/BPYoQ1L+prZysDewG6k4r9kbESVeQ64iVQUz3f3R4LjKV3eR+AqYIVFfJuKv1RKDYBUbhFNwN+B7dz9vmojqo6ZvQTYE3g3sAVajGsOcD1wLnCBu/87OJ7SmNkawC9IF2kOpuIvlVMDICGGaAL+DOzo7v+Miag8ZrYMsCup6G/H8Ffht93zpAJ5LnBJP+7tYGYrAFcCGw/4axV/CaEGQMIMaAKuI53znxYbUXHMzICdgPcC7wTGxUbUODOAy4AfA1d4H71RmdlE0umPrVDxl0BqACSUme0NXNwvi9DkhWDeA3yGdNue9G4ycAJwdp/lyW7ufn50LNJeagBECmBmywIHAAcDKwaH068eA04Bvu3uT0UHI9J0agBEepCv5D8E2J/5S+tKuaYDZwInt+EOApGyqAEQ6YKZrU+a5t+X9ty+VzfPAecAJ7j7HdHBiDSNGgCRDpjZ8sBxwH+hW/jqYg7wfeBz7j41OhiRplADIDIKZrY48HHSBi9NWZK3bZ4ivT6nufvs4FhEak8NgMgIzGxb0sVn60fHIqNyB3Cwu18THYhInWkKU2QYZra6mV0E/BIV/yZZH/ilmV1kZqtHByNSV5oBEBnEzJYGjiBd5LdUcDjSm5mkNQSOd/dno4MRqRM1ACIDmNmmpKVo9cmxv0wB3u3uN0UHIlIXOgUgQlq618wOB36Lin8/Wh34rZkdnpdpFmk9zQBI6+UNWn4MvD06FqnEL4H39uPGUyKd0AyAtJqZbQfchop/m7wduC2/9iKtpQZAWsnMljCzrwJXAStExyOVWwG4ysy+ambanllaSacApHXyrWHnAW+MjkVq4Q/APu4+JToQkSqpAZBWMbMtgEuB5aJjkVp5EtjF3a+PDkSkKjoFIK1hZrsDv0DFXxa2HPCLnCMiraAGQFrBzA4ALkAL+8jwlgIuyLki0vfUAEjfM7NjgDNQvsvIxgBn5JwR6Wu6BkD6lpktRir8H46ORRrpO8BH3f2F6EBEyqAGQPqSmY0jXem/S3Qs0miXku4QmBEdiEjR1ABI3zGzpYBfAW+KjqWmZgJPA9Pzf08AlkHXRwznBmAbd58ZHYhIkRaPDkCkaO4+08x+QfsagCeBewY9puS/n1vwp7v77KH+sZktTmoG5jYEy5HW0F9r0KNtd1H8QsVf+pFmAKRvmdlRwNHRcZTkMeD6/PgTcI+7P17FwGb2UlIj8Dpgi/xYsYqxAxzt7rogUPqSGgDpa2Z2JNAPb+D3Mr/g/8bd/x4czwLMbE3mNwNbAGvGRlSIo9z92OggRMqiBkD6XoObgDuAc4Hz3P3e6GA6kRuCfYB3A+sHh9MNFX/pe2oApBUa1ATcT7p74Vx3/0twLIUws9eSGoF9gNVioxkVFX9pBTUA0hpm9kWgjm/szwE/Af7X3X8fHUyZzGwz4CPAfsCSweEM5Uh3/1J0ECJVUAMgrVKzJuBJ4NvAqe7+WHQwVTKzFYGDgAOoz10FKv7SKmoApHVq0AQ8AJwMfNfdnw6MI5yZLQN8CDgEWDUwFBV/aR01ANJKZvYFoOo3/AeAzwPnD3cvflvlNQj2Bv6H6huBL7r7lyseUyScGgBprQqbgGeBrwInaEnZRctLOH8GOBxYuoIhVfyltdQASKuZ2eeBMgvAecBh7v5QiWP0HTN7JfA10p0DZfmCu/9Pic8vUmtqAKT1SmoCbgEOdvffFvy8rWJmbwFOATYp+KlV/KX1tD+6tF4uBF8o6OleAL4IvEHFv3f5GL6BdEyL2pZXxV8EzQCIzGNmnyNdhNatB4F93f13BYUkA5jZm4FzgFV6eJrPu/txBYUk0miaARDJcmH4fJf//EJgIxX/8uRjuxHpWHdDxV9kADUAIgN00QTMAA5w9z3d/T8lhSWZu//H3fckLSDUyR0VKv4ig+gUgMgQzOyzwEgF42Fgp35Zs79p8h4DVwCvGOFbP+fuX6kgJJFGUQMgMowRmoDbgR11e1+sfLvglcAGw3yLir/IMHQKQGQYuXB8boj/dT2whYp/vPwabEF6TQZT8RdZBDUAIouQC8hnB/zVRcB2Ot9fH/m12I702sz1WRV/kUXTKQCRUTCzI0jnmg9y9znR8cjCzGwMcCrwsLsfHx2PSN2pARAREWkhnQIQERFpITUAIiIiLaQGQEREpIXUAIiIiLSQGgAREZEWUgMgIiLSQmoAREREWkgNgIiISAupARAREWkhNQAiIiItpAZARESkhdQAiIiItJAaABERkRZSAyAiItJCagBERERaSA2AiIhIC6kBEBERaSE1ACIiIi2kBkBERKSF1ACIiIi0kBoAERGRFlIDICIi0kJqAERERFpIDYCIiEgLqQEQERFpITUAIiIiLaQGQEREpIXUAIiIiLSQGgAREZEWUgMgIiLSQmoAREREWkgNgIiISAupARAREWkhNQAiIiItpAZARESkhdQAiIiItJAaABERkRZSAyAiItJCi0cH0CZmNh5YJz9WAyYCE4Bl8tfh/rxkQLgiIr14DpgOPJ2/DvfnacD9wGRgsrs/ExFsG5m7R8fQV8zMgFVIRX5d5hf8dYBXBIYmItIED5Obgfy4K3990FWwCqUGoEdmthTwZmDr/NgQGBcalIhI/5kB3AZcmx+/c/eZsSE1mxqADpnZEsAbmV/wNwfGhgYlItI+s4Abmd8Q/MHdn48NqVnUAIyCma0P7EQq+FsA42MjEhGRQZ4Bric1A1e4+x3B8dSeGoBhmNnywLuB9wGbBIcjIiKduQX4EXCuu0+NDqaO1AAMkM/n70Iq+tujuyRERJpuNnA1qRm4VNcNzNf6BiBftf8WUtHfC1g2NiIRESnJU8BPSc3Ab9t+V0FrGwAzGwd8GDgEWD04HBERqdYU4GTgO+4+IzqYCK1rAMxsGeBjwKeA5YPDERGRWFOBrwPfcveno4OpUmsaADNbDjgIOBh4cXA4IiJSL08ApwCnuvuT0cFUoe8bADN7KXAocCBp6V0REZHhTANOB77h7o9HB1Omvm0AcuH/HLA/sHRwOCIi0izPAmcCx/VrI9B3DUC+qv9DwPFoql9ERHrzBHAE8N1+u2ugrxoAM9sIOAPYLDoWERHpK78HPurut0YHUpQx0QEUwcwmmtkpwM2o+IuISPE2A242s1PMrC+uJ2v8DICZ7QN8A1gxOhYREWmFx4BD3f286EB60dgGwMzWIV2puU10LCIi0kq/Ag5098nRgXSjkacAzGx/4FZU/EVEJM42wK25JjVOo2YAzGwC8B1g7+hYREREBjgf+LC7T48OZLQa0wCY2SakA7xmdCwiIiJDuBfY291viQ5kNBpxCsDMDgRuQMVfRETqa03ghlyzaq/WMwBmtixwFrBHdCwiIiIduBD4oLs/FR3IcGrbAJjZG0hT/tqqV0REmmgK6ZTAH6MDGUotTwGY2Z7A9aj4i4hIc60OXJ9rWu3UrgEwHfMCXQAAIABJREFUs4+SPvmPjY5FRESkR2OB83Ntq5VaNQBmdjTwLWoWl4iISA/GAN/KNa42anENgJmNIRX+Ri6mICIiMkpnAh9z9znRgYQ3AGY2FjgHeFdoICIiItW4CNjX3WdFBhHaAOQdlS4BtgwLQkREpHqTgF3dfVpUAGENgJmtAFwNbBgSQKwZwD3AXflxHzANmA48Pfiruz8XFKeISFfMbElgGWDCEF8nAmsA6+bHWsC4mEhD3QZs7+7/jBg8pAHIn/x/QzuK/yPAtcAtzC/4D9bh/I+ISB3k68BWYX5DsAmwNbByZFwVuQ14a8RMQOUNQD7nfxX9O+0/lTS1cy1wnbvfHRuOiEgzmdnawFakZmBLYPnQgMozCdih6msCKm0Acpf3U/rvgr+/Aj8GrgRu9+grK0VE+oyZGbABsCPwXuA1sREV7iJgrypnh6tuAL5N/9zqN5V098KP3P3P0cGIiLSJmW0MvA/Yl/6ZGTjT3Q+oarDKGoC8AMJRlQxWnlnApcAPgavdfXZwPCIirWZmiwPbA+8HdqH5q8ge4+5HVzFQJQ1AXgLxW6UPVJ5nSIs3nOjuj0UHIyIiCzOzFYFPk2aaxweH04uPufsZZQ9SegOQN0E4n2Yu7/sU8E3gZHf/d3QwIiIyMjN7CXAI8Alg2eBwujGHtIvgBWUOUmoDkLf0vZ7mTcn8CzgJOD1ykQYREelevuX8QOCTwMuCw+nULGCLMrcSLq0BMLNlgT/TrC19nycV/mPd/ZnoYEREpHdmNh44ktQILBEcTiemABu7+1NlPHmZ0/Jn0azifx2wobsfruIvItI/3P0Zdz+ctPjcddHxdGB1Ui0tRSkNgJkdCOxRxnOX4B/Afu6+tbvfGR2MiIiUw93vdPetgf1I7/1NsEeuqYUr/BSAmW0C3ED9z/vPAU4Dvqjz/CIi7ZKvD/gS8HHqf5H6LOBN7n5LkU9aaANgZhNIa96vWdiTlmMq6VP/NdGBiIhIHDPbFvgJ9V9M6F5gE3efXtQTFt31fIf6F/9JwEYq/iIikmvBRqTaUGdrkmpsYQprAMxsf2Dvop6vBHOALwPbajEfERGZK9eEbUk1os47te6da20hCjkFYGbrALcCS/X8ZOWYCrzH3X8ZHYiIiNSXmb0dOJv6nhKYSZrFntzrExU1A3A69S3+twOvU/EXEZGR5FrxOlLtqKOlSDW3Zz03AGa2D7BNAbGU4QbSSkoPRwciIiLNkGvGFqQaUkfb5Nrbk55OAeTbKO4CVuw1kBJcQdpbeUZ0ICIi0jxmNg74KbBTdCxDeAxYt5fb2HudAfgS9Sz+PwR2U/EXEZFu5RqyG6mm1M2KpBrcta5nAMxsI+BmYLFeAijBicBhXsU+xyIi0vfMzICvkbYarpMXgNe7+63d/OOuZgDywTiDGhZ/d/+Mir+IiBTFk8+QPmDWyWLAGbkmd6zbUwAfAjbr8t+W5YfAYdFBiIhI3zqM+p0O2IxUkzvW8SkAM3spMBl4cTcDluQK0jn/2dGBiIhI/zKzxYGLqdeFgU8A67j74538o25mAD5HvYr/DaSr/VX8RUSkVLnW7EW9bhF8Mak2d6SjGYD86f8BYOlOByrJ7aT7/P8THYiIiLSHmb0IuB7YIDqW7Flg1U5mATqdATiU+hT/qcAOKv4iIlK1XHt2INWiOliaVKNHbdQzAGa2HOnT/8TO4yrcHFLx1/K+IiISJu8dcBXF767bjWmkWYAnR/PNnQR8EPUo/gDHqfiLiEi0XIuOi44jm0iq1aMyqhkAM1uG9Om/Dhf/TSJt6ftCdCC9MrMlgNVJKzqtlB8rDvq6Uv72R0lLPz466M9zv05x9+erjF/qS7klZVFuLczMFgOuAbYMDgXSHQGruvvTI33jaBuAw4CvFhBYr6aStkF8LDqQbpnZBNJ5o92AdwDLFfTUTwI/J92ecpW7Ty/oeaUhlFtSFuXWyMxsReBW6rGN8OHu/rWRvmnEBiBvhnA/8T/UHGB7d78mOI6O5cR4J+mXZ2tgbMlDzgKuJf1SXdbkhkkWTbklZVFudc7MtgWuJv56gKnAaiPthzOaBuAg4JQCA+vWqe5+cHQQo5Ubp/2BvYFNga6WaiyAAzcB5wNnaoOk5lNuSVmUW70zs1Po4Dx8iQ5291MX9Q2LbADy+sJ/J53vifQP0ipHXW97WBUzGwN8ADgGeEVsNAt5GDgK+IG7z4kORjqj3JKyKLeKY2YTSavlvjw4lCnAqxa1N85I0xRvIb74A3yqIcV/Z+AvwFnU75cIUkxnAX/JsUpDKLekLMqtYuVa9anoOEi1+y2L+oaRGoD3FRdL165z93Oig1gUM9vUzCYBl1GfVaEWZQPgMjObZGabRgcjw1NuSVmUW+XJNeu66DgYoYYPewrAzJYiTb0vW0JQo/U8sKG73xkYw7DM7JXAN4A9o2Pp0QXAoe7+UHQgkii3pCzKrWqY2XrAbcASgWE8Bbzc3WcO9T8XNQOwC7HFH+CkGhf/NwE30/xfIkg/w835Z5Jgyi0pi3KrOrl2nRQcxrKkWj6kRTUA0dP//wKODY5hSGb2AdL0TvStkUVaHrgu/2wSRLklZVFuhTiWVMsiDVvLh2wAzGx5YPvSwhmdk9z9meAYFmBmY8zsROD7wJLR8ZRgSeD7ZnZivipYKqLckrIot+LkGhY9C7B9rukLGfIaADM7GDi57KgW4SlglTpd+Z9v7TgP2DE6lopcCexTp9egXym3pCzKrXj5NXiQ2FPqh7j7Quv5DNctRU//f7NmL+CawO9pzy8RpJ/19/lnl5Iot6Qsyq16yLXsm8FhDFnTF5oBMLP1gduriGgYz5A2Mvh3YAzzDPglekl0LEH+DWzm7vdGB9JvlFvKrbIot+qVW2b2EtKGeuMDw9jA3e8Y+BdDzQDsVFEwwzmzRsV/InAp7f0lgvSzX5qPhRREuQUot0qh3AJqllu5pp0ZHMZCtX2oBmDrCgIZzizgxMDx58kXk5wHrBcdSw2sB5xXtwtsmkq5tQDlVoGUWwuoW26dSKpxURaq7QscmLzP8xaVhbOwS2u0A9TXaNe5s5HsSDom0jvl1oKUW8VRbi2oNrmVa9ulgSFskWv8PIM7ozcSe47ih4Fjz5PvKa3DWs5186ka32/bCMqtYSm3eqTcGladciuyxo0n1fh5BjcAkdP/U0n7KIfKq0pFn6upszPruvJW3Sm3RqTc6pJya0R1ya2rSbUuygI1vk4NwDnuPjtw/LlrZP+M/lwsoyhLAj/Lx0pGSbk1KsqtLii3RqUWuZVrXOTmdkM3AHnzn80rD2e+HwWOPdc36K9lMsuyPOlYyegpt0ZHudU55dbo1CW3Imvd5rnWAwPWATCzbYBrgoL6q7u/NmhsIG2NSbpvVkZvM3e/KTqIulNudUW5NQrKra6E55aZ/QV4TdDw27r7r2DBUwCR0/8/Dhx7rq9GB9BAOmajo+PUOR2z0dFx6lwdjllkzZtX6+vSAFwZODZmtjPwtsgYGupt+djJMJRbXVNujUC51bU65FZkzZtX683dMTMjLcE7LiCYqcDLfahdiSqQF4n4C7BBxPh94Hbgte4+JzqQulFu9Uy5NQzlVs9CcyvX3H8Qc+3GDGC8u/vcGYBViCn+AJOiin/2AfRL1IsNSMdQFvYBlFu9UG4N7wMot3oRmlu55k0KGn4cqebPOwWwTlAgANdGDWxm44BjosbvI8fkYymZcqswyq1BlFuFic6tsNpHrvlzG4B1AwO5LnDs/YFXBI7fL15BOpYyn3KrGMqthSm3ihGdW5G1b12InwF4xN3vDhobYO/AsfuNjuWCdDyKo2O5IB2P4oQdy1z7HgkafoEZgKgGIHL6f0Vg06jx+9Cm+Zi2nnKrcMqtTLlVuOjciqqBtWgAbgkaF+CdgAWOP5Q5wO+Aw0i3aqwLTMyPdfPfHZa/p25XRhvpmIpyq2jKrfmUW8WKzq2oGjiv5o8HPOixg7sT8QB+HvhzD37MAE4AVugg/hXyv5lRg/jnPn4e9XrW6aHcUm4pt5RbozweOwT+3OMBNgkMYLWggz4BmFmDxHPgImCVHn6WVfJzRP8cno/phOg3yciHcku5pdxSbnVwHFYL/Lk3GUPc9P8M4MGgsXcAxgaNPZcDRwN7uHvXxyH/2z3yc3khkXVvLOnYtplyqxzKLeVWWSJz60FSLYywzhhSBxLhHo9b4Wu3oHHncuD97n6M5zawpydLjgHeT/wvU/SxjRb98yu3+lf0z6/cKliugfdEjA2sNoZ0oUaEuyIGNbMlgHdEjD3AMe5e+GYQ+TmjFwh5Rz7GraPcKp1yK5ZyqxwhtRCYOIZ0XilC1A+9OrBc0NgAPwOOLfH5j81jRFmOdIzbSLlVLuVWHOVWeaJq4YQxwDJBg98XNG7kPZ8zgUOKmD4bTn7uQ/JYUdp6z/ZKgWO3Jbcij3EkvW+VLyq3omrhMpEzANOCxo18AzmtlwtnRiuPcVrZ4yyC3qSr15bcUnNZPeVWuaJq4YTIBmB60LhRv0hzgBMrHO9E4hbdaGsDoNwqn3KrWsqt8kXVwtBTAE8HjRvV5d3o7v+sarA81o1VjTdIWz+lKbfKp9yqlnKrfFG1MPQUQNtmAC5pyZigT2lVU271P+VW+Vo5AxDVALRtBuDmlowJ7f2UFvUG0qbcamsDoPet8kXlVlQtDD0F0LYZgEdbMiboTbpqbcotNZfVUm6VL6oWhp4CiOp69ItUvrY2AMqt8im3qqXcKl/oDICIiIi0zBgCpx+Cxm1Td9mmTw11oNwqn3KrWsqt8oWdhh9D4PRD0Lj6RSpfW9+kHwsat025FXWMo+l9q3xRuRV2Gr6NMwBRL/LrWzIm6E26am3KLTWX1VJulS90BiDsHsSgcaNe5F1bMia0901auVU+5Va1lFvlC1uLJ/IUQNtmADY3sxWqGiyPtXlV4w3S1hkA5Vb5lFvVUm6VL2w1Xs0AVGcM8OkKx/t0HjOCPqVVS7nV/5Rb5WvlDEBUAzAxaNzIN5CPm9kqZQ+Sx/h42eMsQlvfpCM/nbYlt9o6A6D3rfJF5VZULQw9BbBG0LiRbyBLASebmZU1QH7uk/NYUfQmXb225Jaay+opt8oVVQtDTwGsGzTuFODJoLEBdgeOLPH5j8xjRHmSdIzbSLlVLuVWHOVWeaJq4fQxwLSgwUN+aHd/Hvh5xNgDHGVm7y36SfNzHlX083bo5/kYt45yq3TKrVjKrXJENQDTxgD3Bw2+lplFXexxcdC4cxnwQzM7qohpNUuOAn6YnztS9LGNFv3zK7f6V/TPr9wqWK6Ba0WMTa79mwAe9FjN3an6Qbrqcmbgzz3wcRGwSg8/yyr5OaJ/Ds/HdELEa1qXh3JLuaXcUm51cBxWC/y5NxkDTCZO1GmA6cC1EWMPYXdgspmd0Mn9tma2gpmdQHr9Is+dDXRtPratpdwqjXJLuVWWyNyKmv4HmLy4uz9jZg8DrwgIYF3gqoBxIU357Bg09mBLke5/PdTMbgQuAW4mXZU698rUlfLj9aSVsjYn7n7Z4URPUdaFcqt4yq1EuVW8yNyKagAedvdnzN0xs2uAbQKC+LG7vy9gXMxsReAR4s899QsHVnb3tt4COI9yq3DKrUy5VbjQ3DKzHwGFX1g5Cr9y923ndmJRpwG2DhqX/ILfFDV+H7pJb9CJcqtwyq1MuVW46NyKqoGTYf5UTFQDsLKZrR00NsD5gWP3Gx3LBel4FEfHckE6HsUJO5a59q0cNPwCDcBdQUEAbBU49pnAw4Hj94uHScdS5lNuFUO5tTDlVjGicyuy9t0F8TMAEHsaYAbxC1D0g6PysZRMuVUY5dYgyq3CROdWWO0j1/y5FwEa8AwwLiCQqcDLPd8UWbW8EMNfgA0ixu8DtwOvdfc50YHUjXKrZ8qtYSi3ehaaW7nm/gNYPmD4GcB4d/cxALn43hYQCKQDEJbEOQGOiBq/DxyhN+ihKbd6ptwahnKrZ9G5tQExxR/gtrkfuAfejxm5wETofa3ufjnw68gYGurX+djJMJRbXVNujUC51bU65FZkzZtX6+vSAETcBznY4dEBNJCO2ejoOHVOx2x0dJw6V4djFlnzhmwAfgfMqj4WAF5jZhsHjQ2Au98EXBAZQ8NckI+ZjEC51THl1igptzoWnlu51r0maPhZpFoPDGgA3H0mcGNERFnIioCDHEq6KFEWbSrpWMnoKbdGR7nVOeXW6NQltyJr3Y251gMLr8kceRpgXzNbPHB83P0h0gYVz0XGUXPPAbvnYyWjpNwaFeVWF5Rbo1KL3Mo1bt/AEBao8XVqAJYHtg8cHwB3vwHYPzqOGts/HyPpkHJrRMqtLim3RlSX3NqeuKv/YYQG4A+k9QCivD9w7Hnc/QfA16PjqKGv52MjXVJuDUu51SPl1rDqlFuRNe4ZUo2fxwavv2NmVwI7VBjUQLOA1euw8UdeaONy6rP1ZrQrgZ11X3bvlFsLUW4VRLm1kNrkVt7JcQowNiiEq9x9gbwYal/myNMAY0n7S4fLCbMPcGd0LDVwJ7BPHX6J+oFyawHKrQIptxZQt9z6NHHFH4ao7UPNAKxPWiYxyjPAqu7+78AY5jGzNYHfAy+JjiXIv4HN3P3e6ED6jXJLuVUW5Va9csvMXgI8AIwPDGMDd79j4F8sNAOQv+GWykJa2HjgkMDxF5ATaDPa2VHfSY1+ifqNcku5VRblVu1y6xBii/8tg4s/DH0KAOBHJQczkk+Y2cTgGOYZ8Mt0ZXQsFbqS+v0S9R3llpRFuVUPuZZ9IjiMIWv6cA3AucDs8mIZ0bLAgYHjL8TdpwE7046rbL9OunBmWnQgbaDckrIot2rhQFJNizKbVNMXstA1APP+h9nlwE4lBjWSf5HuCIi8LXFIZvYB4ExgyeBQivYc6X7ZH0QH0lbKLSmLcqt6ZjaedOX/ywLDuMLddx7qfww3AwDxpwFeBhwZHMOQcqJtRX8tvzkV2KqOv0RtotySsii3QhxJbPGHRdTyRc0ALAX8g9ipi+eBDd29lheymNkrgW8Ae0bH0qMLgEOjl8mU+ZRbUhblVjXMbD3gNmCJwDCeAl4+cP3/gYadAcj/4KdlRTVKSwCnB8cwLHd/yN33Il1o08R9uX9NumBmr7r+ErWVckvKotyqzOnEFn+Anw5X/GHRpwAg/jQAwFZmFrl5wojc/SZ33xJ4J7FrKIzW7cA73X3L6K0xZdGUW1IW5VZ5cs3aKjoORqjhw54CADAzA/4OrF5wUJ36B7BODa/uXEheivMDwDHAK2KjWcjDwFHAD2q0OpaMknJLyqLcKk6+7W8y8PLgUKYAr/JFFPlFzgDkf3hy0VF14eXAl6KDGA13n+Pu3wPWBj5JWo1r+C6rgpByDJ8E1nb37zXhl0gWptySsii3CvUl4os/wMmLKv4wwgwAgJmNA+4ndgtDgDnA9u5+TXAcHcubQLwT2A3YmvLXg55FWvf5YuCyOmyuJOVQbklZlFudM7NtgasZ+fR62aYCq7n7jEV904gNAICZHQZ8taDAejEV2KiJiTGXmU0g7ba4G/AOYLmCnvpJ4OekX56r3H16Qc8rDaHckrIot0aWG6Zbif+wDHC4u39tpG8abQOwDGkjgxcXEFivJgHbuvsL0YH0ysyWIF1fsSKwUn6sOOjrSvnbHwUey18H/nnu1ynu/nyV8Ut9KbekLMqthZnZYsA1wJbBoQA8QdpQ7+mRvnFUDQCAmR1JukCkDr7s7l+MDkJERMTMvgR8ITqO7Ch3P3Y039hJA7AcaRagDpv0zAF2cPdfRgciIiLtZWZvB64i/rw/wDTSp/8nR/PNow44P2FdFuUZA5xtZnW7XUVERFoi16CzqUfxBzh9tMUfOpgBADCzl5JmAZbuIrAy3A5s4e7/iQ5ERETaw8xeBFwPbBAdS/Ys6dP/46P9Bx11LfmJz+w0qhJtAFyeb1UUEREpXa45l1Of4g9wZifFHzqcAYB5swCTqccdAXNdAezm7rOjAxERkf5lZouTblvcKTqWAZ4grZbbUQPQ8XmLPMARnf67ku0EfDcvXSwiIlK4XGO+S72KP8ARnRZ/6GIGAOYdhBtIu0nVyYnu/pnoIEREpP+Y2QnAp6PjGOT3wJtGWvZ3KF01AABmthFwM7BYV09QnhOBw7o5GCIiIoPlD71fo37F/wXg9e5+azf/uOtbF/KAdbktcKBPA9/P52lERES6lmvJ96lf8Yd0219XxR96mAGAedse3kVa/rFurgD2GmkzBBERkaHkq/1/Sv3O+UNaTnldd5/W7RP0tHhBHvjQXp6jRDsB1+R7NUVEREYt145rqGfxBzi0l+IPPc4AzHsSs2uAbXp+onLcTlo2+OHoQEREpP7yCn9XUa/7/Af6lbtv2+uTFLV84YHAzIKeq2gbAH/K6zWLiIgMK9eKP1Hf4j+TVHN7VkgD4O6TgUOKeK6SLA9cZWZfyts2ioiIzGNmi+Vd/a4i1Yy6OiTX3J4Vcgpg3pOZnQfsXdgTlmMSsK+7PxYdiIiIxDOzFYFzgC2DQxnJ+e6+T1FPVnQDMAG4BVizsCctx1RgP3e/JjoQERGJY2bbAj+h3p/6Ae4FNnH36UU9YaFbGObA9gZmFfm8JVgeuNrMTsm3MoqISIuY2UQzOwW4mvoX/1nA3kUWfyhhD2N3vwX4VNHPW4IxwEHAZDPbNzoYERGpRn7Pn0yqAYXXwRJ8KtfWQhV6CmCBJza7ANijlCcvx3XAge5+Z3QgIiJSPDNbj7SC7VbRsXTgQnffs4wnLrMBWBb4M7B6KQOU43ngJOBYd38mOhgREemdmY0HjgQ+CSwRHE4npgAbu/tTZTx5aQ0AgJm9AbgeGFvaIOX4F6kROL3XlZZERCRGvsbrQFLhf1lwOJ2aBWzh7n8sa4BSGwAAM9sTOJ9mnGcZ7Cngm8DJ7v7v6GBERGRkZvYS0to0nwCWDQ6nG3NIF/1dUOYgpTcAAGb2UeBbpQ9UnmeAM4ETtX6AiEg95fv5Pw3sD4wPDqcXH3P3M8oepJIGAMDMjgaOqmSw8swCLgV+CFzt7rOD4xERabW8Xe/2wPuBXWjeKefBjnH3o6sYqLIGAMDMvk3qzPrBVNLKUT9y9z9HByMi0iZmtjHwPmBf6n8f/2id6e4HVDVY1Q3AGNLeyu+qbNBq/BX4MXAlcLtXeVBFRFrAzIy0Qc+OwHuB18RGVLiLgL3cfU5VA1baAACY2VjSZgtbVjpwdaaS9hu4FrjO3e+ODUdEpJnMbG3SPftbk2pGv3zSH2wSadv6SlfRrbwBgHm3ZvwG2LDywav3CKkZuAW4Kz8erLLLExGpszw7vAqwbn5sQir6K0fGVZHbgLdG3HIe0gAAmNkKpDWY29AEDDYDuIf5DcF9wDRgOvD04K/u/lxQnCIiXTGzJYFlgAlDfJ0IrMH8gr8WMC4m0lC3Adu7+z8jBg9rAGDeTMAl9O/pABERkaFMAnaNXGwudHGe/IPvQLr4QUREpA0uIp3zD11pNnx1vnzRw16khXZERET62Zmkq/0rveBvKOENAIC7z8n3Ph4THYuIiEhJjnH3A+pyEXjoNQBDycsGn0ZNmhMREZEezQE+XsXyvp2oXQMA8zYQOpvmL+koIiLtNgt4T9kb+3Sjlg0AzNtK+Hxg9ehYREREujCFtKtfaVv69qK20+z5gG0MXBgdi4iISIcuBDaua/GHGjcAAO7+lLvvCXycNI0iIiJSZ7NI5/v3dPenooNZlNqeAhjMzDYhnRJYMzoWERGRIdxLmvK/JTqQ0aj1DMBA+YDObQJERETq5Hxgk6YUf2hQAwDg7tPdfR/gAGBmdDwiItJ6M4ED3H0fd58eHUwnGnMKYDAzWwc4HdgmOhYREWmlXwEHuvvk6EC60agZgIHcfbK7bwu8G3gsOh4REWmNx4B3u/u2TS3+0OAGYC53P4+0neSpwAvB4YiISP96gVRr1s21p9EaewpgKGa2EXAGsFl0LCIi0ld+D3zU3W+NDqQojZ8BGCi/MG8CPgI8ERyOiIg03xOkmvKmfir+0GczAAOZ2UuBzwH7A0sHhyMiIs3yLGnr3uPc/fHoYMrQtw3AXLkROBQ4EJgYHI6IiNTbNNIdZt/o18I/V983AHOZ2XLAQcDBwIuDwxERkXp5AjgFONXdn4wOpgqtaQDmMrNlgI8BnwKWDw5HRERiTQW+DnzL3Z+ODqZKrWsA5jKzccCHgUPQlsMiIm0zBTgZ+I67z4gOJkJrG4C5zMyAtwDvA/YClo2NSERESvIU8FPgR8BvveUFsPUNwEBmthSwC6kZ2B5YPDYiERHp0WzgalLRv9TdtY9MpgZgGGa2PGmZ4feRdiEUEZHmuIVU9M9196nRwdSRGoBRMLP1gZ2ArYEtgPGxEYmIyCDPANcD1wJXuPsdwfHUnhqADpnZEsAbSc3A1sDmwNjQoERE2mcWcCOp4F8L/MHdn48NqVnUAPQoXzfwZuY3BBsC40KDEhHpPzOA25hf8H+n8/m9UQNQsHxXwSrAOqRdCtcZ8HhFYGgiIk3wMDB5wOOu/PXBtl+1XzQ1ABUys/HMbwZWIy1NPAFYJn8d7s9LBoQrItKL54DpwNP563B/ngbcTy747v5MRLBtpAZAGsnMxgCPAC8PCuEid98jaGwZwMwuBN4VNPw/gJXdfU7Q+CJd66vtgKVV3kJc8Qe4IHBsWVDka/FyUi6KNI4aAGmqPQPHnglcHji+LOhy0msSJTIXRbqmBkAaJ19oGTn9frW7Tw8cXwbIr8XVgSHskXNSpFHUAEgTvQlYKXB8Tf/XT+RrshIpJ0UaRQ2ANFHklOtzwGWB48vQLiO9NlF0GkAaRw2ANEoNpv9/4e5PBY4vQ8ivyS8CQ9BpAGkcNQDSNJsCrwwcX9P/9RX52rySlJsijaEGQJomcqr1eeCSwPFl0S4hvUZRdBpAGkUNgDRN5JvsNe7+ZOD4sghTb2NyAAAFYUlEQVT5tbkmMAQ1ANIoagCkMczsDcCqgSFo+r/+Il+jVXOOijSCGgBpkshPWLOBiwPHl9G5mPRaRdEsgDSGGgBpksg312vd/YnA8WUU8mt0bWAIagCkMdQASCOY2SbAGoEhaPq/OSJfqzVyrorUnhoAaYrIT1YvAD8LHF868zPSaxZFswDSCGoApCki31QnufvjgeNLB/JrNSkwBDUA0ghqAKT2zGxDYK3AEDT93zyRr9laOWdFak0NgDRB5CeqOWj6v4l+RnrtomgWQGpPDYA0wV6BY//G3f8ZOL50Ib9mvwkMITJnRUZFDYDUmpm9GlgnMARN/zdX5Gu3Ts5dkdpSAyB1Fz39f1Hg+NKbi9BpAJFhqQGQuoucSv2duz8WOL70IL92vwsMQacBpNbUAEhtmdl6wPqBIWj6v/kiX8P1cw6L1JIaAKmzyClUBy4MHF+KcSHptYyi0wBSW2oApM4ip1BvdPdHAseXAuTX8MbAEHQaQGpLDYDUkpmtDbwmMARN//ePyNfyNTmXRWpHDYDUVfTUqab/+0f0axmdyyJDUgMgdRU5dXqTuz8YOL4UKL+WNwWGoNMAUktqAKR2zOxVwEaBIWj6v/9EvqYb5ZwWqRU1AFJH0VOmagD6T/RrGp3TIgtRAyB1FDllerO73x84vpQgv6Z/CgxBDYDUjhoAqRUzWw14XWAI0Z8UpTw/DRz79Tm3RWpDDYDUTfQnJTUA/Sv6tY3ObZEFqAGQuol8k7zV3f8eOL6UKL+2twaGoAZAakUNgNSGma0CbBoYQuQUsVQj8jXeNOe4SC2oAZA62SN4/OgpYilf9GscneMi86gBkDqJnCL9q7vfHTi+VCC/xn8NDEGnAaQ21ABILZjZysDmgSFo+r89Il/rzXOui4RTAyB1sQdggeNHTw1LdSJfa0OnAaQm1ABIXUROjd7h7ncGji8Vyq/1HYEh6DSA1IIaAAlnZisCbw4MQdP/7RP5mr8557xIKDUAUgfvIjYXNf3fPpGv+RhSzouEUgMgdRA5JTrZ3f8WOL4EyK/55MAQdBpAwqkBkFBmtgLw1sAQNP3fXpGv/Vtz7ouEUQMg0XZH0/8SI/o0wO6B44uoAZBwkVOh97j7bYHjS6D82t8TGIJOA0goNQASxsxeCmwZGII+/UtkDmyZfwdEQqgBkEi7A4sFjq8GQCJzYDF0GkACqQGQSJFToPe5+y2B40sN5By4LzAEnQaQMGoAJISZvRjYOjAEffqXuSJzYev8uyBSOTUAEmU3YPHA8dUAyFyRubA46XdBpHJqACRK5NTnA+7+x8DxpUZyLjwQGIJOA0gINQBSOTNbDtg2MAR9+pfBInNi2/w7IVIpNQASYVdgicDx1QDIYJE5sQTpd0KkUmoAJELklOdDwE2B40s93UTKjSg6DSCVUwMglTKzZYHtAkO40N09cHypoZwTFwaGsF3+3RCpjBoAqdo7gSUDx9f0vwwnMjeWJP1uiFRGDYBULXKq81HghsDxpd5uIOVIFJ0GkEqpAZDKmNkEYPvAEDT9L8OqwWmA7fPviEgl1ABIlXYGlgocX9P/MpLIHFmK9DsiUgk1AFKlyCnOfwC/DRxfmuG3pFyJotMAUhnTjGj/MzO9yCLSEXe36BikXJoBEBERaSE1ACIiIi2kBkBERKSF1ACIiIi0kBoAERGRFlIDICIi0kJqAERE5P+3WwcCAAAAAIL8rQe5KGJIAABgSAAAYEgAAGBIAABgSAAAYEgAAGBIAABgSAAAYEgAAGBIAABgSAAAYEgAAGBIAABgSAAAYEgAAGBIAABgSAAAYEgAAGBIAABgSAAAYEgAAGBIAABgKOad5qU6SIt+AAAAAElFTkSuQmCC;" vertex="1" parent="1">
                    <mxGeometry x="600" y="504" width="92" height="92" as="geometry"/>
                </mxCell>
                <mxCell id="149" value="" style="endArrow=classic;startArrow=classic;html=1;entryX=0;entryY=1;entryDx=0;entryDy=0;exitX=1;exitY=0;exitDx=0;exitDy=0;" edge="1" parent="1" source="139" target="141">
                    <mxGeometry width="50" height="50" relative="1" as="geometry">
                        <mxPoint x="570" y="490" as="sourcePoint"/>
                        <mxPoint x="620" y="440" as="targetPoint"/>
                    </mxGeometry>
                </mxCell>
                <mxCell id="150" value="" style="endArrow=classic;startArrow=classic;html=1;entryX=0.5;entryY=1;entryDx=0;entryDy=0;exitX=0.5;exitY=0;exitDx=0;exitDy=0;" edge="1" parent="1" source="139" target="140">
                    <mxGeometry width="50" height="50" relative="1" as="geometry">
                        <mxPoint x="570" y="490" as="sourcePoint"/>
                        <mxPoint x="620" y="440" as="targetPoint"/>
                    </mxGeometry>
                </mxCell>
                <mxCell id="152" value="" style="endArrow=classic;html=1;entryX=1;entryY=1;entryDx=0;entryDy=0;exitX=0.25;exitY=0;exitDx=0;exitDy=0;" edge="1" parent="1" source="144" target="139">
                    <mxGeometry width="50" height="50" relative="1" as="geometry">
                        <mxPoint x="570" y="490" as="sourcePoint"/>
                        <mxPoint x="620" y="440" as="targetPoint"/>
                    </mxGeometry>
                </mxCell>
                <mxCell id="153" value="" style="endArrow=none;html=1;entryX=0;entryY=0.5;entryDx=0;entryDy=0;exitX=1;exitY=0.5;exitDx=0;exitDy=0;" edge="1" parent="1" source="143" target="139">
                    <mxGeometry width="50" height="50" relative="1" as="geometry">
                        <mxPoint x="410" y="460" as="sourcePoint"/>
                        <mxPoint x="450" y="510" as="targetPoint"/>
                    </mxGeometry>
                </mxCell>
                <mxCell id="154" value="" style="shape=image;verticalLabelPosition=bottom;labelBackgroundColor=#ffffff;verticalAlign=top;aspect=fixed;imageAspect=0;image=data:image/png,iVBORw0KGgoAAAANSUhEUgAAAgAAAAIACAMAAADDpiTIAAAAA3NCSVQICAjb4U/gAAAACXBIWXMAAA98AAAPfAHoG9owAAAAGXRFWHRTb2Z0d2FyZQB3d3cuaW5rc2NhcGUub3Jnm+48GgAAAtxQTFRF////AAAAAAAAAAAAAAAAAAAAAAAAAAAAAAAAAAAAAAAAAAAAAAAAAAAAAAAAAAAAAAAAAAAAAAAAAAAAAAAAAAAAAAAAAAAAAAAAAAAAAAAAAAAAAAAAAAAAAAAAAAAAAAAAAAAAAAAAAAAAAAAAAAAAAAAAAAAAAAAAAAAAAAAAAAAAAAAAAAAAAAAAAAAAAAAAAAAAAAAAAAAAAAAAAAAAAAAAAAAAAAAAAAAAAAAAAAAAAAAAAAAAAAAAAAAAAAAAAAAAAAAAAAAAAAAAAAAAAAAAAAAAAAAAAAAAAAAAAAAAAAAAAAAAAAAAAAAAAAAAAAAAAAAAAAAAAAAAAAAAAAAAAAAAAAAAAAAAAAAAAAAAAAAAAAAAAAAAAAAAAAAAAAAAAAAAAAAAAAAAAAAAAAAAAAAAAAAAAAAAAAAAAAAAAAAAAAAAAAAAAAAAAAAAAAAAAAAAAAAAAAAAAAAAAAAAAAAAAAAAAAAAAAAAAAAAAAAAAAAAAAAAAAAAAAAAAAAAAAAAAAAAAAAAAAAAAAAAAAAAAAAAAAAAAAAAAAAAAAAAAAAAAAAAAAAAAAAAAAAAAAAAAAAAAAAAAAAAAAAAAAAAAAAAAAAAAAAAAAAAAAAAAAAAAAAAAAAAAAAAAAAAAAAAAAAAAAAAAAAAAAAAAAAAAAAAAAAAAAAAAAAAAAAAAAAAAAAAAAAAAAAAAAAAAAAAAAAAAAAAAAAAAAAAAAAAAAAAAAAAAAAAAAAAAAAAAAAAAAAAAAAAAAAAAAAAAAAAAAAAAAAAAAAAAAAAAAAAAAAAAAAAAAAAAAAAAAAAAAAAAAAAAAAAAAAAAAAAAAAAAAAAAAAAAAAAAAAAAAAAAAAAAAAAAAAAAAAAAAAAAAAAAAAAAAAAAAAAAAAAAAAAAAAAAAAAAAAAAAAAAAAAAAAAAAAAAAAAAAAAAAAAAAAAAAAAAAAAAAAAAAAAAAAAAAAAjTcXJwAAAPN0Uk5TAAECAwQFBgcICQoLDA0ODxAREhMUFRYXGBkaGxwdHh8gISIjJCUmJygpKissLS4vMDEyMzQ1Njg5Ojs8PT4/QEFCREVGR0hKS0xNTk9QUVJTVFVWV1hZWltcXV5fYGFiY2RlZmdoaWprbG1ub3BxcnR1dnd4eXp7fH5/gIGEhYeIiYuMjY6PkJGSk5SVlpeYmZucnZ6foKGio6SlpqeoqaqrrK2ur7CxsrO1tre4ubq7vL2+v8DBwsPExcbHyMnKy8zNzs/Q0dLT1NXW19ja29zd3t/g4eLj5OXm5+jp6uvs7e7v8PHy8/T19vf4+fr7/P3+xyaTLgAADEdJREFUeNrt3fl7FPUdwPHvsoSQEBoqTUEQjEAsRwsCFioikaNYBa0E0gJKsRxFxBRC0cohRFIOKY1aCkhUqFXigZSCRERJObQWwlUCIiDGFAyFcOSYf6C/9Hn6PDPf3Wyy2f3OzOf9/tFn15n5fl5Zdndmd5UiIiIiIiIiIiIiIiIiIiIiIiIiIiIiIiIiIr8VvLnf/VPmv/DaRnJ5hctyJwzt0aZJp9930Wc1FnmqK1umtmuaP/3MladYTk9W+1FuRrTjbzW/goX0cp+Oimb8CTPOs4Re78MfNXb8gXHHWT4/9Gb3Rs2/936WzifV/KFlw+f/4GUWzj/tvbmh83+qjlXzU2f6N2j8LQtZMp9VNbYB829fwoL5rrqFgUjnn/JPlsuPLYj05V8Ra+XPx4CsyAA8y1L5tCv9Ipl/Ngvl39cCEbwavLOKdfJvf6/3HaGkz1klP7eqPgBPh7pnZcmGBeMHpJPb6zZsen7RoVDXb1TXc4L4O5X6+5XNTOaqKC/VZXWIf8pfD3+/ldo77R8bZEm9Vtoi/aUcA8LdqesNzT2uTWA1PVmrTToAO8PdRXePirtZSo8WWKITcF/oO/TSnAI81o2F9G6PVTsnujf0zec7b73vJlbRyw277pxpeshbH3C+ecjfv8fTvK5/MtRtOzlvO4sV9HjBvY6hFoe67eOOm34QYAW9Xs9r9qnWtA1x022OfwC6sn7eb57j73qS/oapjjcBqr8h7+d8c7dID+DHnCoR0gU9gMmsjJSStACeYWGk1EULoICFkdIgLYC3WBgpjdEC4LOAYtK/v3eOhZHSEi2AWhZGSmu0AFgXMa0DAAAAAAAAAAAAAAAAAAAAAA2Aq0fJH5U1DkAJF9P4pO4AAAAAAAAAAAAAAAAAAAAAAAAAAAAAAAAAAAAAAAAAAAAAAAAAAAAAAAAAAAAAAAAAAAAAEAAIAAQAAgABgABAACAAEAAIAAQAAgABgABAACAAEAAIAAQAAgABgABAACAAEAAIAAQAAgABgABAACAAEAAIAAQAAgABgABAACAAEAAIAAQAAgABgABAACAAEAAIAAQAAgABgABAACAAEAAIAAQAAgABgABAACAAEAAIAAAAAAAAAAAAAAAAAAAAAAAAAAAAAAAAAAAAAAAAAAAAAAAAAAAAAAAAAAAAAAAAAAAAAAAAgABAACAAEAAIAAQAAgABgP5fm57Dx2W7u9kAiE0ZuduPV1ke7GUARN8PF5danm3nz1sCIKru+sjydv9e0QEAje57b1re79KcBAA0qlYF1ZYvOjwUAI0o/TPLL9UtCACgoQ0ut3zUn5MB0LCm3LB81YEOAGhIT1h+62AbAETesBrfAbCKEwEQad0uWD5sYwAAkZV6xPJlcwEQWZv8OX+rqgsAImmg5de2ASCSdvkWgDUBAPX3gH/nb50MAqC+gof0a3e1ZPWvczzS/KIvQgh4CAD19VPdul2Z26e5tw6j3U92a98MAEB9FWqW7eMMDx5Is9xrmkPpA4DwJVx0rNn1p4LePJZeB5wAfgeA8A13rtkMzx5MyknHwXwCgPCtdr54Dnj3aDLr7EdT2wYAYTttX56Lt3j5cFY4PI8CQLgSHQv2qKePJ+mE/XiWAiBctzkeMlt5+4BWOq4NAkC4BtlXp9TjBzTR+U4AAMKUFdmHa7xTT8clwgAIV459dWZ5/ICaXbYdUAUAwrXYvjrDvH5E++2XiAMgXHn21cn0+hGV2I8IAA0CMHekxzsCgKgA+C8AAAAAAAAAAAAAAAAAAAAAYOwAIAAQAAgAAAAAAAAAAAAAAAAAAAAA1i30eGcAEBUALgkDAAAAAAAAAAAAAAAAAAAAAAAAAAAAAAAAAAAAAAAAAAAAAAAAAAAAAAAAAAAAAAAAAAAAAAAAAAAAAAAAAAAAAAAAAAAAAAAAAAAAAAAAAAAAAAAAAAAAAAAAAAAAAAAAAAAAAAAAAAAAAAAAAAAAAAAAAAAAAAAAAAAAAAAAAAAAAAAAAAAAAIDGFhgwfk7+K0UhO2Zfnd1FDeq15XMfGRQEgDtLGFFwLh6/y1WxdlRLALiu4C9Ox++32b56PAEA7mp0aXx/nu94FgDc9Oj/Yvx/ofHVJAC4pbbFJn6jc19HALijzifM/Errl70A4IaSPzX1O71lbQHggtf+r5v7peadCQAw3tMmf6v7eQAYfwJw1SSA2jsAYLiXLaNtA4DZ7qgzC8AaAQCjbTI8f+sDAJgs8T+mAdSmAcBgIy3jTQKAwQrMA9gMAIMddr4798ve7WNWz4nOk44XAGCwSvvh7kiJ8ZOOIoeAJAAYK8V+tJc7x3qTN31l32ZXABjrdvvR/i3229xg3+ZgdwM4m+fjHMNYFvsln2vf5hh3A5BVXuyXPMe+zWwAAAAAAAAAAAAAAAAAAAAAAAAAAAAAMwAuAUA2gKOiARTPi3nvuBzADovim8sAbGAisgHkMRHZAGYxEdkAHmYisgH0dOzg74f4tifdAGCcuwAox7clfNnat5eEZfII4ASwzLGHSwEgCcAQxx7e6A4AQQCCFY5d/CsABAFQ6537uAAAggA8pNnJFQEAiAGQeFKzl+uCAJACQI3X7ebmRABIARD4RLefp36VCAAZANRw/Z6ezUkGgAgAaluIfS3PnzSwjZ8BvPFgzFvjBQB9w3131vnijX7pfS4J0wNQ+ULPzAHgf/89+B4ARANQqUcBIBqAyrgAANEA1PAaAIgGoKbWAkA0AHVfJQBEA1A9jgNANAD17e0AEA1ANV8FANEAlLqnBACiASg15hgARANQzWecB4BkAEqlTHvvGgAEA1BKtc4qvAAAwQCUUs3vzVn6SvGxyz4GsAQAEZR6a7qJfquf2fIo/pfZPAI0BoCZ7q/Wzn9tNJ9YyASAZwDcU6Wd/+aoPq8AAM8A6Ks/MbUjukvVAeAVALeXa+e/N8qfeAKARwB0+lw7/9K2CgASAKTpL1A82VEBQAKAb+3Xzv98NwUACQBaFmvnf7GPAoAEAM3f1s7/yiAFAAkAAvrvrr0xUgFABIDntfOvbZov1wOA6wEs0p8AmKYAIAJAiK/ynKcA4DcAnQdqekL/MfWtA5uoGQBwBYDAlK3lXA8gF0C6e36lhEcAA/vQ3UW/UwWA+O9Cs4+5JlA0gNlcFCobwFEAiAaQWgcA0QCG8bkA2QDGAEA2gFsBIPxJYDkAZANYDwDZAL77NQBkvxWcBQDZANTkSgCIBqA6veuW76TkdLCh/UgZkrvCQH/hEcA7Hw+PRVwSBgAAAAAAAAAAAAAAAAAAAAAAAAAAAAAAAAAAAAAAAAAAAAAAAAAAAIgVgD9ON1gZAIwDcFcAAAAAAAAAAAAAAAAAAAAAAAAAAAAAAAAAAAAAAAAAAAAAAAAAAAAAAACgKQAUTDLYCQBwSRgABAPYa9uZOgCIAhD4xrYz5QAQBSDDvjP/AIAoANn2ndkCAFEA8u078xIAJAFIKLXvzCIASAKw0PE+0KMAEASgX7V9X+raA0AOgMRDjgeAPQoAYgDcss15JmAeAMQAmHhRcyqoBwBkAGjRf7PuVOAxBYD4A1iZHeemvrDvuv5c8BQAGADgng4HASAawGgFAMkAdisASAZQexcARAOYpwBgvRX75+DrXTr/DQoAktuTCADJnW6nACC4g7cpAAiuKEUBQHCLAwoAcjuXpRQAxHbpmWQFALHdWJWmFACEVrtrdmelACCymrNvT05T4nMFgPU5cW766Ds7BBm+awBkMwcAEAAIAAQAMgtge+yfg28GgIsB5MV+mzkAAAAAAAAAAAAAAAAAAAAAQAAgABAAKM7dbR/G8thv8zf2bY5hDsZyfFfy9thvs9C+zcHMwVjJ9mFUxfwjUmlf27fZhTmYy/51+dau1NhusNW7jtPBSYzBXM7vyvxi5oD0mNV/2r8cG6xgCgZbbf56kDeYgsFGmAfwCFMwWItK45/QaMsUTPaqaQDvMwOj/aDWMIChzMBsfzI7/y1MwHAdq4x+QPf7TMB0c0wCyGf9zbfB3Py38iFdF5S4x9T8j6Sy+m6o3UEz8z/ZlbV3R63fMTH/D/mGDtfU7Ln4z39NC9bdRWXui+/4Sx9gzd1V4Gdl8Rv/mcd4+u++gveuPBWP6Z8rGJHAaru03g/PfHbNxpi1dsmssf0DLDMRERERERERERERERERERERERERERERERERNXH/BQ1f/H3MqI7EAAAAAElFTkSuQmCC;" vertex="1" parent="1">
                    <mxGeometry x="20" y="364" width="132" height="132" as="geometry"/>
                </mxCell>
                <mxCell id="155" value="" style="endArrow=classic;startArrow=classic;html=1;exitX=1;exitY=0.5;exitDx=0;exitDy=0;" edge="1" parent="1" source="154" target="143">
                    <mxGeometry width="50" height="50" relative="1" as="geometry">
                        <mxPoint x="570" y="490" as="sourcePoint"/>
                        <mxPoint x="620" y="440" as="targetPoint"/>
                    </mxGeometry>
                </mxCell>
                <mxCell id="156" value="INTERNET" style="text;html=1;strokeColor=none;fillColor=none;align=center;verticalAlign=middle;whiteSpace=wrap;rounded=0;" vertex="1" parent="1">
                    <mxGeometry x="280" y="344" width="40" height="20" as="geometry"/>
                </mxCell>
                <mxCell id="157" value="SERVER WEB" style="text;html=1;strokeColor=none;fillColor=none;align=center;verticalAlign=middle;whiteSpace=wrap;rounded=0;" vertex="1" parent="1">
                    <mxGeometry x="430" y="500" width="100" height="20" as="geometry"/>
                </mxCell>
                <mxCell id="158" value="SERVER BD" style="text;html=1;strokeColor=none;fillColor=none;align=center;verticalAlign=middle;whiteSpace=wrap;rounded=0;" vertex="1" parent="1">
                    <mxGeometry x="460" y="100" width="98" height="20" as="geometry"/>
                </mxCell>
                <mxCell id="159" value="SERVER APP" style="text;html=1;strokeColor=none;fillColor=none;align=center;verticalAlign=middle;whiteSpace=wrap;rounded=0;" vertex="1" parent="1">
                    <mxGeometry x="641" y="150" width="100" height="20" as="geometry"/>
                </mxCell>
                <mxCell id="161" value="ALERTAS" style="text;html=1;strokeColor=none;fillColor=none;align=center;verticalAlign=middle;whiteSpace=wrap;rounded=0;" vertex="1" parent="1">
                    <mxGeometry x="760" y="400" width="40" height="20" as="geometry"/>
                </mxCell>
                <mxCell id="162" value="SENSORES" style="text;html=1;strokeColor=none;fillColor=none;align=center;verticalAlign=middle;whiteSpace=wrap;rounded=0;" vertex="1" parent="1">
                    <mxGeometry x="720" y="580" width="40" height="20" as="geometry"/>
                </mxCell>
                <mxCell id="164" value="" style="endArrow=classic;startArrow=classic;html=1;exitX=0;exitY=0.5;exitDx=0;exitDy=0;entryX=1;entryY=0.5;entryDx=0;entryDy=0;" edge="1" parent="1" source="142" target="139">
                    <mxGeometry width="50" height="50" relative="1" as="geometry">
                        <mxPoint x="564" y="482" as="sourcePoint"/>
                        <mxPoint x="600" y="527" as="targetPoint"/>
                    </mxGeometry>
                </mxCell>
                <mxCell id="167" value="DISPOSITIVOS" style="text;html=1;strokeColor=none;fillColor=none;align=center;verticalAlign=middle;whiteSpace=wrap;rounded=0;" vertex="1" parent="1">
                    <mxGeometry x="70" y="320" width="40" height="20" as="geometry"/>
                </mxCell>
                <mxCell id="168" value="APACHE" style="text;html=1;strokeColor=none;fillColor=none;align=center;verticalAlign=middle;whiteSpace=wrap;rounded=0;" vertex="1" parent="1">
                    <mxGeometry x="460" y="520" width="40" height="20" as="geometry"/>
                </mxCell>
                <mxCell id="169" value="TOMCAT" style="text;html=1;strokeColor=none;fillColor=none;align=center;verticalAlign=middle;whiteSpace=wrap;rounded=0;" vertex="1" parent="1">
                    <mxGeometry x="671" y="170" width="40" height="20" as="geometry"/>
                </mxCell>
                <mxCell id="170" value="SQL SERVER" style="text;html=1;strokeColor=none;fillColor=none;align=center;verticalAlign=middle;whiteSpace=wrap;rounded=0;" vertex="1" parent="1">
                    <mxGeometry x="466" y="120" width="90" height="20" as="geometry"/>
                </mxCell>
            </root>
        </mxGraphModel>
    </diagram>
</mxfile>